<svg width="260" height="260" viewBox="0 0 260 260" fill="none" xmlns="http://www.w3.org/2000/svg">
<path d="M90.5324 188.758C94.6105 188.758 97.9164 185.452 97.9164 181.374C97.9164 177.296 94.6105 173.99 90.5324 173.99C86.4544 173.99 83.1484 177.296 83.1484 181.374C83.1484 185.452 86.4544 188.758 90.5324 188.758Z" fill="#3A3A3A"/>
<path d="M90.5327 189.02C86.3207 189.02 82.8887 185.588 82.8887 181.324C82.8887 177.06 86.3207 173.68 90.5327 173.68C94.7447 173.68 98.1767 177.112 98.1767 181.324C98.2287 185.588 94.7967 189.02 90.5327 189.02ZM90.5327 174.2C86.5807 174.2 83.4087 177.424 83.4087 181.376C83.4087 185.328 86.6327 188.5 90.5847 188.5C94.5367 188.5 97.7087 185.276 97.7087 181.376C97.7087 177.424 94.4847 174.2 90.5327 174.2Z" fill="#3A3A3A"/>
<path d="M90.5318 185.484C92.8006 185.484 94.6398 183.644 94.6398 181.376C94.6398 179.107 92.8006 177.268 90.5318 177.268C88.263 177.268 86.4238 179.107 86.4238 181.376C86.4238 183.644 88.263 185.484 90.5318 185.484Z" fill="white"/>
<path d="M90.5328 185.691C88.1408 185.691 86.2168 183.767 86.2168 181.323C86.2168 178.879 88.1408 176.955 90.5848 176.955C92.9768 176.955 94.9008 178.879 94.9008 181.323C94.9008 183.767 92.9248 185.691 90.5328 185.691ZM90.5328 177.527C88.4008 177.527 86.7368 179.243 86.7368 181.375C86.7368 183.507 88.4528 185.223 90.5848 185.223C92.7168 185.223 94.3808 183.507 94.3808 181.375C94.3808 179.243 92.6648 177.527 90.5328 177.527Z" fill="#3A3A3A"/>
<path d="M88.1411 171.234H92.9771C93.6011 171.234 94.1731 171.598 94.4331 172.222L96.0451 176.33C96.3571 177.162 95.8891 178.046 95.1091 178.306C94.9531 178.358 94.7971 178.41 94.6411 178.41H86.5811C85.6971 178.41 85.0211 177.682 85.0731 176.798C85.0731 176.642 85.1251 176.486 85.1771 176.33L86.7891 172.222C86.9451 171.598 87.5171 171.234 88.1411 171.234Z" fill="#B88E2F"/>
<path d="M94.589 178.62H86.529C85.541 178.62 84.709 177.84 84.709 176.852C84.709 176.644 84.761 176.384 84.813 176.176L86.425 172.068C86.685 171.392 87.361 170.924 88.089 170.924H92.925C93.653 170.924 94.329 171.392 94.589 172.068L96.201 176.176C96.565 177.112 96.097 178.152 95.213 178.516C95.057 178.62 94.797 178.672 94.589 178.62ZM88.141 171.496C87.621 171.496 87.153 171.808 86.945 172.276L85.333 176.384C85.073 177.06 85.385 177.788 86.061 178.048C86.217 178.1 86.373 178.152 86.529 178.152H94.589C95.317 178.152 95.889 177.58 95.889 176.904C95.889 176.748 95.837 176.592 95.785 176.436L94.173 172.328C93.965 171.86 93.497 171.496 92.977 171.548H88.141V171.496Z" fill="#3A3A3A"/>
<path d="M117.73 188.758C121.808 188.758 125.114 185.452 125.114 181.374C125.114 177.296 121.808 173.99 117.73 173.99C113.652 173.99 110.346 177.296 110.346 181.374C110.346 185.452 113.652 188.758 117.73 188.758Z" fill="#3A3A3A"/>
<path d="M117.728 189.02C113.516 189.02 110.084 185.588 110.084 181.324C110.084 177.06 113.516 173.68 117.78 173.68C121.992 173.68 125.424 177.112 125.424 181.324C125.424 185.588 121.992 189.02 117.728 189.02ZM117.728 174.2C113.776 174.2 110.604 177.424 110.604 181.376C110.604 185.328 113.828 188.5 117.78 188.5C121.732 188.5 124.904 185.276 124.904 181.376C124.904 177.424 121.68 174.2 117.728 174.2Z" fill="#3A3A3A"/>
<path d="M117.729 185.484C119.998 185.484 121.837 183.644 121.837 181.376C121.837 179.107 119.998 177.268 117.729 177.268C115.46 177.268 113.621 179.107 113.621 181.376C113.621 183.644 115.46 185.484 117.729 185.484Z" fill="white"/>
<path d="M117.728 185.691C115.336 185.691 113.412 183.767 113.412 181.323C113.412 178.879 115.336 176.955 117.78 176.955C120.172 176.955 122.096 178.879 122.096 181.323C122.096 183.767 120.12 185.691 117.728 185.691ZM117.728 177.527C115.596 177.527 113.932 179.243 113.932 181.375C113.932 183.507 115.648 185.223 117.78 185.223C119.912 185.223 121.576 183.507 121.576 181.375C121.576 179.243 119.86 177.527 117.728 177.527Z" fill="#3A3A3A"/>
<path d="M115.336 171.234H120.172C120.796 171.234 121.368 171.598 121.628 172.222L123.292 176.278C123.604 177.11 123.136 177.994 122.356 178.254C122.2 178.306 122.044 178.358 121.888 178.358H113.776C112.892 178.358 112.216 177.63 112.268 176.746C112.268 176.59 112.32 176.434 112.372 176.278L113.984 172.17C114.14 171.598 114.712 171.234 115.336 171.234Z" fill="#B88E2F"/>
<path d="M121.785 178.62H113.725C113.153 178.62 112.581 178.308 112.217 177.84C111.905 177.372 111.801 176.696 112.009 176.176L113.621 172.068C113.881 171.392 114.557 170.924 115.285 170.924H120.121C120.849 170.924 121.525 171.392 121.785 172.068L123.397 176.176C123.605 176.748 123.553 177.372 123.189 177.84C122.929 178.36 122.357 178.672 121.785 178.62ZM115.337 171.496C114.817 171.496 114.349 171.808 114.141 172.276L112.529 176.384C112.269 177.06 112.581 177.788 113.257 178.048C113.413 178.1 113.569 178.152 113.725 178.152H121.785C122.513 178.152 123.085 177.58 123.085 176.904C123.085 176.748 123.033 176.592 122.981 176.436L121.369 172.328C121.161 171.86 120.693 171.496 120.173 171.548H115.337V171.496Z" fill="#3A3A3A"/>
<path d="M127.661 178.099H79.2485C76.0765 178.099 73.3205 175.967 72.4885 172.899L53.4565 101.243C52.9885 99.5266 51.9485 98.0706 50.4925 97.0826L45.5525 93.7026C44.8245 93.1826 44.6165 92.1946 45.1365 91.4666C45.6565 90.7386 46.6445 90.5306 47.3725 91.0506L52.3125 94.4306C54.3925 95.8346 55.9005 98.0186 56.5765 100.463L75.6085 172.119C76.0245 173.783 77.5325 174.927 79.2485 174.927H127.661C128.545 174.875 129.325 175.551 129.377 176.435C129.429 177.319 128.753 178.099 127.869 178.151C127.765 178.099 127.713 178.099 127.661 178.099Z" fill="white"/>
<path d="M127.662 178.359H79.2497C75.9737 178.359 73.0617 176.123 72.2297 172.951L53.1977 101.295C52.7817 99.6312 51.7417 98.2272 50.3377 97.2912L45.3977 93.9112C44.9817 93.6512 44.7217 93.1832 44.6177 92.7152C44.4097 91.6752 45.0857 90.6872 46.1257 90.5312C46.5937 90.4272 47.1137 90.5312 47.5297 90.8432L52.4697 94.2232C54.6017 95.6792 56.1617 97.8632 56.8377 100.359L75.8697 172.015C76.2857 173.523 77.6377 174.615 79.2497 174.615H127.662C128.702 174.667 129.482 175.551 129.43 176.591C129.378 177.527 128.598 178.307 127.662 178.359ZM46.4897 91.0512C46.3857 91.0512 46.3337 91.0512 46.2297 91.0512C45.8657 91.1032 45.5537 91.3112 45.3457 91.6232C45.1377 91.9352 45.0857 92.2992 45.1377 92.6632C45.1897 93.0272 45.3977 93.3392 45.7097 93.5472L50.6497 96.9272C52.1577 97.9672 53.2497 99.4752 53.7177 101.243L72.7497 172.899C73.5297 175.863 76.2337 177.891 79.2497 177.891H127.662C128.39 177.839 129.014 177.215 128.962 176.435C128.91 175.759 128.39 175.187 127.662 175.135H79.2497C77.4297 175.135 75.8697 173.887 75.4017 172.119L56.3177 100.515C55.6937 98.1232 54.1857 96.0432 52.1577 94.6392L47.2177 91.2592C47.0097 91.1032 46.7497 91.0512 46.4897 91.0512Z" fill="#3A3A3A"/>
<path d="M54.7564 99.9441L53.4564 101.296L29.5364 108.004L29.0684 106.652L48.4644 99.5801L54.7564 99.9441Z" fill="#3A3A3A"/>
<path d="M29.5366 108.262C29.4326 108.262 29.3286 108.21 29.2766 108.106L28.8086 106.754C28.7566 106.598 28.8086 106.494 28.9646 106.442L48.4126 99.3184C48.4646 99.3184 48.4646 99.3184 48.5166 99.3184L54.8086 99.6824C54.9126 99.6824 55.0166 99.7344 55.0166 99.8384C55.0686 99.9424 55.0166 100.046 54.9646 100.098L53.6646 101.398C53.6126 101.45 53.6126 101.45 53.5606 101.45L29.6926 108.21L29.5366 108.262ZM29.4326 106.806L29.7446 107.69L53.3006 101.034L54.1326 100.202L48.5166 99.8384L29.4326 106.806Z" fill="#3A3A3A"/>
<path d="M18.7207 98.4878L46.1247 92.5078C46.1247 92.5078 53.0927 95.8358 54.7567 99.9958L27.6647 107.12C27.6647 107.12 26.2607 102.96 18.7207 98.4878Z" fill="#B88E2F"/>
<path d="M27.6639 107.38C27.5599 107.38 27.4559 107.328 27.4039 107.224C27.4039 107.172 25.8959 103.064 18.5639 98.6961C18.4599 98.6441 18.4079 98.5401 18.4599 98.4361C18.4599 98.3321 18.5639 98.228 18.6679 98.228L46.0719 92.248C46.1239 92.248 46.1759 92.248 46.2279 92.248C46.5399 92.404 53.2999 95.6801 55.0159 99.8401C55.0679 99.8921 55.0679 99.996 55.0159 100.048C54.9639 100.1 54.9118 100.152 54.8599 100.204L27.8199 107.38H27.6639ZM19.3959 98.5921C25.5839 102.44 27.4559 105.924 27.8199 106.808L54.3399 99.788C52.6239 96.148 46.7479 93.132 46.0199 92.768L19.3959 98.5921Z" fill="#3A3A3A"/>
<path d="M117.676 188.759H60.112C55.796 188.759 52 186.003 50.7 181.895L33.124 127.503L26 107.743C25.272 105.715 23.92 103.999 22.204 102.803L17.68 99.6835C16.952 99.1635 16.848 98.1235 17.368 97.3955C17.888 96.7195 18.824 96.5635 19.5 96.9795L24.024 100.099C26.364 101.659 28.132 103.947 29.068 106.599L36.192 126.411L53.768 180.855C54.652 183.611 57.2 185.483 60.112 185.483H117.676C118.56 185.431 119.34 186.107 119.392 186.991C119.444 187.875 118.768 188.655 117.884 188.707C117.78 188.759 117.728 188.759 117.676 188.759Z" fill="white"/>
<path d="M117.677 189.02H60.1127C55.6927 189.02 51.7927 186.212 50.4407 182L32.8647 127.608L25.7407 107.848C25.0647 105.872 23.7647 104.208 21.9967 103.064L17.4727 99.9438C16.5887 99.3718 16.3807 98.1758 16.9527 97.3438C17.5247 96.4598 18.7207 96.2518 19.5527 96.8238L24.0767 99.9438C26.4687 101.556 28.2367 103.896 29.2247 106.6L36.3487 126.36L53.9247 180.804C54.7567 183.456 57.2527 185.224 60.0087 185.224H117.573C118.613 185.172 119.497 185.952 119.549 186.992C119.601 188.032 118.821 188.916 117.781 188.968C117.781 189.02 117.729 189.02 117.677 189.02ZM18.6167 97.0318C18.1487 97.0318 17.7327 97.2398 17.4727 97.6038C17.0567 98.2278 17.2127 99.0598 17.8367 99.4758L22.3607 102.596C24.1807 103.844 25.5327 105.612 26.2607 107.64L33.3847 127.4L50.9607 181.792C52.2607 185.796 55.9527 188.5 60.1647 188.5H117.677C118.405 188.552 119.081 187.98 119.133 187.2C119.185 186.472 118.613 185.796 117.833 185.744C117.781 185.744 117.729 185.744 117.677 185.744H60.1127C57.0967 185.744 54.4447 183.82 53.5607 180.96L35.9847 126.568L28.8607 106.756C27.9247 104.156 26.2087 101.92 23.9207 100.36L19.3967 97.2398C19.1367 97.0838 18.8767 97.0318 18.6167 97.0318Z" fill="#3A3A3A"/>
<path d="M150.489 114.398L136.969 121.054H31.7207L59.5927 114.398H150.489Z" fill="#3A3A3A"/>
<path d="M137.02 121.315H31.7202C31.5642 121.315 31.4602 121.211 31.4082 121.107C31.4082 120.951 31.5122 120.847 31.6162 120.795L59.4882 114.191H59.5402H150.436C150.592 114.191 150.696 114.295 150.696 114.451C150.696 114.555 150.644 114.659 150.54 114.711L137.072 121.315H137.02ZM33.9042 120.795H136.916L149.344 114.711H59.5922L33.9042 120.795Z" fill="#3A3A3A"/>
<path d="M150.488 114.398L128.804 159.846L119.964 163.902C119.132 164.266 118.3 164.578 117.416 164.734L137.02 120.95L150.488 114.398Z" fill="#B88E2F"/>
<path d="M117.365 165.046C117.209 165.046 117.105 164.942 117.105 164.786C117.105 164.734 117.105 164.734 117.105 164.682L136.709 120.898C136.709 120.846 136.761 120.794 136.813 120.794L150.281 114.19C150.385 114.138 150.489 114.138 150.593 114.242C150.697 114.294 150.697 114.45 150.645 114.554L128.961 160.002C128.961 160.054 128.909 160.106 128.857 160.106L120.017 164.162C119.185 164.526 118.301 164.838 117.417 165.046H117.365ZM137.177 121.21L117.833 164.37C118.509 164.214 119.185 163.954 119.809 163.642L128.597 159.586L149.917 114.918L137.177 121.21Z" fill="#3A3A3A"/>
<path d="M136.969 121.055L117.365 164.839C116.429 165.047 115.493 165.151 114.505 165.151H47.9967C46.5927 165.151 45.3447 164.215 44.9287 162.915L31.7207 121.055H136.969Z" fill="white"/>
<path d="M114.557 165.359H47.9969C46.4889 165.359 45.1369 164.371 44.6689 162.915L31.4609 121.107C31.4609 121.003 31.4609 120.951 31.5129 120.899C31.5649 120.847 31.6169 120.795 31.7209 120.795H137.021C137.125 120.795 137.177 120.847 137.229 120.899C137.281 120.951 137.281 121.055 137.229 121.159L117.625 164.943C117.573 164.995 117.521 165.099 117.417 165.099C116.481 165.255 115.493 165.359 114.557 165.359ZM32.0849 121.315L45.1889 162.759C45.5529 164.007 46.7489 164.839 47.9969 164.839H114.505C115.389 164.839 116.273 164.735 117.157 164.579L136.553 121.315H32.0849Z" fill="#3A3A3A"/>
<path d="M106.653 165.36C106.601 165.36 106.601 165.36 106.549 165.36C106.445 165.308 106.341 165.152 106.445 164.996L126.309 120.9C126.361 120.796 126.517 120.744 126.673 120.796C126.777 120.848 126.829 121.004 126.777 121.108L106.913 165.204C106.809 165.308 106.757 165.36 106.653 165.36Z" fill="#3A3A3A"/>
<path d="M97.8654 165.359H97.7614C97.6054 165.307 97.5534 165.151 97.6054 165.047L112.113 120.951C112.165 120.795 112.321 120.743 112.425 120.795C112.581 120.847 112.633 121.003 112.581 121.107L98.0734 165.203C98.0734 165.307 98.0214 165.359 97.8654 165.359Z" fill="#3A3A3A"/>
<path d="M89.1291 165.36H89.0771C88.9211 165.308 88.8691 165.204 88.8691 165.048L98.0211 120.952C98.0731 120.796 98.1771 120.692 98.3331 120.744C98.4891 120.796 98.5931 120.9 98.5411 121.056L89.3891 165.152C89.3891 165.256 89.2851 165.36 89.1291 165.36Z" fill="#3A3A3A"/>
<path d="M80.3928 165.36C80.2368 165.36 80.1328 165.204 80.1328 165.1L83.9808 121.004C83.9808 120.848 84.1368 120.744 84.2408 120.744C84.3968 120.744 84.5008 120.9 84.5008 121.004L80.6528 165.1C80.6528 165.256 80.5488 165.36 80.3928 165.36Z" fill="#3A3A3A"/>
<path d="M71.6567 165.36C71.5007 165.36 71.3967 165.256 71.3967 165.1L69.8887 121.004C69.8887 120.848 69.9927 120.744 70.1487 120.744C70.3047 120.744 70.4087 120.848 70.4087 121.004L71.9167 165.1C71.9167 165.256 71.8127 165.36 71.6567 165.36Z" fill="#3A3A3A"/>
<path d="M62.9209 165.36C62.8169 165.36 62.6609 165.256 62.6609 165.152L55.7969 121.056C55.7969 120.9 55.8489 120.796 56.0049 120.744C56.1609 120.744 56.2649 120.796 56.3169 120.952L63.1809 165.048C63.1809 165.204 63.1289 165.308 62.9209 165.36C62.9729 165.36 62.9729 165.36 62.9209 165.36Z" fill="#3A3A3A"/>
<path d="M54.1849 165.359C54.0809 165.359 53.9769 165.255 53.9249 165.151L41.7049 121.107C41.6529 120.951 41.7569 120.795 41.9129 120.795C42.0689 120.743 42.2249 120.847 42.2249 121.003L54.4449 165.099C54.4969 165.255 54.3929 165.359 54.2889 165.411L54.1849 165.359Z" fill="#3A3A3A"/>
<path d="M123.813 162.396C123.761 162.396 123.761 162.396 123.709 162.396C123.553 162.344 123.501 162.188 123.605 162.032L143.573 117.572C143.625 117.468 143.781 117.416 143.937 117.468C144.041 117.52 144.093 117.676 144.041 117.78L124.073 162.24C124.021 162.344 123.917 162.396 123.813 162.396Z" fill="#3A3A3A"/>
<path d="M132.029 132.391H35.2053C35.0493 132.391 34.9453 132.287 34.9453 132.131C34.9453 131.975 35.0493 131.871 35.2053 131.871H131.977L145.081 125.215C145.237 125.163 145.393 125.215 145.445 125.371C145.497 125.475 145.445 125.631 145.341 125.683L132.133 132.391C132.081 132.339 132.081 132.391 132.029 132.391Z" fill="#3A3A3A"/>
<path d="M127.142 143.312H38.6897C38.5337 143.312 38.4297 143.208 38.4297 143.052C38.4297 142.896 38.5337 142.792 38.6897 142.792H127.09L139.362 137.176C139.518 137.124 139.622 137.176 139.674 137.332C139.726 137.436 139.674 137.592 139.57 137.644L127.194 143.26C127.194 143.312 127.142 143.312 127.142 143.312Z" fill="#3A3A3A"/>
<path d="M122.356 153.97H41.9123C41.7563 153.97 41.6523 153.866 41.6523 153.71C41.6523 153.554 41.7563 153.45 41.9123 153.45H122.304L133.848 148.822C134.004 148.77 134.108 148.822 134.16 148.978C134.212 149.134 134.16 149.238 134.004 149.29L122.408 153.97H122.356Z" fill="#3A3A3A"/>
<path d="M70.8766 204.152C75.7014 204.152 79.6126 200.24 79.6126 195.416C79.6126 190.591 75.7014 186.68 70.8766 186.68C66.0519 186.68 62.1406 190.591 62.1406 195.416C62.1406 200.24 66.0519 204.152 70.8766 204.152Z" fill="#3A3A3A"/>
<path d="M70.8769 204.412C65.8849 204.412 61.8809 200.356 61.8809 195.416C61.8809 190.476 65.9369 186.42 70.8769 186.42C75.8689 186.42 79.8729 190.476 79.8729 195.416C79.8729 200.408 75.8689 204.412 70.8769 204.412ZM70.8769 186.94C66.1969 186.94 62.4009 190.736 62.4009 195.416C62.4009 200.096 66.1969 203.892 70.8769 203.892C75.5569 203.892 79.3529 200.096 79.3529 195.416C79.3529 190.736 75.5569 186.94 70.8769 186.94Z" fill="#3A3A3A"/>
<path d="M70.877 200.252C73.5479 200.252 75.713 198.087 75.713 195.416C75.713 192.745 73.5479 190.58 70.877 190.58C68.2062 190.58 66.041 192.745 66.041 195.416C66.041 198.087 68.2062 200.252 70.877 200.252Z" fill="white"/>
<path d="M70.8773 200.51C68.0693 200.51 65.7812 198.222 65.7812 195.414C65.7812 192.606 68.0693 190.318 70.8773 190.318C73.6853 190.318 75.9733 192.606 75.9733 195.414C75.9733 198.222 73.6853 200.51 70.8773 200.51ZM70.8773 190.89C68.3813 190.89 66.3012 192.918 66.3012 195.466C66.3012 197.962 68.3293 200.042 70.8773 200.042C73.3733 200.042 75.4533 198.014 75.4533 195.466C75.4533 192.918 73.4253 190.89 70.8773 190.89Z" fill="#3A3A3A"/>
<path d="M68.0174 183.455H73.7374C74.4654 183.455 75.1414 183.923 75.4014 184.599L77.3254 189.435C77.6894 190.371 77.2214 191.411 76.2854 191.775C76.0774 191.879 75.8694 191.879 75.6094 191.879H66.0934C65.1054 191.879 64.2734 191.047 64.2734 190.059C64.2734 189.851 64.3254 189.591 64.3774 189.383L66.3014 184.547C66.6134 183.923 67.2894 183.455 68.0174 183.455Z" fill="#B88E2F"/>
<path d="M75.6605 192.192H66.1445C65.0005 192.192 64.0645 191.256 64.0645 190.112C64.0645 189.852 64.1165 189.592 64.2205 189.384L66.1445 184.548C66.4565 183.768 67.2365 183.248 68.0685 183.248H73.7885C74.6205 183.248 75.4005 183.768 75.7125 184.548L77.6365 189.384C78.0525 190.476 77.5325 191.672 76.4405 192.088C76.1805 192.14 75.9205 192.192 75.6605 192.192ZM68.0165 183.716C67.3925 183.716 66.8205 184.132 66.5605 184.704L64.6365 189.54C64.3245 190.32 64.7405 191.256 65.5205 191.568C65.6765 191.62 65.8845 191.672 66.0925 191.672H75.6085C76.4925 191.672 77.1685 190.944 77.1685 190.112C77.1685 189.904 77.1165 189.748 77.0645 189.54L75.1405 184.704C74.8805 184.132 74.3085 183.716 73.6845 183.716H68.0165Z" fill="#3A3A3A"/>
<path d="M103.013 204.152C107.838 204.152 111.749 200.24 111.749 195.416C111.749 190.591 107.838 186.68 103.013 186.68C98.1886 186.68 94.2773 190.591 94.2773 195.416C94.2773 200.24 98.1886 204.152 103.013 204.152Z" fill="#3A3A3A"/>
<path d="M103.014 204.412C98.0216 204.412 94.0176 200.356 94.0176 195.416C94.0176 190.476 98.0736 186.42 103.014 186.42C108.006 186.42 112.01 190.476 112.01 195.416C112.01 200.408 108.006 204.412 103.014 204.412ZM103.014 186.94C98.3336 186.94 94.5376 190.736 94.5376 195.416C94.5376 200.096 98.3336 203.892 103.014 203.892C107.694 203.892 111.49 200.096 111.49 195.416C111.49 190.736 107.694 186.94 103.014 186.94Z" fill="#3A3A3A"/>
<path d="M103.012 200.252C105.683 200.252 107.848 198.087 107.848 195.416C107.848 192.745 105.683 190.58 103.012 190.58C100.341 190.58 98.1758 192.745 98.1758 195.416C98.1758 198.087 100.341 200.252 103.012 200.252Z" fill="white"/>
<path d="M103.012 200.51C100.204 200.51 97.916 198.222 97.916 195.414C97.916 192.606 100.204 190.318 103.012 190.318C105.82 190.318 108.108 192.606 108.108 195.414C108.056 198.222 105.82 200.51 103.012 200.51ZM103.012 190.89C100.516 190.89 98.436 192.918 98.436 195.466C98.436 197.962 100.464 200.042 103.012 200.042C105.508 200.042 107.588 198.014 107.588 195.466C107.588 192.918 105.508 190.89 103.012 190.89Z" fill="#3A3A3A"/>
<path d="M100.152 183.455H105.872C106.6 183.455 107.276 183.923 107.536 184.599L109.46 189.435C109.824 190.371 109.356 191.411 108.42 191.775C108.212 191.879 108.004 191.879 107.744 191.879H98.2282C97.2402 191.879 96.4082 191.047 96.4082 190.059C96.4082 189.851 96.4602 189.591 96.5122 189.383L98.4362 184.547C98.7482 183.923 99.4242 183.455 100.152 183.455Z" fill="#B88E2F"/>
<path d="M107.797 192.192H98.2812C97.1372 192.192 96.2012 191.256 96.2012 190.112C96.2012 189.852 96.2532 189.592 96.3572 189.384L98.2812 184.548C98.5932 183.768 99.3732 183.248 100.205 183.248H105.925C106.757 183.248 107.537 183.768 107.849 184.548L109.773 189.384C110.189 190.476 109.669 191.672 108.577 192.088C108.265 192.14 108.057 192.192 107.797 192.192ZM100.153 183.716C99.5292 183.716 98.9572 184.132 98.6972 184.704L96.7732 189.54C96.4612 190.32 96.8772 191.256 97.6572 191.568C97.8132 191.62 98.0212 191.672 98.2292 191.672H107.745C108.629 191.672 109.305 190.944 109.253 190.06C109.253 189.852 109.201 189.696 109.149 189.54L107.225 184.704C106.965 184.132 106.393 183.716 105.769 183.716H100.153Z" fill="#3A3A3A"/>
<path d="M157.146 134.056C157.146 134.056 169.47 164.632 172.59 170.04C175.138 174.46 183.614 189.124 186.682 194.428C187.358 195.624 188.762 196.196 190.114 195.832C193.65 194.844 200.254 192.556 203.062 188.344C203.738 187.356 203.738 186.004 203.062 185.016L187.462 161.148L184.602 145.08C184.602 145.08 193.962 148.98 203.062 143.572C210.55 139.152 221.678 131.872 225.474 129.376C226.306 128.804 226.774 127.816 226.566 126.828C226.046 123.76 224.33 117.364 219.234 116.168C218.402 116.012 217.518 116.116 216.738 116.532L198.018 126.36C198.018 126.36 191.258 104.104 181.118 98.0718C181.118 98.0718 179.298 96.4598 175.658 96.7198C172.018 96.9798 159.278 111.28 159.278 111.28L155.43 130.832L157.146 134.056Z" fill="white"/>
<path d="M189.333 196.196C188.189 196.196 187.097 195.572 186.473 194.584C183.041 188.708 174.825 174.512 172.381 170.196C169.313 164.84 157.249 134.992 156.937 134.16L155.221 130.988C155.169 130.936 155.169 130.884 155.221 130.832L159.069 111.28C159.069 111.228 159.121 111.176 159.121 111.176C159.641 110.604 172.017 96.8762 175.709 96.6162C179.401 96.3562 181.273 97.9682 181.325 98.0202C185.537 100.516 189.697 106.08 193.649 114.504C195.417 118.3 196.925 122.148 198.225 126.1L216.737 116.428C217.569 116.012 218.505 115.856 219.389 116.064C224.693 117.312 226.409 124.072 226.929 126.932C227.137 128.024 226.617 129.116 225.733 129.74C222.405 131.924 210.861 139.464 203.321 143.936C195.313 148.72 186.993 146.276 185.069 145.6L187.825 161.148L203.425 184.964C204.153 186.056 204.153 187.512 203.425 188.604C200.565 192.816 194.013 195.156 190.373 196.144C189.957 196.144 189.645 196.196 189.333 196.196ZM155.689 130.832L157.353 133.952C157.457 134.264 169.677 164.58 172.745 169.936C175.241 174.252 183.457 188.448 186.837 194.324C187.461 195.416 188.761 195.936 189.957 195.572C193.545 194.584 199.993 192.296 202.749 188.24C203.373 187.304 203.373 186.108 202.749 185.172L187.149 161.304C187.149 161.252 187.097 161.252 187.097 161.2L184.237 145.132C184.237 145.028 184.237 144.924 184.341 144.872C184.393 144.82 184.497 144.82 184.601 144.82C184.705 144.872 193.961 148.616 202.853 143.312C210.393 138.84 221.885 131.3 225.265 129.116C226.045 128.596 226.409 127.712 226.253 126.828C225.785 124.072 224.121 117.572 219.129 116.376C218.349 116.22 217.517 116.324 216.841 116.688L198.121 126.568C198.069 126.62 197.965 126.62 197.913 126.568C197.861 126.516 197.809 126.464 197.757 126.412C197.705 126.204 190.945 104.208 181.013 98.2802C180.961 98.2282 179.193 96.7202 175.709 96.9802C172.329 97.2402 160.369 110.396 159.537 111.332L155.689 130.832Z" fill="#3A3A3A"/>
<path d="M88.2456 115.7C88.2456 115.7 87.2056 112.424 92.1456 108.316C97.0856 104.208 105.51 104.624 108.318 107.484C111.126 110.344 111.126 121.056 111.126 121.056C111.126 121.056 89.1296 121.004 89.1296 121.056C89.1296 121.108 88.2456 115.7 88.2456 115.7Z" fill="#3A3A3A"/>
<path d="M89.1289 121.315C89.0249 121.315 88.9729 121.315 88.9209 121.003V120.951C88.7649 120.431 88.5569 119.079 88.0369 115.751C87.9329 115.439 87.1529 112.163 92.0409 108.107C97.2409 103.739 105.769 104.467 108.577 107.275C111.385 110.083 111.489 120.587 111.489 121.055C111.489 121.107 111.437 121.211 111.437 121.263C111.385 121.315 111.333 121.315 111.229 121.315C103.845 121.315 89.8569 121.263 89.2329 121.315H89.1289ZM101.245 105.559C98.1769 105.559 94.7969 106.443 92.3009 108.523C87.5689 112.475 88.4529 115.595 88.5049 115.647C88.5569 115.699 88.5049 115.647 88.5049 115.699C88.8169 117.519 89.2329 120.119 89.3369 120.847C89.8049 120.795 90.6889 120.795 92.5609 120.795H100.153H110.917C110.917 119.131 110.657 110.135 108.161 107.639C106.861 106.339 104.209 105.559 101.245 105.559Z" fill="#3A3A3A"/>
<path d="M98.3327 121.056C98.3327 121.056 96.2527 119.236 97.9167 118.04C99.5807 116.844 102.597 118.664 103.013 121.056H98.3327Z" fill="white"/>
<path d="M103.012 121.315H98.3318C98.2798 121.315 98.2278 121.315 98.1758 121.263C98.1238 121.211 96.9278 120.171 97.0318 119.079C97.0838 118.559 97.3438 118.091 97.8118 117.831C98.6438 117.311 99.6838 117.259 100.516 117.727C101.92 118.299 103.012 119.547 103.324 121.055C103.324 121.107 103.324 121.211 103.272 121.263C103.168 121.263 103.064 121.315 103.012 121.315ZM98.4358 120.795H102.7C102.336 119.599 101.452 118.663 100.256 118.195C99.5278 117.831 98.6958 117.883 98.0198 118.247C97.7078 118.403 97.5518 118.715 97.4998 119.079C97.4478 119.807 98.1758 120.535 98.4358 120.795Z" fill="#3A3A3A"/>
<path d="M94.5894 120.38C93.4454 119.444 92.4054 118.404 91.5214 117.312C90.2214 115.648 90.8974 114.4 89.7014 114.4C88.5054 114.4 88.0894 116.428 88.0894 116.428C88.0894 116.428 85.3854 114.764 84.7614 116.584C84.7614 116.584 81.5894 115.336 81.0174 117.416C81.0174 117.416 78.4174 117.052 78.1574 119.028C78.1574 119.028 74.9854 118.3 75.1934 121.004H76.4414C77.6894 122.512 79.0414 124.02 80.4454 125.372C82.3174 127.14 87.8294 125.996 89.1814 127.504C89.1294 127.556 90.0134 121.94 94.5894 120.38Z" fill="white"/>
<path d="M89.1287 127.817C89.0767 127.817 88.9727 127.765 88.9207 127.713C88.3487 127.089 86.7887 126.985 85.1767 126.881C83.2527 126.725 81.2247 126.621 80.1847 125.633C78.7807 124.281 77.4807 122.825 76.2327 121.317H75.0887C74.9327 121.317 74.8287 121.213 74.8287 121.057C74.7247 120.381 74.9327 119.705 75.4527 119.237C76.1807 118.613 77.3247 118.665 77.8447 118.717C77.9487 118.301 78.2087 117.885 78.5727 117.625C79.1967 117.209 79.9767 117.053 80.7567 117.105C80.9127 116.689 81.1727 116.377 81.5887 116.169C82.5767 115.701 83.9807 116.065 84.5527 116.221C84.7087 115.909 84.9687 115.649 85.2807 115.545C86.1127 115.233 87.2567 115.753 87.8287 116.013C88.0367 115.389 88.5567 114.141 89.5967 114.141C90.4287 114.141 90.5847 114.661 90.7927 115.285C90.9487 115.961 91.2607 116.585 91.6767 117.105C92.5607 118.249 93.6007 119.237 94.7447 120.173C94.7967 120.225 94.8487 120.329 94.8487 120.433C94.8487 120.537 94.7447 120.589 94.6927 120.641C90.3247 122.149 89.4407 127.505 89.4407 127.609C89.4407 127.713 89.3367 127.765 89.2327 127.817H89.1287ZM75.4007 120.797H76.3887C76.4927 120.797 76.5447 120.849 76.5967 120.901C77.8447 122.409 79.1967 123.865 80.6007 125.269C81.5367 126.153 83.4087 126.257 85.2807 126.413C86.7887 126.517 88.1927 126.621 89.0247 127.141C89.3367 125.841 90.4807 121.889 94.1207 120.381C93.0807 119.549 92.1967 118.561 91.3647 117.521C90.8967 116.949 90.5847 116.221 90.3767 115.493C90.2207 114.869 90.1687 114.713 89.7007 114.713C88.7647 114.713 88.3487 116.533 88.3487 116.533C88.3487 116.637 88.2967 116.689 88.1927 116.741C88.1407 116.793 88.0367 116.793 87.9327 116.741C87.5167 116.481 86.2687 115.857 85.5407 116.169C85.2807 116.273 85.0727 116.533 85.0207 116.793C84.9687 116.949 84.8127 117.001 84.6567 116.949C84.6567 116.949 82.8887 116.273 81.9007 116.793C81.5887 116.949 81.3287 117.261 81.2767 117.573C81.2247 117.677 81.1207 117.781 80.9647 117.781C80.2887 117.677 79.5607 117.833 78.9367 118.197C78.5727 118.405 78.3647 118.769 78.3127 119.185C78.3127 119.237 78.2607 119.341 78.2087 119.393C78.1567 119.445 78.0527 119.445 78.0007 119.445C78.0007 119.445 76.4927 119.133 75.7647 119.757C75.5047 119.913 75.3487 120.329 75.4007 120.797Z" fill="#3A3A3A"/>
<path d="M91.105 119.08C91.053 119.08 91.001 119.028 90.949 119.028C90.013 118.144 88.973 117.364 87.933 116.688C87.829 116.636 87.777 116.48 87.829 116.324C87.881 116.22 88.037 116.168 88.193 116.22C89.285 116.948 90.325 117.728 91.313 118.664C91.417 118.768 91.417 118.924 91.313 119.028C91.209 119.028 91.157 119.08 91.105 119.08Z" fill="#3A3A3A"/>
<path d="M86.84 118.248C86.788 118.248 86.736 118.248 86.684 118.196C86.06 117.676 85.384 117.208 84.656 116.844C84.5 116.792 84.448 116.636 84.5 116.532C84.552 116.376 84.708 116.324 84.812 116.324C85.592 116.688 86.372 117.208 86.996 117.78C87.1 117.884 87.1 118.04 87.048 118.144C86.996 118.196 86.944 118.248 86.84 118.248Z" fill="#3A3A3A"/>
<path d="M82.629 118.925C82.525 118.925 82.473 118.873 82.421 118.821C82.005 118.301 81.485 117.885 80.861 117.677C80.705 117.625 80.653 117.469 80.705 117.365C80.757 117.209 80.913 117.157 81.017 117.209C81.745 117.469 82.369 117.937 82.837 118.561C82.941 118.665 82.889 118.821 82.785 118.925C82.733 118.873 82.681 118.925 82.629 118.925Z" fill="#3A3A3A"/>
<path d="M79.7684 120.276C79.7164 120.276 79.6645 120.276 79.6125 120.224C79.1445 119.86 78.6245 119.496 78.0525 119.236C77.8965 119.184 77.8445 119.028 77.8965 118.924C77.9485 118.768 78.1044 118.716 78.2084 118.768C78.8324 119.028 79.4044 119.392 79.9244 119.808C80.0284 119.912 80.0805 120.068 79.9765 120.172C79.9245 120.276 79.8204 120.328 79.7684 120.276Z" fill="#3A3A3A"/>
<path d="M94.5893 120.38C96.4093 119.652 98.2813 122.408 99.7893 123.968C101.297 125.528 110.137 133.068 110.137 133.068C110.137 133.068 104.781 116.428 106.081 110.448C107.381 104.468 112.893 97.552 121.993 95.16C131.093 92.768 147.889 91.52 160.993 93.132C170.197 94.224 176.229 95.42 178.933 96.044C179.973 96.304 180.805 97.084 181.117 98.124C181.117 98.124 177.685 95.42 172.745 100.36C167.805 105.3 156.781 119.288 157.145 134.056C157.145 134.056 155.273 134.992 153.817 132.964C152.361 130.936 130.261 120.536 123.813 118.04C123.813 118.04 128.441 140.036 123.813 147.16C119.185 154.284 106.861 149.916 99.9973 143.104C93.1333 136.292 88.2453 132.86 89.1813 127.556C89.7013 124.384 91.7293 121.732 94.5893 120.38Z" fill="#B88E2F"/>
<path d="M123.812 116.844C123.708 116.844 123.604 116.792 123.552 116.636C122.304 112.684 120.276 109.928 117.624 108.524C115.648 107.536 113.36 107.38 111.228 108.108C111.072 108.16 110.968 108.108 110.916 107.952C110.864 107.796 110.968 107.692 111.072 107.64C113.308 106.86 115.752 107.016 117.832 108.108C120.588 109.512 122.72 112.424 124.02 116.48C124.072 116.636 124.02 116.74 123.864 116.792C123.864 116.844 123.812 116.844 123.812 116.844Z" fill="#3A3A3A"/>
<path d="M184.601 145.34C184.445 145.34 184.341 145.236 184.341 145.08C184.341 144.872 182.105 124.176 176.541 116.688C176.437 116.584 176.489 116.428 176.593 116.324C176.697 116.22 176.853 116.272 176.957 116.376C182.573 123.916 184.757 144.144 184.861 144.976C184.861 145.236 184.757 145.34 184.601 145.34C184.653 145.34 184.653 145.34 184.601 145.34Z" fill="#3A3A3A"/>
<path d="M203.165 191.361C204.153 192.557 206.233 194.689 207.481 196.041C208.209 196.769 208.521 197.861 208.261 198.901C207.793 200.981 206.545 204.621 203.217 209.041C199.837 213.565 196.821 215.437 195.209 216.165C194.377 216.581 193.441 216.581 192.609 216.165C190.789 215.333 187.461 213.305 187.669 210.185C187.877 206.545 191.361 198.849 192.505 196.457C192.713 195.989 193.129 195.677 193.597 195.625C195.417 195.313 199.889 194.325 202.073 191.361C202.281 191.049 202.801 191.049 203.165 191.361Z" fill="#B88E2F"/>
<path d="M194.117 215.904C194.013 215.904 193.909 215.8 193.857 215.696C193.857 215.592 193.337 213.304 195.573 209.3C197.601 205.608 203.477 198.12 206.545 197.392C207.013 197.236 207.481 197.34 207.897 197.6C208.001 197.652 208.053 197.86 207.949 197.964C207.845 198.068 207.689 198.12 207.585 198.016C207.325 197.86 206.961 197.808 206.649 197.912C203.841 198.64 198.069 205.92 196.041 209.612C193.961 213.408 194.377 215.592 194.429 215.644C194.481 215.8 194.377 215.904 194.221 215.956L194.117 215.904Z" fill="#3A3A3A"/>
<path d="M192.297 215.385C192.193 215.385 192.141 215.333 192.089 215.281C192.037 215.177 190.529 212.421 196.925 204.205C203.217 196.145 204.829 196.041 206.545 195.885H206.649C206.805 195.885 206.909 195.989 206.909 196.145C206.909 196.301 206.805 196.405 206.649 196.405H206.545C204.985 196.509 203.477 196.613 197.289 204.517C191.205 212.317 192.505 214.969 192.505 215.021C192.557 215.125 192.557 215.281 192.401 215.385C192.401 215.385 192.349 215.385 192.297 215.385Z" fill="#3A3A3A"/>
<path d="M201.812 199.108C201.76 199.108 201.656 199.056 201.604 199.004C200.772 197.964 200.564 196.56 201.032 195.26C201.5 193.96 202.592 193.024 203.944 192.764C204.1 192.764 204.204 192.816 204.256 192.972C204.308 193.128 204.204 193.232 204.048 193.284C202.852 193.492 201.916 194.272 201.5 195.416C201.084 196.508 201.292 197.704 202.02 198.64C202.124 198.744 202.072 198.9 201.968 199.004C201.916 199.056 201.864 199.056 201.812 199.108Z" fill="#3A3A3A"/>
<path d="M187.721 199.575C187.565 199.575 187.461 199.471 187.409 199.367C187.357 199.263 187.513 199.107 187.617 199.055L193.337 197.599C193.493 197.547 193.649 197.651 193.649 197.807C193.649 197.963 193.597 198.119 193.441 198.119L187.721 199.575Z" fill="#3A3A3A"/>
<path d="M187.721 202.072C187.565 202.072 187.461 201.968 187.409 201.864C187.357 201.76 187.513 201.604 187.617 201.552L193.337 200.096C193.493 200.044 193.597 200.148 193.649 200.304C193.701 200.46 193.597 200.564 193.441 200.616L187.721 202.072Z" fill="#3A3A3A"/>
<path d="M222.457 115.024L232.701 109.044C233.429 108.628 234.365 108.836 234.781 109.564L245.961 128.44C246.377 129.168 246.169 130.104 245.441 130.52C245.389 130.572 245.337 130.572 245.233 130.624L244.765 130.832C244.765 130.832 235.249 134.992 229.113 125.996C229.113 125.944 227.657 120.536 222.457 115.024Z" fill="#B88E2F"/>
<path d="M244.4 130.936C244.296 130.936 244.244 130.884 244.192 130.832L231.816 109.928C231.764 109.824 231.764 109.668 231.92 109.564C232.024 109.512 232.18 109.512 232.284 109.668L244.712 130.572C244.764 130.676 244.764 130.832 244.608 130.936C244.504 130.884 244.452 130.936 244.4 130.936Z" fill="#3A3A3A"/>
<path d="M232.337 115.597C230.673 115.597 228.593 114.973 226.877 112.425C226.773 112.321 226.825 112.165 226.929 112.061C227.033 111.957 227.189 112.009 227.293 112.113C230.309 116.689 234.677 114.609 234.885 114.505C234.989 114.453 235.145 114.505 235.249 114.609C235.301 114.713 235.249 114.869 235.145 114.973C234.261 115.389 233.273 115.597 232.337 115.597Z" fill="#3A3A3A"/>
<path d="M230.778 130.78C230.57 130.728 230.518 130.624 230.518 130.468L231.714 123.864C231.714 123.708 231.87 123.656 232.026 123.656C232.182 123.708 232.234 123.812 232.234 123.968L231.038 130.572C230.986 130.676 230.882 130.78 230.778 130.78Z" fill="#3A3A3A"/>
<path d="M232.858 132.444C232.65 132.392 232.598 132.288 232.598 132.132L233.794 125.528C233.794 125.372 233.95 125.268 234.106 125.32C234.262 125.372 234.366 125.476 234.314 125.632L233.118 132.236C233.066 132.34 232.962 132.444 232.858 132.444Z" fill="#3A3A3A"/>
<path d="M61.7754 72.8003C61.7754 72.8003 56.6274 69.8883 54.8594 72.2283C53.0914 74.5683 55.9514 76.5443 56.7834 76.4403C56.7834 76.4403 53.5594 78.7803 55.7954 81.3283C58.0314 83.8763 63.9074 78.5723 63.9074 78.5723L61.7754 72.8003Z" fill="white"/>
<path d="M57.4074 82.2643H57.1994C56.5754 82.2643 56.0034 81.9523 55.5874 81.4843C54.9634 80.8603 54.7034 79.9763 54.7554 79.0923C54.9114 78.1043 55.4314 77.2203 56.2114 76.5443C55.4314 76.2323 54.8074 75.6603 54.3914 74.9323C53.8714 73.9963 53.9754 72.8003 54.7034 72.0203C56.6274 69.5763 61.7754 72.4363 61.9834 72.5403C62.0354 72.5923 62.0874 72.6443 62.0874 72.6963L64.2194 78.4683C64.2714 78.5723 64.2194 78.6763 64.1674 78.7283C63.9074 78.8843 60.1114 82.2643 57.4074 82.2643ZM56.7834 76.1283C56.8874 76.1283 56.9914 76.1803 57.0434 76.2843C57.0954 76.3883 57.0434 76.5443 56.9394 76.5963C56.9394 76.5963 55.4314 77.6883 55.2754 79.1443C55.2234 79.8723 55.4834 80.6003 55.9514 81.1203C56.2634 81.4843 56.7314 81.6923 57.1994 81.7443C59.4874 81.9003 62.8674 79.0923 63.5434 78.4683L61.5154 72.9563C60.8394 72.5923 56.5234 70.4083 55.0154 72.3323C54.4434 72.9563 54.3394 73.9443 54.7554 74.6723C55.3274 75.6083 56.3674 76.1803 56.7834 76.1283Z" fill="#3A3A3A"/>
<path d="M61.7754 72.7989C61.7754 72.7989 63.9074 67.4949 66.7154 68.1709C69.5754 68.8469 67.4434 72.7989 67.4434 72.7989C67.4434 72.7989 72.4874 71.8109 72.6434 75.3989C72.7994 78.9869 66.3514 79.4549 63.8554 78.5709L61.7754 72.7989Z" fill="white"/>
<path d="M66.6116 79.1956C65.6756 79.1956 64.6876 79.0916 63.8036 78.7796C63.7516 78.7276 63.6996 78.6756 63.6476 78.6236L61.5156 72.8516C61.5156 72.7996 61.5156 72.7476 61.5156 72.6436C61.6196 72.4356 63.7516 67.1316 66.7676 67.8596C67.3916 67.9636 67.9636 68.3796 68.2756 69.0036C68.7956 70.0956 68.2236 71.6556 67.9116 72.4356C68.7956 72.3316 70.7196 72.2276 71.9156 73.2156C72.5916 73.7356 72.9556 74.5156 72.9556 75.3476C73.0076 76.3356 72.4876 77.3236 71.6556 77.8956C70.3556 78.8316 68.3796 79.1956 66.6116 79.1956ZM64.0636 78.3636C65.7796 78.8836 69.4196 78.8316 71.2916 77.4796C71.9676 77.0116 72.3836 76.2316 72.3836 75.3996C72.3836 74.7236 72.0716 74.0476 71.5516 73.6316C70.1476 72.5396 67.4956 73.0596 67.4956 73.0596C67.3916 73.0596 67.2876 73.0596 67.2356 72.9556C67.1836 72.8516 67.1836 72.7476 67.2356 72.6956C67.2356 72.6956 68.3796 70.5636 67.8076 69.2636C67.5996 68.7956 67.1836 68.4836 66.6636 68.4316C64.2716 67.8596 62.3476 72.1236 62.0356 72.7996L64.0636 78.3636Z" fill="#3A3A3A"/>
<path d="M60.9438 71.1362L61.0478 71.0842C61.6718 70.8762 62.3478 71.1362 62.5558 71.7602L64.9998 78.1042C65.2078 78.7282 64.9478 79.4042 64.3238 79.6122L64.2198 79.6642C63.5958 79.8722 62.9198 79.6122 62.7118 78.9882L60.2678 72.6442C60.0598 72.0202 60.3718 71.3442 60.9438 71.1362Z" fill="white"/>
<path d="M63.8563 80.028C63.2843 80.028 62.7123 79.664 62.5043 79.092L60.0603 72.748C59.8003 72.02 60.1643 71.188 60.8923 70.876L60.9963 70.824C61.7243 70.564 62.5563 70.928 62.8683 71.656L65.3643 78C65.6243 78.728 65.2603 79.56 64.5323 79.872L64.4283 79.924C64.2203 79.976 64.0123 80.028 63.8563 80.028ZM61.4643 71.292C61.3603 71.292 61.2563 71.292 61.1523 71.344L61.0483 71.396C60.5803 71.604 60.3723 72.124 60.5283 72.592L62.9723 78.936C63.1803 79.404 63.7003 79.612 64.1683 79.456L64.2723 79.404C64.4803 79.3 64.6883 79.144 64.7923 78.936C64.8963 78.728 64.8963 78.468 64.7923 78.26L62.3483 71.916C62.1923 71.5 61.8283 71.292 61.4643 71.292Z" fill="#3A3A3A"/>
<path d="M66.0385 73.1112C65.9865 73.1112 65.9345 73.1112 65.9345 73.0592C65.8305 73.0072 65.7785 72.8512 65.8305 72.6952C66.6105 71.1352 66.5585 70.1992 66.2985 69.8872C66.0905 69.7312 65.8305 69.6792 65.6225 69.7832C65.4665 69.8352 65.3625 69.7832 65.3105 69.6272C65.2585 69.4712 65.3105 69.3672 65.4665 69.3152C65.8825 69.1072 66.4025 69.2112 66.7145 69.5232C67.0265 69.8872 67.3905 70.7712 66.3505 72.9032C66.2465 73.0592 66.1425 73.1112 66.0385 73.1112Z" fill="#3A3A3A"/>
<path d="M66.092 77.6878C65.936 77.6878 65.832 77.5838 65.832 77.4278C65.832 77.2718 65.936 77.1678 66.092 77.1678C67.808 77.1678 70.564 76.8038 70.772 75.7638C70.824 75.5038 70.824 75.2438 70.616 74.9838C70.252 74.5158 69.316 74.3598 69.004 74.3598C68.848 74.3598 68.744 74.2558 68.744 74.0998C68.744 73.9438 68.848 73.8398 69.004 73.8398C69.056 73.8398 70.408 73.8918 71.032 74.6718C71.292 75.0358 71.396 75.4518 71.24 75.8678C70.876 77.6358 66.56 77.6878 66.092 77.6878Z" fill="#3A3A3A"/>
<path d="M57.6668 75.3483H57.6148C56.8868 75.1403 56.3148 74.5683 56.0548 73.8403C56.0028 73.4243 56.1588 73.0603 56.4708 72.8523C57.5108 72.0723 60.3708 73.0603 60.6828 73.1643C60.8388 73.2163 60.8908 73.3723 60.8388 73.5283C60.7868 73.6843 60.6308 73.7363 60.4748 73.6843C59.3308 73.2683 57.3548 72.8523 56.7308 73.2683C56.5748 73.3723 56.4708 73.5803 56.5228 73.7363C56.7308 74.2563 57.1468 74.6723 57.7188 74.8283C57.8748 74.8803 57.9268 74.9843 57.9268 75.1403C57.8748 75.2963 57.7708 75.3483 57.6668 75.3483Z" fill="#3A3A3A"/>
<path d="M58.1871 80.3911C57.7191 80.3911 57.3031 80.1831 56.9911 79.8711C56.6271 79.4551 56.4711 78.883 56.6791 78.363C56.7311 78.207 56.8871 78.155 57.0431 78.207C57.1471 78.259 57.2511 78.415 57.1991 78.519C57.0951 78.831 57.1991 79.195 57.4071 79.455C57.7711 79.767 58.2391 79.871 58.7071 79.715C60.0071 79.299 62.0351 77.427 62.0871 77.375C62.1911 77.271 62.3471 77.323 62.4511 77.427C62.5031 77.531 62.5031 77.635 62.4511 77.739C62.3471 77.843 60.3191 79.715 58.9151 80.183C58.6031 80.339 58.3951 80.3911 58.1871 80.3911Z" fill="#3A3A3A"/>
<path d="M61.6194 71.9157C61.5154 71.9157 61.4114 71.8117 61.3594 71.7077C61.3074 71.5517 60.4234 67.5477 61.3594 65.1037C62.0354 63.3357 63.0234 63.1797 63.4394 63.1797C64.0634 63.2317 64.5314 63.6997 64.6874 64.2717C64.8434 64.7917 64.6874 65.3117 64.2194 65.6757C63.8034 65.9877 63.2834 66.0397 62.8674 65.8317C62.7634 65.7797 62.7114 65.6237 62.7634 65.4677C62.8154 65.3637 62.9714 65.3117 63.1274 65.3637C63.3874 65.4677 63.6994 65.4157 63.9074 65.2077C64.1674 64.9997 64.2714 64.6877 64.1674 64.3757C64.1154 64.0117 63.8034 63.6997 63.3874 63.6477C62.8154 63.5957 62.2434 64.2197 61.8274 65.2077C60.9434 67.4437 61.8274 71.4477 61.8274 71.4997C61.8794 71.7077 61.7754 71.8637 61.6194 71.9157C61.6714 71.8637 61.6714 71.8637 61.6194 71.9157Z" fill="#3A3A3A"/>
<path d="M60.9439 72.2283C60.8399 72.2283 60.7359 72.1763 60.6839 72.0723C60.6839 72.0203 58.8119 67.1843 57.0959 66.4563C56.5239 66.1443 55.7959 66.3003 55.4319 66.8723C55.0679 67.2883 55.0679 67.9123 55.4319 68.3283C55.6919 68.6403 56.1599 68.6923 56.4719 68.4323C56.7839 68.2243 56.9919 67.8603 56.8879 67.7043C56.8359 67.5483 56.8879 67.4443 57.0439 67.3923C57.1479 67.3403 57.3039 67.3923 57.3559 67.5483C57.4599 68.0683 57.2519 68.6403 56.7319 68.9003C56.2119 69.2643 55.4839 69.2123 55.0159 68.7443C54.4959 68.1203 54.4959 67.2363 54.9639 66.6123C55.4839 65.8843 56.4719 65.6243 57.3039 66.0403C59.2279 66.8723 61.0999 71.7603 61.1519 71.9683C61.2039 72.1243 61.1519 72.2283 60.9959 72.2803C60.9959 72.1763 60.9959 72.2283 60.9439 72.2283Z" fill="#3A3A3A"/>
<path d="M64.6866 83.3028C64.5826 83.3028 64.4266 83.1988 64.4266 83.0948C64.3746 82.7828 64.3226 82.4188 64.2186 82.1068C64.1666 81.9508 64.2706 81.8468 64.4266 81.7948C64.5826 81.7428 64.6866 81.8468 64.7386 82.0028C64.8426 82.3668 64.8946 82.7308 64.9466 83.0428C64.9466 83.1468 64.8946 83.2508 64.6866 83.3028Z" fill="#3A3A3A"/>
<path d="M69.575 108.159C69.523 108.159 69.523 108.159 69.471 108.159C69.367 108.107 69.263 107.951 69.315 107.847C69.575 107.275 69.835 106.703 70.043 106.079C70.095 105.923 70.251 105.871 70.355 105.923C70.459 105.975 70.563 106.131 70.511 106.235C70.251 106.859 69.991 107.483 69.783 108.055C69.783 108.107 69.679 108.159 69.575 108.159ZM70.875 104.519H70.823C70.667 104.467 70.615 104.363 70.615 104.207C70.771 103.583 70.875 102.959 70.875 102.335C70.875 102.179 71.031 102.075 71.135 102.075C71.291 102.075 71.395 102.231 71.395 102.335C71.343 103.011 71.291 103.635 71.083 104.311C71.083 104.415 70.979 104.467 70.875 104.519ZM70.823 100.463C70.719 99.839 70.615 99.215 70.459 98.591C70.407 98.435 70.511 98.331 70.615 98.279C70.771 98.227 70.875 98.331 70.927 98.435C71.083 99.059 71.239 99.683 71.343 100.307L71.083 100.411L70.823 100.463ZM69.939 96.979C69.835 96.979 69.783 96.927 69.731 96.823C69.419 96.303 69.055 95.783 68.639 95.315C68.535 95.211 68.535 95.055 68.639 94.951C68.743 94.847 68.899 94.847 69.003 94.951C69.003 94.951 69.003 94.951 69.003 95.003C69.471 95.471 69.887 96.043 70.199 96.615C70.251 96.719 70.251 96.875 70.095 96.979C70.043 96.927 69.991 96.927 69.939 96.979ZM67.443 94.067C67.391 94.067 67.287 94.067 67.287 94.015C66.871 93.651 66.403 93.183 65.935 92.663C65.831 92.559 65.831 92.403 65.935 92.299C66.039 92.195 66.195 92.195 66.299 92.299C66.819 92.819 67.235 93.287 67.651 93.651C67.755 93.755 67.755 93.911 67.651 94.015C67.547 93.963 67.495 94.015 67.443 94.067ZM64.999 90.999C64.895 90.999 64.791 90.947 64.739 90.843C64.479 90.219 64.375 89.543 64.375 88.867C64.375 88.711 64.479 88.607 64.635 88.607C64.791 88.607 64.895 88.711 64.895 88.867C64.895 89.491 64.999 90.115 65.207 90.687C65.259 90.843 65.207 90.947 65.051 90.999C65.051 90.999 65.051 90.999 64.999 90.999ZM64.739 87.151C64.583 87.151 64.479 86.995 64.479 86.891C64.531 86.267 64.583 85.695 64.583 85.071V84.967C64.583 84.811 64.687 84.707 64.843 84.707C64.999 84.707 65.103 84.811 65.103 84.967V85.071C65.103 85.695 65.051 86.319 64.999 86.943C64.999 87.047 64.895 87.151 64.739 87.151Z" fill="#3A3A3A"/>
<path d="M68.5881 110.968C68.3801 110.916 68.3281 110.812 68.3281 110.656C68.3801 110.292 68.4841 109.98 68.5881 109.616C68.6401 109.512 68.7961 109.408 68.9521 109.512C69.0561 109.564 69.1081 109.668 69.1081 109.824C69.0041 110.136 68.9001 110.448 68.8481 110.812C68.7961 110.864 68.6921 110.968 68.5881 110.968Z" fill="#3A3A3A"/>
</svg>
