<svg width="27" height="25" viewBox="0 0 27 25" fill="none" xmlns="http://www.w3.org/2000/svg">
<g id="Group">
<path id="Vector" d="M8.375 19.9609C8.87228 19.9609 9.34919 20.1585 9.70083 20.5101C10.0525 20.8617 10.25 21.3387 10.25 21.8359C10.25 22.3332 10.0525 22.8101 9.70083 23.1618C9.34919 23.5134 8.87228 23.7109 8.375 23.7109C7.87772 23.7109 7.40081 23.5134 7.04917 23.1618C6.69754 22.8101 6.5 22.3332 6.5 21.8359C6.5 21.3387 6.69754 20.8617 7.04917 20.5101C7.40081 20.1585 7.87772 19.9609 8.375 19.9609ZM19.625 19.9609C20.1223 19.9609 20.5992 20.1585 20.9508 20.5101C21.3025 20.8617 21.5 21.3387 21.5 21.8359C21.5 22.3332 21.3025 22.8101 20.9508 23.1618C20.5992 23.5134 20.1223 23.7109 19.625 23.7109C19.1277 23.7109 18.6508 23.5134 18.2992 23.1618C17.9475 22.8101 17.75 22.3332 17.75 21.8359C17.75 21.3387 17.9475 20.8617 18.2992 20.5101C18.6508 20.1585 19.1277 19.9609 19.625 19.9609Z" stroke="white" stroke-width="1.875"/>
<path id="Vector_2" d="M1.81189 0.326575C1.57717 0.244027 1.31928 0.2581 1.09494 0.365699C0.870595 0.473298 0.698186 0.665609 0.615638 0.900325C0.533089 1.13504 0.547162 1.39294 0.654761 1.61728C0.76236 1.84162 0.954671 2.01403 1.18939 2.09658L1.81189 0.326575ZM24.8231 9.81533L25.7406 10.0041L25.7419 9.99907L24.8231 9.81533ZM6.13564 9.66158V6.25908H4.26064V9.66158H6.13564ZM2.13814 0.441575L1.81189 0.326575L1.18939 2.09658L1.51564 2.21033L2.13814 0.441575ZM12.6731 17.7741H19.3006V15.8991H12.6731V17.7741ZM6.13564 6.25908C6.13564 5.37533 6.13689 4.63783 6.07314 4.03908C6.00439 3.41783 5.86064 2.85158 5.50814 2.33658L3.95939 3.39407C4.07189 3.55908 4.15939 3.78658 4.20814 4.24032C4.25939 4.71532 4.26064 5.33408 4.26064 6.25908H6.13564ZM1.51564 2.21033C2.35064 2.50408 2.89939 2.69908 3.30314 2.89908C3.68189 3.08408 3.84939 3.23408 3.95939 3.39533L5.50814 2.33658C5.15314 1.81658 4.67939 1.48408 4.12814 1.21283C3.60314 0.955325 2.93064 0.720325 2.13814 0.441575L1.51564 2.21033ZM4.26064 9.66158C4.26064 11.4778 4.27814 12.7866 4.44814 13.7866C4.63189 14.8541 4.99814 15.6191 5.67939 16.3391L7.04064 15.0491C6.64064 14.6266 6.42439 14.2141 6.29689 13.4703C6.15939 12.6578 6.13564 11.5228 6.13564 9.66158H4.26064ZM12.6731 15.8991C10.9019 15.8991 9.67314 15.8966 8.74689 15.7653C7.85314 15.6391 7.38189 15.4091 7.04064 15.0491L5.67939 16.3391C6.42189 17.1228 7.36314 17.4641 8.48314 17.6216C9.57064 17.7766 10.9594 17.7741 12.6731 17.7741V15.8991ZM5.19814 6.04908H20.3606V4.17408H5.19939L5.19814 6.04908ZM23.9044 9.62533L23.2794 12.6566L25.1169 13.0341L25.7406 10.0041L23.9044 9.62533ZM20.3631 6.04908C21.4331 6.04908 22.3756 6.05032 23.1194 6.13282C23.4869 6.17616 23.7669 6.23199 23.9594 6.30033C24.1606 6.37158 24.1931 6.42532 24.1769 6.40408L25.6631 5.26157C25.3694 4.87908 24.9569 4.66283 24.5806 4.53158C24.1738 4.39765 23.7533 4.30961 23.3269 4.26908C22.4581 4.17283 21.3981 4.17408 20.3631 4.17408V6.04908ZM25.7419 9.99907C25.9544 8.93907 26.1344 8.04908 26.1781 7.33658C26.2244 6.60408 26.1406 5.88158 25.6631 5.26157L24.1769 6.40408C24.2544 6.50532 24.3394 6.68658 24.3069 7.22158C24.2731 7.77658 24.1269 8.51783 23.9044 9.63158L25.7419 9.99907ZM19.3006 17.7741C20.2531 17.7741 21.0531 17.7753 21.6981 17.6966C22.3669 17.6153 22.9781 17.4353 23.5106 17.0016L22.3256 15.5478C22.1694 15.6753 21.9481 15.7778 21.4694 15.8353C20.9656 15.8978 20.3006 15.8991 19.3006 15.8991V17.7741ZM23.2819 12.6566C23.0794 13.6353 22.9444 14.2853 22.7819 14.7666C22.6281 15.2241 22.4819 15.4203 22.3256 15.5478L23.5106 17.0016C24.0444 16.5666 24.3431 16.0053 24.5581 15.3653C24.7656 14.7503 24.9256 13.9678 25.1181 13.0353L23.2819 12.6566Z" fill="white"/>
<path id="Vector_3" d="M15.25 13.7109V11.2109M15.25 11.2109V8.71094M15.25 11.2109H17.75M15.25 11.2109H12.75" stroke="white" stroke-width="1.875" stroke-linecap="round"/>
</g>
</svg>
