<svg width="160" height="150" viewBox="0 0 160 150" fill="none" xmlns="http://www.w3.org/2000/svg">
<g clip-path="url(#clip0_631_5153)">
<path d="M28.4521 93.5227C29.4898 93.2735 30.5523 93.1436 31.6192 93.1352C32.4623 93.1087 33.3024 93.2492 34.0914 93.5485L29.0454 132.466H22.0407L24.0491 114.997L23.3795 115.204C20.2205 116.134 17.354 117.047 14.7799 117.943L14.0588 123.625C13.2349 129.726 10.3853 132.776 5.5102 132.776C3.75914 132.776 2.40301 132.25 1.44183 131.199C0.456832 130.085 -0.059882 128.631 4.79911e-05 127.142C4.79911e-05 123.456 2.59204 120.131 7.77604 117.167L10.4022 94.7372C11.1959 94.2258 12.0643 93.842 12.976 93.5998C13.9785 93.2992 15.0184 93.1426 16.0647 93.1348C17.0599 93.1348 17.7122 93.152 18.0216 93.1865L15.3435 113.757C17.4375 112.999 20.0811 112.189 23.2744 111.327L24.5098 111.017L26.4672 94.3235C26.6746 94.0479 27.3362 93.781 28.4521 93.5227ZM3.60471 126.367C3.60471 127.47 4.1026 128.021 5.09839 128.021C5.30648 128.05 5.51869 128.02 5.71021 127.933C5.90172 127.846 6.06461 127.706 6.17983 127.53C6.32422 127.261 6.45354 126.984 6.56719 126.701C6.67097 126.407 6.74849 126.105 6.79884 125.797C6.8669 125.418 6.91838 125.082 6.95327 124.79C6.98816 124.497 7.02248 124.109 7.05622 123.627C7.08997 123.145 7.12428 122.766 7.15917 122.491L7.26256 121.716C4.82342 123.403 3.60413 124.954 3.60471 126.367Z" fill="#3A3A3A"/>
<path d="M59.6333 132.724C56.4744 132.724 54.3803 131.621 53.351 129.416C52.5507 130.481 51.5104 131.34 50.3154 131.924C49.1204 132.508 47.8047 132.799 46.4759 132.774C45.1693 132.806 43.8699 132.57 42.6569 132.082C41.444 131.593 40.3428 130.862 39.4206 129.933C37.5156 128.038 36.563 125.541 36.5627 122.439C36.5627 117.926 37.8844 114.325 40.5277 111.637C43.1711 108.95 46.5185 107.606 50.57 107.606H50.8789C52.4999 107.588 54.1089 107.886 55.6164 108.485C56.6341 107.874 57.8048 107.569 58.9899 107.606C60.3111 107.606 61.2637 107.778 61.8477 108.122C61.5388 110.673 61.2127 113.179 60.8692 115.642C60.5257 118.105 60.2855 119.854 60.1485 120.888C59.8966 122.566 59.7418 124.257 59.6848 125.953C59.6848 127.331 60.2342 128.02 61.3329 128.02C62.1909 128.02 63.1006 127.442 64.062 126.288C65.0235 125.134 65.8647 123.317 66.5857 120.836C67.5181 121.64 68.2274 122.673 68.6448 123.834C67.649 127.107 66.3101 129.407 64.6283 130.733C62.9464 132.059 61.2814 132.723 59.6333 132.724ZM51.3421 111.637C50.3341 111.602 49.3324 111.811 48.4223 112.247C47.5122 112.684 46.7207 113.334 46.1151 114.144C44.8282 115.816 44.0645 118.305 43.824 121.612C43.7904 121.904 43.773 122.197 43.7721 122.491C43.7721 124.179 44.1756 125.523 44.9826 126.522C45.3484 126.999 45.821 127.384 46.3621 127.644C46.9033 127.904 47.4978 128.033 48.0978 128.02C50.2607 128.02 51.8915 126.487 52.9903 123.421L54.2261 112.257C53.315 111.862 52.3348 111.651 51.3421 111.637Z" fill="#3A3A3A"/>
<path d="M79.6136 126.677L80.8499 115.152C80.8796 114.317 80.6253 113.497 80.1288 112.827C79.6475 112.207 78.8493 111.897 77.7343 111.897C77.1797 111.899 76.6337 112.034 76.1414 112.29C75.6491 112.546 75.2246 112.916 74.903 113.37C74.0922 114.447 73.5853 115.723 73.4355 117.065C72.1995 126.506 71.5472 131.64 71.4785 132.467H64.5249L67.3561 108.124C68.4288 107.805 69.5352 107.614 70.6523 107.555C72.9516 107.555 74.1528 108.399 74.2557 110.088C75.0455 109.287 75.9884 108.654 77.0277 108.228C78.0671 107.802 79.1815 107.59 80.3042 107.607C82.6556 107.607 84.501 108.193 85.8406 109.365C86.4854 109.907 87.0006 110.589 87.3481 111.358C87.6957 112.127 87.8667 112.965 87.8486 113.809C87.8027 114.728 87.6997 115.643 87.5402 116.548C86.7494 121.786 86.3545 124.835 86.3553 125.696C86.3553 127.281 86.8874 128.074 87.9515 128.074C90.286 128.074 92.0542 125.627 93.2562 120.735C94.4224 121.975 95.1262 122.957 95.3676 123.68C93.5471 129.745 90.3885 132.777 85.892 132.777C83.7626 132.777 82.1833 132.122 81.154 130.813C80.1809 129.653 79.6367 128.192 79.6136 126.677Z" fill="#3A3A3A"/>
<path d="M112.959 93.729C113.916 93.3091 114.953 93.1061 115.997 93.1345C116.91 93.0773 117.823 93.2552 118.649 93.6511C118.306 96.3393 117.756 100.56 117.001 106.314C115.421 118.34 114.632 124.964 114.632 126.186C114.632 127.408 115.147 128.019 116.176 128.02C117.069 128.02 117.995 127.461 118.957 126.341C119.918 125.222 120.794 123.387 121.583 120.837C122.486 121.678 123.174 122.724 123.592 123.886C122.356 127.987 120.416 130.64 117.772 131.845C116.721 132.394 115.558 132.694 114.373 132.724C111.317 132.724 109.275 131.622 108.245 129.416C107.449 130.479 106.413 131.338 105.223 131.921C104.032 132.505 102.721 132.797 101.396 132.775C100.094 132.805 98.7989 132.568 97.5904 132.08C96.3818 131.591 95.2851 130.861 94.3669 129.933C92.4614 128.039 91.5087 125.541 91.509 122.439C91.509 117.926 92.8307 114.325 95.474 111.638C98.1174 108.95 101.465 107.606 105.516 107.606H105.825C107.172 107.596 108.511 107.806 109.791 108.226L111.335 95.2023C111.672 94.5239 112.252 93.9979 112.959 93.729ZM106.29 111.639C105.282 111.603 104.28 111.812 103.37 112.248C102.459 112.685 101.668 113.336 101.062 114.145C99.7753 115.817 99.0115 118.306 98.7707 121.613C98.7372 121.905 98.72 122.198 98.7192 122.492C98.7192 124.181 99.1227 125.524 99.9298 126.523C100.296 127 100.768 127.385 101.309 127.645C101.85 127.906 102.445 128.035 103.045 128.022C105.208 128.022 106.839 126.488 107.937 123.422L109.276 112.31C108.331 111.903 107.318 111.675 106.29 111.637V111.639Z" fill="#3A3A3A"/>
<path d="M123.643 108.148C124.563 107.828 125.528 107.663 126.502 107.658C127.348 107.643 128.191 107.765 128.999 108.019C127.66 118.391 126.991 123.628 126.991 123.731C126.837 124.296 126.75 124.877 126.734 125.462C126.728 125.869 126.763 126.276 126.837 126.677C126.974 127.573 127.6 128.021 128.716 128.02C129.832 128.02 130.862 127.288 131.805 125.825C132.78 124.288 133.501 122.604 133.942 120.837C134.384 121.187 134.766 121.606 135.075 122.077C135.461 122.544 135.774 123.066 136.002 123.627C135.453 126.125 134.243 128.429 132.5 130.295C131.741 131.106 130.823 131.749 129.804 132.185C128.785 132.621 127.686 132.84 126.578 132.827C124.277 132.827 122.569 132.259 121.454 131.122C120.895 130.541 120.458 129.852 120.171 129.098C119.883 128.343 119.751 127.538 119.781 126.731C119.781 126.352 119.798 125.956 119.832 125.542L121.686 109.572C122.138 108.868 122.836 108.36 123.643 108.148ZM123.798 94.4011C124.168 94.0091 124.616 93.6987 125.113 93.4895C125.609 93.2804 126.143 93.1771 126.682 93.1862C127.773 93.19 128.818 93.6266 129.59 94.4009C130.361 95.1752 130.796 96.2242 130.8 97.3192C130.809 97.8594 130.706 98.3956 130.498 98.8938C130.29 99.392 129.98 99.8413 129.59 100.213C129.209 100.598 128.756 100.901 128.256 101.106C127.756 101.31 127.22 101.411 126.68 101.402C126.145 101.405 125.614 101.302 125.119 101.098C124.624 100.894 124.175 100.593 123.796 100.213C123.418 99.8336 123.118 99.3822 122.915 98.8854C122.712 98.3886 122.609 97.8563 122.612 97.3192C122.603 96.7777 122.704 96.2402 122.908 95.7387C123.112 95.2373 123.414 94.7823 123.798 94.4011Z" fill="#3A3A3A"/>
<path d="M146.121 118.306C147.168 117.031 147.692 115.8 147.692 114.611C147.692 113.421 147.375 112.612 146.74 112.182C146.126 111.758 145.398 111.533 144.653 111.536C143.04 111.536 141.624 112.44 140.407 114.248C139.156 116.165 138.518 118.419 138.578 120.709C138.578 123.206 139.171 125.066 140.355 126.291C140.921 126.887 141.605 127.359 142.364 127.675C143.122 127.991 143.938 128.144 144.759 128.125C147.332 128.125 149.804 127.229 152.174 125.438C154.607 123.568 156.58 121.163 157.942 118.409C158.751 119.203 159.444 120.108 160.001 121.096C158.868 123.679 156.859 126.212 153.976 128.694C152.442 129.953 150.71 130.949 148.852 131.64C146.905 132.393 144.836 132.778 142.749 132.777C139.316 132.777 136.604 131.726 134.613 129.624C132.483 127.35 131.419 124.439 131.42 120.89C131.421 117.341 132.75 114.24 135.409 111.587C136.648 110.307 138.134 109.293 139.777 108.609C141.419 107.924 143.184 107.583 144.962 107.607C147.605 107.607 149.75 108.184 151.399 109.338C152.176 109.844 152.814 110.537 153.255 111.354C153.696 112.171 153.925 113.086 153.922 114.016C153.949 115.268 153.675 116.509 153.124 117.634C152.573 118.758 151.761 119.733 150.755 120.476C148.644 122.13 145.751 123.284 142.078 123.939L141.357 120.89C143.486 120.441 145.074 119.58 146.121 118.306Z" fill="#3A3A3A"/>
<path d="M63.8693 69.5183C64.1666 70.3083 64.6972 71.3325 64.0092 71.9589C63.9568 71.5491 63.9041 71.1452 63.8577 70.7651C63.7466 69.9691 63.6433 69.2583 63.5369 68.7395C63.5527 68.7636 63.5663 68.7891 63.5776 68.8157V68.8217C63.6883 69.0499 63.7818 69.2841 63.8693 69.5183Z" fill="#B88E2F"/>
<path d="M102.421 45.7601C102.001 53.2942 99.7148 59.8725 94.3372 65.2514C93.9992 65.585 93.6937 66.1236 93.2527 66.2584C93.0998 66.304 92.9365 66.3 92.786 66.2468C92.7744 66.2407 92.7628 66.2407 92.7568 66.2347C91.9577 65.948 92.4304 65.111 92.36 64.5199C92.2424 63.6946 92.3661 62.8527 92.7161 62.0965C92.8515 61.794 93.0134 61.5041 93.2 61.2303C93.3718 60.9805 93.5568 60.7401 93.7542 60.5101C99.9014 53.2812 100.718 40.9718 95.7022 32.5195C90.488 23.7222 80.0876 19.1036 70.2675 21.2287C60.6907 23.2952 52.8697 31.9167 51.6741 41.7911C51.6041 42.8552 51.5982 43.9225 51.6565 44.9873C51.5223 50.5363 52.9688 55.4528 56.0775 59.6968C56.2062 59.8781 56.3396 60.0537 56.4739 60.2294C56.5091 60.2763 56.5498 60.3228 56.5846 60.3697C57.1366 61.0731 57.7246 61.7472 58.3464 62.3893C58.5154 62.565 58.6844 62.7337 58.8611 62.9059C58.9834 63.023 59.1061 63.1462 59.2288 63.2633C58.6481 63.0915 58.0374 63.0475 57.4382 63.1341C57.0435 63.0783 56.643 63.0783 56.2483 63.1341C55.7476 63.2132 55.2669 63.3886 54.8326 63.6507C54.8151 63.6331 54.8035 63.6154 54.7859 63.5982C54.3252 63.0652 53.8878 62.511 53.4737 61.9355C53.3398 61.7483 53.2055 61.561 53.0773 61.3681C53.0657 61.3444 53.0481 61.3251 53.0344 61.3035C47.4063 53.0445 46.4848 41.6288 51.0225 32.3412C55.9626 22.2559 66.5831 16.344 78.0671 17.304C92.0044 18.46 103.202 31.7002 102.421 45.7601Z" fill="#B88E2F"/>
<path d="M115.325 42.2831C116.298 42.2831 117.273 42.25 118.245 42.2917C119.305 42.3378 119.832 42.9784 119.951 44.0043C120.084 45.1465 119.613 46.0979 118.513 46.181C116.251 46.3416 113.982 46.3602 111.719 46.2366C110.634 46.1819 110.003 45.3204 110.075 44.1817C110.144 43.0662 110.756 42.355 111.92 42.3124C113.053 42.2693 114.189 42.3033 115.324 42.3033L115.325 42.2831Z" fill="#B88E2F"/>
<path d="M59.0164 12.7932C59.1318 14.1738 58.7946 14.8011 58.1087 15.1954C57.8026 15.4106 57.4253 15.4984 57.056 15.4402C56.6868 15.3821 56.3544 15.1827 56.1286 14.8838C54.6436 12.85 53.3987 10.6503 52.4188 8.32867C52.0404 7.46504 52.5685 6.74737 53.2544 6.23118C53.8276 5.80066 54.5744 5.7223 55.051 6.22859C56.9668 8.26538 58.158 10.7361 59.0164 12.7932Z" fill="#B88E2F"/>
<path d="M91.7975 12.1205C92.8215 10.3834 94.0501 8.19806 95.388 6.08249C95.8646 5.32865 96.6951 5.58868 97.3823 5.89693C97.5752 5.97257 97.7507 6.08673 97.8982 6.23249C98.0458 6.37825 98.1623 6.55257 98.2407 6.74488C98.3192 6.93719 98.3579 7.14347 98.3545 7.35124C98.3511 7.559 98.3056 7.7639 98.221 7.95352C97.311 10.306 96.0604 12.511 94.5095 14.4974C94.0779 15.0351 93.5083 15.3425 92.7983 14.9361C91.9078 14.4251 91.6487 13.6226 91.7975 12.1205Z" fill="#B88E2F"/>
<path d="M73.6474 4.97096C73.6474 3.90887 73.598 2.84376 73.6628 1.78512C73.7164 0.913317 74.1283 0.167658 75.0643 0.0234341C75.2882 -0.0208733 75.5187 -0.0191222 75.7419 0.0285811C75.9651 0.0762844 76.1763 0.168949 76.3628 0.300963C76.5493 0.432978 76.7071 0.601596 76.8268 0.796614C76.9465 0.991632 77.0255 1.20899 77.059 1.43554C77.5059 3.93042 77.5035 6.48552 77.0517 8.97952C76.9702 9.43428 76.7129 9.83828 76.3359 10.1035C75.9589 10.3687 75.4927 10.4737 75.039 10.3955C74.0502 10.2806 73.7057 9.51638 73.6684 8.64587C73.6156 7.42277 73.6551 6.19536 73.6551 4.9701L73.6474 4.97096Z" fill="#B88E2F"/>
<path d="M114.454 65.4567C114.177 66.8344 113.547 67.8844 112.143 67.2218C110.11 66.2189 108.143 65.0878 106.252 63.8354C105.493 63.3515 105.405 62.4577 105.876 61.6522C106.266 60.9866 106.906 60.4089 107.678 60.7481C109.914 61.7041 112.014 62.9531 113.924 64.4626C114.204 64.6908 114.297 65.1523 114.454 65.4567Z" fill="#B88E2F"/>
<path d="M106.995 27.9545C106.177 27.8735 105.722 27.5838 105.446 27.0263C105.088 26.3017 105.044 25.513 105.667 24.9998C107.571 23.4872 109.675 22.2466 111.919 21.3133C112.671 20.9839 113.355 21.4558 113.759 22.1399C114.109 22.734 114.216 23.4904 113.69 23.9588C111.671 25.7562 109.227 26.8485 106.995 27.9545Z" fill="#B88E2F"/>
<path d="M36.3202 46.8879C35.3392 46.8879 34.3564 46.9224 33.3775 46.878C33.1715 46.8876 32.9658 46.8546 32.7731 46.781C32.5804 46.7074 32.4048 46.5948 32.2573 46.4503C32.1097 46.3058 31.9934 46.1324 31.9154 45.9408C31.8374 45.7493 31.7995 45.5437 31.804 45.3368C31.7272 44.3681 32.1815 43.6009 33.0909 43.5514C35.3683 43.4274 37.6586 43.4223 39.9382 43.5105C40.8704 43.5463 41.3186 44.3074 41.2779 45.2589C41.2897 45.4659 41.2588 45.6733 41.1872 45.8678C41.1155 46.0624 41.0045 46.24 40.8613 46.3895C40.7181 46.539 40.5456 46.6573 40.3547 46.7368C40.1639 46.8164 39.9587 46.8555 39.752 46.8518C38.6114 46.9168 37.4647 46.8673 36.3202 46.8673V46.8879Z" fill="#B88E2F"/>
<path d="M45.8361 26.7539C45.6624 28.3873 44.7718 29.0395 43.4669 28.3946C41.5855 27.413 39.7603 26.3267 37.9996 25.1408C37.2223 24.6414 37.0881 23.795 37.442 22.9529C37.5605 22.6366 37.7966 22.3788 38.1006 22.2338C38.4046 22.0887 38.7529 22.0676 39.0721 22.1749C41.452 23.0161 43.6504 24.3049 45.5495 25.9721C45.7597 26.1469 45.7709 26.5623 45.8361 26.7539Z" fill="#B88E2F"/>
<path d="M46.2983 63.2249C46.2373 64.7412 44.9684 65.0722 44.0165 65.5544C42.2693 66.4409 40.822 68.3442 38.5973 67.7423C38.3754 67.6746 38.1763 67.5468 38.022 67.3729C37.8677 67.1991 37.7641 66.9859 37.7227 66.7568C37.6813 66.5277 37.7035 66.2916 37.7871 66.0744C37.8706 65.8572 38.0122 65.6673 38.1962 65.5256C40.0476 63.9335 42.1725 62.6935 44.467 61.8662C45.4189 61.5071 46.1447 62.1994 46.2983 63.2249Z" fill="#B88E2F"/>
<path d="M60.9875 88.1814C60.7426 87.3853 60.5328 86.6315 60.3633 85.8927C59.8042 83.3601 59.4531 80.7857 59.3137 78.1955C59.1502 76.1526 58.9812 74.0457 58.5612 71.6516C58.439 70.9434 58.2931 70.2877 58.1357 69.685C58.136 69.6767 58.1339 69.6684 58.1297 69.6613C57.3889 66.8754 56.31 65.1718 55.3066 64.1244C55.1369 63.943 54.9579 63.7706 54.7704 63.6078L54.782 63.5961C55.08 63.3398 55.4001 63.1105 55.7386 62.9112C56.1854 62.6477 56.6783 62.4723 57.1907 62.3945C57.5737 62.3427 57.9619 62.3407 58.3455 62.3885C61.3375 62.7398 63.0213 66.0764 63.4022 67.8561C63.4198 67.9379 63.4369 68.0318 63.4545 68.1252C63.4541 68.1284 63.4544 68.1317 63.4555 68.1347C63.4565 68.1378 63.4583 68.1406 63.4605 68.1428C63.4721 68.2246 63.4953 68.3185 63.5069 68.4119C63.5305 68.5411 63.5536 68.6754 63.5772 68.8157V68.8218C63.6471 69.2316 63.7111 69.688 63.7754 70.1857C63.787 70.2791 63.8046 70.3729 63.8161 70.4724C63.8277 70.5718 63.8453 70.6657 63.8569 70.7651C63.9037 71.1457 63.956 71.5495 64.0088 71.9594C64.0263 72.1174 64.0435 72.2694 64.0611 72.4274C64.0847 72.6426 64.1134 72.8605 64.137 73.077C64.1718 73.3991 64.2069 73.7228 64.2421 74.0371C64.4751 76.2379 64.6445 78.1171 64.6501 78.152H64.6621L67.5023 77.9001L67.5547 77.8945C67.5255 77.5785 66.855 70.2266 66.2832 67.411C66.2832 67.4095 66.2826 67.408 66.2815 67.407C66.2805 67.406 66.2791 67.4054 66.2776 67.4054C66.2786 67.3837 66.2765 67.3619 66.2716 67.3408C66.2724 67.3326 66.2703 67.3243 66.2656 67.3175C66.266 67.3144 66.2657 67.3112 66.2647 67.3081C66.2637 67.3051 66.2621 67.3023 66.26 67.2999C66.2616 67.2897 66.2594 67.2793 66.254 67.2706C65.7712 65.1344 64.6813 63.1846 63.1165 61.6575C63.0865 61.6316 63.0579 61.6041 63.0307 61.5753C62.2914 60.8574 61.4112 60.3019 60.4462 59.9442C59.4812 59.5865 58.4525 59.4344 57.4257 59.4976C57.2216 59.5092 57.0118 59.5269 56.796 59.5561C56.5536 59.5847 56.3137 59.6316 56.0783 59.6965C55.3259 59.8916 54.6092 60.2058 53.9554 60.6273C53.6347 60.8323 53.3269 61.057 53.0339 61.3002C52.3777 61.8351 51.7952 62.4552 51.3017 63.1441L50.0654 64.8709L50.8234 65.0405L52.1357 65.3272C52.1592 65.3333 53.8086 65.8835 54.9763 69.288C55.2913 70.2129 55.5292 71.1625 55.6875 72.1269C56.0843 74.3979 56.2534 76.4407 56.4052 78.4124C56.6626 81.5148 56.9123 84.7165 58.0846 88.6381C58.1198 88.7613 58.1546 88.884 58.1958 89.0127C58.8255 91.0439 60.2776 92.6359 62.0625 93.8776C63.8921 95.0891 65.8883 96.0258 67.9879 96.6579C67.9823 96.5717 67.9763 96.4822 67.9763 96.3995C67.9728 95.7631 68.1665 95.1413 68.5306 94.6202C68.344 94.5341 68.1574 94.4446 67.9703 94.3511L68.5709 94.5616C68.7145 94.3491 68.8851 94.1564 69.0784 93.9882C65.659 92.9283 61.8742 91.0671 60.9875 88.1814Z" fill="white"/>
<path d="M63.3782 67.6769C63.0989 64.1819 61.8845 46.5488 65.3802 42.6349C66.8962 40.9382 68.4688 40.047 70.0607 39.9863C71.1114 39.9295 72.1427 40.2867 72.9348 40.9817L73.3638 41.3937L73.8168 66.4852L70.8998 66.5365L70.4708 42.8514C69.8428 42.7447 68.8283 43.1162 67.5671 44.5279C65.5938 46.7356 65.6277 59.2624 66.2802 67.4526L63.3782 67.6769Z" fill="white"/>
<path d="M80.5717 67.6766H77.6547C77.6547 67.4833 77.6525 48.3084 77.4698 41.9867C77.432 40.6715 76.176 40.4825 75.7925 40.4558C75.2348 40.3858 74.6715 40.5326 74.2183 40.8662C73.765 41.1998 73.4562 41.6948 73.3551 42.2497L70.481 41.7667C70.9957 38.8116 73.6464 37.4275 75.998 37.5945C78.5135 37.7689 80.3169 39.5418 80.3855 41.9049C80.5695 48.2688 80.5717 67.485 80.5717 67.6766Z" fill="white"/>
<path d="M86.7928 68.4432H83.8758V47.7895C83.8758 46.6882 83.6956 45.2533 82.8364 44.6734C81.957 44.0797 80.471 44.4521 80.121 44.5847L79.073 41.9082C79.3887 41.7885 82.2255 40.7824 84.4866 42.3081C86.0168 43.3414 86.7919 45.1853 86.7919 47.7895L86.7928 68.4432Z" fill="white"/>
<path d="M92.4865 92.5529C92.4389 93.5861 92.3947 94.4902 92.3578 95.2367C91.5466 95.1506 90.732 95.0998 89.9204 95.0934C89.7621 95.0934 89.6038 95.0934 89.4451 95.0968C89.4798 94.3516 89.5244 93.4475 89.5738 92.4155C89.9826 83.5679 90.702 65.3522 90.1001 57.0721C89.9131 54.4567 89.2422 52.6377 88.2204 51.9437C87.8382 51.6826 87.3707 51.5789 86.9146 51.654L86.7944 51.2644L86.0652 48.9107C86.3034 48.8436 86.5477 48.8003 86.7944 48.7816C87.8813 48.6834 88.9685 48.9654 89.8719 49.5797C91.6942 50.808 92.7494 53.2615 93.0094 56.865C93.6306 65.4086 92.9047 83.6648 92.4865 92.5529Z" fill="white"/>
<path d="M68.9659 94.8306C68.82 94.7665 68.6746 94.6959 68.5288 94.6257C68.3422 94.5396 68.1556 94.45 67.9685 94.3566C66.2752 93.7766 64.686 92.9268 63.2618 91.8398C62.2785 91.1004 61.5373 90.0833 61.1333 88.9187C60.8258 87.9237 60.5688 86.9137 60.3633 85.8926C59.9201 83.5948 59.6317 81.2696 59.5002 78.9328C59.3367 76.89 59.1737 74.7831 58.7593 72.3889C58.6074 71.4755 58.3991 70.5724 58.1356 69.6849C58.1359 69.6765 58.1338 69.6683 58.1296 69.6612C57.2717 66.8223 56.065 65.2363 55.0444 64.3464C55.1259 64.2702 55.2134 64.2 55.3065 64.1243C55.5245 63.9511 55.7538 63.7929 55.9929 63.6507C56.4271 63.3885 56.9078 63.2131 57.4085 63.1341H57.4317C58.0308 63.0474 58.6415 63.0915 59.2222 63.2632C61.736 64.0067 63.1589 66.9627 63.5029 68.5956C63.5162 68.6437 63.5261 68.6926 63.5325 68.742C63.5673 68.9116 63.6024 69.1049 63.6372 69.3099C63.6488 69.38 63.6608 69.4502 63.6724 69.5251C63.7071 69.7301 63.7363 69.9522 63.7715 70.1864C63.783 70.2798 63.8006 70.3737 63.8122 70.4731C63.8238 70.5726 63.8414 70.6664 63.853 70.7659C63.8997 71.1465 63.952 71.5503 64.0048 71.9602C64.0224 72.1182 64.0396 72.2701 64.0571 72.4281C64.0807 72.6434 64.1095 72.8612 64.1331 73.0778C64.1678 73.3998 64.203 73.7236 64.2382 74.0378C64.4248 75.6945 64.5762 77.2667 64.6581 78.1527C64.6989 78.6035 64.722 78.8786 64.722 78.8902L67.5683 78.6319C67.5623 78.5794 67.5391 78.3159 67.4984 77.9C67.3173 75.9158 66.7867 70.4783 66.326 68.1488C66.326 68.148 66.3258 68.1472 66.3255 68.1465C66.3252 68.1457 66.3248 68.1451 66.3242 68.1445C66.3237 68.1439 66.323 68.1435 66.3223 68.1432C66.3215 68.1429 66.3208 68.1427 66.32 68.1427V68.1251C66.3203 68.1219 66.32 68.1187 66.3191 68.1157C66.3181 68.1126 66.3165 68.1098 66.3144 68.1074V68.0842C66.3114 68.0582 66.3055 68.0327 66.2968 68.008C66.2616 67.8323 66.2153 67.6511 66.1625 67.4638C65.6305 65.5061 64.5852 63.7273 63.1357 62.3126C63.1065 62.2894 63.0834 62.2601 63.0542 62.2369C62.3389 61.5438 61.4879 61.0075 60.5552 60.6618C59.6224 60.3162 58.6283 60.1688 57.6358 60.2289C57.4377 60.2406 57.2335 60.2642 57.0233 60.2935C56.8719 60.3112 56.726 60.34 56.5801 60.3693C55.7448 60.5553 54.9502 60.8926 54.2354 61.3646C53.9681 61.5387 53.7111 61.7284 53.4658 61.9325C52.7727 62.4947 52.1585 63.1484 51.6401 63.8759L50.8178 65.0383L50.4214 65.6001L52.4569 66.0625C52.474 66.0685 53.8506 66.536 54.9706 69.2879C55.4231 70.4407 55.7477 71.6401 55.9384 72.8642C56.3292 75.1352 56.4871 77.178 56.6385 79.1498C56.8718 82.0588 57.1052 85.0501 58.079 88.638C58.1725 89.001 58.2776 89.3699 58.3938 89.7501C59.0149 91.5977 60.2059 93.1989 61.7943 94.3217C61.8525 94.3736 61.915 94.4206 61.9809 94.4621C63.3575 95.2698 64.7628 96.0365 66.2033 96.7438C66.8099 96.9897 67.4109 97.2062 67.9938 97.3935C67.9883 97.3074 67.9822 97.2178 67.9822 97.1352C67.9831 96.7044 68.0707 96.2782 68.2397 95.8822C68.4087 95.4861 68.6557 95.1285 68.9659 94.8306Z" fill="#B88E2F"/>
<path d="M63.4802 68.4142C63.2066 64.9193 62.0162 47.2861 65.4424 43.3722C66.9279 41.6755 68.4718 40.7844 70.0298 40.7237C71.0633 40.6686 72.0764 41.0265 72.8477 41.719L73.269 42.131L73.713 67.2226L70.8547 67.2738L70.436 43.5888C69.8205 43.482 68.8261 43.8535 67.5902 45.2652C65.6573 47.4729 65.6895 59.9997 66.3299 68.1899L63.4802 68.4142Z" fill="#B88E2F"/>
<path d="M80.3316 68.4145H77.4734C77.4734 68.2216 77.4734 49.0467 77.2919 42.7245C77.255 41.4097 76.0243 41.2207 75.6481 41.194C75.0965 41.1272 74.5404 41.2764 74.0955 41.6105C73.6507 41.9447 73.3513 42.438 73.2596 42.988L70.4417 42.5045C70.6517 41.2529 71.3255 40.1273 72.328 39.3535C73.3305 38.5797 74.5874 38.2149 75.8467 38.3324C78.312 38.5072 80.0798 40.2796 80.1467 42.6432C80.3299 49.0054 80.3316 68.2216 80.3316 68.4145Z" fill="#B88E2F"/>
<path d="M86.4294 69.1795H83.5711V48.5257C83.5711 47.424 83.3944 45.9891 82.5523 45.4092C81.6905 44.8159 80.2359 45.1879 79.8927 45.3231L78.8657 42.6461C79.1754 42.5269 81.9543 41.5203 84.1717 43.0465C85.6731 44.0798 86.4315 45.9237 86.4315 48.5279L86.4294 69.1795Z" fill="#B88E2F"/>
<path d="M92.0094 93.289C91.9631 94.3222 91.9193 95.2263 91.8807 95.9733C91.0874 95.8852 90.2903 95.8373 89.4922 95.8299C89.3369 95.8299 89.1816 95.8299 89.0263 95.8329C89.0602 95.0881 89.104 94.1841 89.155 93.1521C89.5561 84.3045 90.2609 66.0888 89.6698 57.8086C89.4862 55.1932 88.8307 53.3743 87.8273 52.6803C87.4551 52.4192 86.9956 52.3151 86.5477 52.3905L86.4298 52.0009L85.7151 49.6468C85.9484 49.5801 86.1878 49.5368 86.4298 49.5177C87.4973 49.4197 88.5651 49.7022 89.4459 50.3154C91.2321 51.5437 92.2664 53.9972 92.5212 57.6011C93.1307 66.1448 92.4195 84.4009 92.0094 93.289Z" fill="#B88E2F"/>
</g>
<defs>
<clipPath id="clip0_631_5153">
<rect width="160" height="149.744" fill="white"/>
</clipPath>
</defs>
</svg>
