<svg width="150" height="54" viewBox="0 0 150 54" fill="none" xmlns="http://www.w3.org/2000/svg">
<path d="M77.7801 16.2596C78.3498 16.1224 78.9331 16.0508 79.5189 16.0462C79.9817 16.0316 80.4429 16.1089 80.8761 16.2739L78.1058 37.713H74.2603L75.3629 28.0894L74.9953 28.2035C73.2611 28.7158 71.6873 29.2187 70.2742 29.7123L69.8783 32.843C69.4259 36.2035 67.8616 37.8838 65.1852 37.8838C64.2238 37.8838 63.4793 37.5943 62.9516 37.0153C62.4109 36.4012 62.1272 35.6002 62.1601 34.7802C62.1601 32.7495 63.5831 30.9179 66.4291 29.2852L67.8708 16.9287C68.3066 16.647 68.7833 16.4355 69.2839 16.3021C69.8342 16.1365 70.4051 16.0502 70.9795 16.0459C71.5259 16.0459 71.884 16.0554 72.0539 16.0744L70.5836 27.4063C71.7332 26.9889 73.1845 26.5428 74.9376 26.068L75.6159 25.897L76.6905 16.7008C76.8043 16.549 77.1675 16.4019 77.7801 16.2596ZM64.139 34.3533C64.139 34.9609 64.4124 35.2646 64.9591 35.2642C65.0733 35.2806 65.1898 35.2639 65.295 35.216C65.4001 35.1681 65.4895 35.091 65.5528 34.9939C65.632 34.8458 65.703 34.6934 65.7654 34.5373C65.8224 34.3754 65.865 34.2087 65.8926 34.0393C65.93 33.8305 65.9582 33.6456 65.9774 33.4843C65.9965 33.323 66.0154 33.1095 66.0339 32.8439C66.0524 32.5783 66.0713 32.3696 66.0904 32.2178L66.1472 31.7909C64.8081 32.7206 64.1387 33.5747 64.139 34.3533Z" fill="#3A3A3A"/>
<path d="M94.8988 37.8551C93.1646 37.8551 92.0149 37.2477 91.4499 36.033C91.0105 36.6196 90.4394 37.093 89.7833 37.4146C89.1273 37.7361 88.4049 37.8966 87.6754 37.8829C86.9581 37.9004 86.2448 37.7706 85.5789 37.5015C84.913 37.2324 84.3084 36.8296 83.8021 36.3176C82.7563 35.274 82.2333 33.898 82.2332 32.1894C82.2332 29.7029 82.9588 27.7194 84.41 26.2388C85.8611 24.7582 87.6988 24.0179 89.9231 24.0177H90.0927C90.9826 24.0079 91.866 24.1724 92.6936 24.502C93.2523 24.1657 93.895 23.9976 94.5456 24.0177C95.2709 24.0177 95.7939 24.1126 96.1145 24.3023C95.9449 25.7073 95.7659 27.0882 95.5773 28.445C95.3888 29.8017 95.2569 30.765 95.1817 31.3349C95.0434 32.2592 94.9584 33.1909 94.9271 34.1252C94.9271 34.8841 95.2287 35.2636 95.8319 35.2636C96.3029 35.2636 96.8023 34.9457 97.3302 34.3099C97.858 33.6741 98.3198 32.6729 98.7156 31.3062C99.2275 31.7493 99.6169 32.3182 99.8461 32.9576C99.2994 34.761 98.5644 36.028 97.641 36.7585C96.7177 37.4889 95.8036 37.8545 94.8988 37.8551ZM90.347 26.2388C89.7936 26.2191 89.2437 26.3344 88.744 26.5748C88.2444 26.8152 87.8099 27.1737 87.4774 27.6196C86.7709 28.5406 86.3516 29.912 86.2196 31.7338C86.2011 31.8945 86.1916 32.0561 86.1911 32.2179C86.1911 33.148 86.4126 33.8882 86.8557 34.4385C87.0565 34.7015 87.3159 34.9133 87.613 35.0567C87.9101 35.2001 88.2365 35.2711 88.5659 35.2641C89.7533 35.2641 90.6486 34.4194 91.2518 32.7301L91.9303 26.5803C91.4301 26.3624 90.892 26.2463 90.347 26.2388Z" fill="#3A3A3A"/>
<path d="M105.868 34.5241L106.547 28.1751C106.563 27.7153 106.423 27.2636 106.151 26.8944C105.887 26.5528 105.448 26.382 104.836 26.3819C104.532 26.3832 104.232 26.4575 103.962 26.5986C103.692 26.7397 103.459 26.9436 103.282 27.1934C102.837 27.7868 102.559 28.49 102.476 29.2291C101.798 34.4302 101.44 37.2584 101.402 37.7138H97.5844L99.1388 24.3035C99.7277 24.1279 100.335 24.0228 100.948 23.9902C102.211 23.9902 102.87 24.4553 102.927 25.3855C103.36 24.9442 103.878 24.5957 104.448 24.3609C105.019 24.126 105.631 24.0096 106.247 24.0187C107.538 24.0187 108.551 24.3415 109.287 24.9871C109.641 25.2861 109.923 25.6613 110.114 26.0851C110.305 26.5089 110.399 26.9704 110.389 27.4356C110.364 27.9416 110.307 28.4455 110.22 28.9445C109.786 31.8299 109.569 33.5097 109.569 33.9838C109.569 34.8572 109.861 35.2939 110.446 35.2937C111.727 35.2937 112.698 33.946 113.358 31.2507C113.998 31.9339 114.384 32.4748 114.517 32.8734C113.517 36.2143 111.783 37.8847 109.315 37.8846C108.146 37.8846 107.279 37.5239 106.714 36.8026C106.18 36.164 105.881 35.3591 105.868 34.5241Z" fill="#3A3A3A"/>
<path d="M124.174 16.3733C124.7 16.142 125.269 16.0302 125.842 16.0458C126.344 16.0143 126.845 16.1123 127.298 16.3304C127.11 17.8113 126.808 20.1366 126.394 23.3063C125.526 29.9312 125.093 33.5803 125.093 34.2535C125.093 34.9268 125.376 35.2636 125.941 35.2641C126.431 35.2641 126.94 34.9558 127.467 34.3391C127.995 33.7225 128.476 32.7118 128.909 31.3069C129.405 31.7702 129.783 32.3462 130.012 32.9868C129.333 35.2456 128.268 36.7071 126.817 37.3713C126.24 37.6734 125.602 37.8389 124.951 37.8554C123.273 37.8554 122.152 37.248 121.587 36.0332C121.15 36.6187 120.581 37.0916 119.928 37.4131C119.274 37.7347 118.554 37.8957 117.827 37.8832C117.112 37.8997 116.401 37.7694 115.737 37.5003C115.074 37.2312 114.472 36.8289 113.968 36.3178C112.922 35.2743 112.399 33.8982 112.399 32.1897C112.399 29.7032 113.124 27.7197 114.575 26.2391C116.027 24.7585 117.864 24.0182 120.089 24.018H120.258C120.997 24.0128 121.733 24.1282 122.435 24.3598L123.283 17.1849C123.468 16.8112 123.787 16.5214 124.174 16.3733ZM120.513 26.2396C119.96 26.2198 119.41 26.3351 118.91 26.5755C118.41 26.8159 117.976 27.1744 117.643 27.6204C116.937 28.5414 116.518 29.9128 116.385 31.7345C116.367 31.8952 116.358 32.0568 116.357 32.2186C116.357 33.1488 116.579 33.889 117.022 34.4392C117.222 34.7023 117.482 34.9141 117.779 35.0575C118.076 35.2009 118.402 35.2719 118.732 35.2648C119.919 35.2648 120.815 34.4202 121.418 32.7309L122.153 26.6096C121.634 26.3851 121.078 26.2595 120.513 26.2389V26.2396Z" fill="#3A3A3A"/>
<path d="M130.04 24.3166C130.544 24.1403 131.075 24.0489 131.609 24.0462C132.074 24.0383 132.536 24.1056 132.98 24.2455C132.245 29.9589 131.878 32.844 131.878 32.9009C131.793 33.212 131.745 33.5322 131.736 33.8546C131.733 34.0789 131.752 34.303 131.793 34.5237C131.868 35.0174 132.212 35.2642 132.825 35.2639C133.437 35.2635 134.003 34.8604 134.52 34.0543C135.056 33.2079 135.452 32.2801 135.694 31.3067C135.936 31.4992 136.146 31.73 136.316 31.99C136.528 32.2467 136.699 32.5347 136.824 32.8438C136.523 34.22 135.859 35.4889 134.902 36.5168C134.486 36.9635 133.982 37.3182 133.422 37.5583C132.862 37.7985 132.259 37.9189 131.651 37.9119C130.388 37.9119 129.45 37.5987 128.838 36.9724C128.531 36.6523 128.291 36.273 128.133 35.8573C127.975 35.4416 127.903 34.998 127.919 34.5533C127.919 34.3448 127.929 34.1265 127.947 33.8985L128.965 25.1007C129.213 24.7131 129.597 24.4333 130.04 24.3166ZM130.124 16.7433C130.328 16.5274 130.574 16.3564 130.846 16.2411C131.119 16.1259 131.412 16.069 131.708 16.074C132.307 16.0761 132.881 16.3166 133.304 16.7432C133.728 17.1697 133.967 17.7476 133.969 18.3509C133.974 18.6484 133.917 18.9438 133.803 19.2183C133.688 19.4927 133.519 19.7403 133.304 19.9451C133.095 20.157 132.846 20.3242 132.572 20.4367C132.297 20.5493 132.003 20.6049 131.707 20.6002C131.413 20.6019 131.122 20.5449 130.85 20.4325C130.578 20.32 130.331 20.1544 130.124 19.9452C129.916 19.736 129.751 19.4874 129.64 19.2137C129.528 18.94 129.472 18.6467 129.473 18.3509C129.469 18.0526 129.524 17.7564 129.636 17.4802C129.748 17.204 129.914 16.9533 130.124 16.7433Z" fill="#3A3A3A"/>
<path d="M142.38 29.9126C142.955 29.2106 143.242 28.532 143.242 27.877C143.243 27.2219 143.068 26.7759 142.72 26.5388C142.383 26.3055 141.983 26.1814 141.574 26.1831C140.688 26.1831 139.911 26.6812 139.243 27.6773C138.556 28.7332 138.206 29.9748 138.239 31.2365C138.239 32.612 138.564 33.637 139.215 34.3114C139.525 34.6401 139.901 34.8999 140.317 35.074C140.734 35.248 141.181 35.3326 141.632 35.3222C143.045 35.3222 144.402 34.8286 145.703 33.8415C147.039 32.8116 148.122 31.4869 148.87 29.9693C149.314 30.4069 149.694 30.9053 150 31.4499C149.378 32.8729 148.275 34.268 146.692 35.6352C145.85 36.3291 144.899 36.8776 143.879 37.2582C142.81 37.6729 141.674 37.8853 140.529 37.8846C138.644 37.8846 137.155 37.3056 136.062 36.1478C134.893 34.895 134.309 33.2911 134.309 31.3361C134.309 29.381 135.04 27.6728 136.499 26.2113C137.179 25.5059 137.995 24.9476 138.897 24.5706C139.799 24.1936 140.767 24.0058 141.744 24.0187C143.195 24.0187 144.372 24.3367 145.278 24.9726C145.704 25.2511 146.054 25.6329 146.296 26.083C146.538 26.5332 146.664 27.0373 146.663 27.5492C146.678 28.2393 146.527 28.9229 146.225 29.5423C145.922 30.1617 145.476 30.6988 144.924 31.1081C143.765 32.0194 142.177 32.6553 140.16 33.0159L139.764 31.3361C140.933 31.0891 141.805 30.6146 142.38 29.9126Z" fill="#3A3A3A"/>
<path d="M17.608 38.3016C17.7712 38.7368 18.0625 39.301 17.6847 39.6461C17.656 39.4203 17.627 39.1979 17.6016 38.9884C17.5406 38.5499 17.4839 38.1583 17.4254 37.8726C17.4341 37.8859 17.4416 37.8999 17.4478 37.9145V37.9179C17.5086 38.0436 17.5599 38.1726 17.608 38.3016Z" fill="#B88E2F"/>
<path d="M38.7727 25.2131C38.5424 29.3635 37.2871 32.9875 34.3348 35.9507C34.1493 36.1345 33.9816 36.4312 33.7395 36.5054C33.6555 36.5305 33.5659 36.5283 33.4833 36.499C33.4769 36.4957 33.4705 36.4957 33.4672 36.4924C33.0285 36.3344 33.288 35.8733 33.2494 35.5477C33.1848 35.093 33.2527 34.6292 33.4449 34.2127C33.5192 34.046 33.6081 33.8863 33.7105 33.7355C33.8049 33.5979 33.9064 33.4654 34.0148 33.3387C37.3896 29.3564 37.8377 22.5753 35.0842 17.9189C32.2217 13.0726 26.5119 10.5283 21.1207 11.6989C15.8631 12.8373 11.5694 17.5869 10.913 23.0266C10.8746 23.6128 10.8714 24.2008 10.9034 24.7873C10.8297 27.8442 11.6238 30.5527 13.3305 32.8907C13.4011 32.9906 13.4744 33.0873 13.5481 33.1841C13.5674 33.2099 13.5898 33.2355 13.6088 33.2614C13.9119 33.6489 14.2347 34.0202 14.5761 34.374C14.6688 34.4707 14.7616 34.5637 14.8587 34.6586C14.9258 34.7231 14.9931 34.7909 15.0605 34.8554C14.7417 34.7608 14.4064 34.7365 14.0775 34.7843C13.8608 34.7535 13.6409 34.7535 13.4242 34.7843C13.1494 34.8278 12.8855 34.9245 12.647 35.0689C12.6374 35.0591 12.631 35.0494 12.6214 35.0399C12.3684 34.7463 12.1283 34.441 11.901 34.124C11.8275 34.0208 11.7538 33.9176 11.6834 33.8114C11.677 33.7984 11.6673 33.7877 11.6598 33.7758C8.57 29.226 8.06414 22.9372 10.5553 17.8207C13.2674 12.2648 19.098 9.008 25.4026 9.53689C33.0542 10.1737 39.2018 17.4676 38.7727 25.2131Z" fill="#B88E2F"/>
<path d="M45.8575 23.2979C46.3916 23.2979 46.9269 23.2796 47.4601 23.3026C48.0422 23.328 48.3314 23.6809 48.3969 24.2461C48.4701 24.8753 48.2116 25.3994 47.6073 25.4452C46.3659 25.5337 45.1202 25.5439 43.8776 25.4758C43.282 25.4457 42.9356 24.9711 42.9751 24.3438C43.0128 23.7293 43.3486 23.3375 43.9878 23.314C44.61 23.2903 45.2339 23.309 45.8568 23.309L45.8575 23.2979Z" fill="#B88E2F"/>
<path d="M14.9438 7.05221C15.0071 7.81281 14.822 8.15837 14.4455 8.37561C14.2774 8.49415 14.0702 8.54249 13.8675 8.51047C13.6648 8.47845 13.4823 8.36857 13.3584 8.2039C12.5431 7.08354 11.8597 5.87172 11.3217 4.59276C11.114 4.117 11.4039 3.72164 11.7805 3.43728C12.0951 3.20011 12.5051 3.15694 12.7668 3.43585C13.8185 4.5579 14.4725 5.91902 14.9438 7.05221Z" fill="#B88E2F"/>
<path d="M32.9407 6.68156C33.5029 5.72458 34.1773 4.52071 34.9119 3.35526C35.1735 2.93998 35.6295 3.08323 36.0067 3.25304C36.1126 3.29471 36.209 3.3576 36.29 3.43789C36.371 3.51819 36.4349 3.61422 36.478 3.72016C36.5211 3.82611 36.5423 3.93975 36.5404 4.0542C36.5386 4.16866 36.5136 4.28154 36.4671 4.386C35.9676 5.68197 35.281 6.89668 34.4296 7.99097C34.1926 8.28719 33.8799 8.45653 33.4901 8.23264C33.0012 7.95112 32.859 7.50904 32.9407 6.68156Z" fill="#B88E2F"/>
<path d="M22.9765 2.74317C22.9765 2.15807 22.9494 1.57131 22.9849 0.988113C23.0144 0.507845 23.2405 0.0970686 23.7543 0.017617C23.8772 -0.00679162 24.0038 -0.00582694 24.1263 0.0204524C24.2489 0.0467317 24.3648 0.0977796 24.4672 0.170505C24.5696 0.243231 24.6563 0.336121 24.7219 0.443555C24.7876 0.550989 24.831 0.67073 24.8494 0.795532C25.0948 2.16994 25.0934 3.57752 24.8454 4.95145C24.8007 5.20197 24.6594 5.42453 24.4524 5.57064C24.2455 5.71675 23.9895 5.77456 23.7404 5.7315C23.1976 5.66817 23.0085 5.2472 22.988 4.76764C22.959 4.09384 22.9807 3.41767 22.9807 2.74269L22.9765 2.74317Z" fill="#B88E2F"/>
<path d="M45.3792 36.0641C45.2273 36.8231 44.8813 37.4015 44.1103 37.0365C42.9944 36.484 41.9143 35.8609 40.8766 35.171C40.4595 34.9044 40.4115 34.412 40.67 33.9683C40.8844 33.6016 41.2353 33.2833 41.6592 33.4702C42.8869 33.9968 44.0399 34.6849 45.0881 35.5165C45.2419 35.6422 45.293 35.8965 45.3792 36.0641Z" fill="#B88E2F"/>
<path d="M41.2845 15.4042C40.8351 15.3596 40.5853 15.2 40.4341 14.8929C40.2374 14.4937 40.2132 14.0592 40.5551 13.7765C41.6007 12.9433 42.7558 12.2598 43.9876 11.7457C44.4007 11.5642 44.7758 11.8242 44.9977 12.201C45.1901 12.5283 45.2487 12.945 44.9598 13.2031C43.8512 14.1932 42.5096 14.7949 41.2845 15.4042Z" fill="#B88E2F"/>
<path d="M2.48397 25.8346C1.94538 25.8346 1.40584 25.8536 0.868416 25.8292C0.755345 25.8344 0.64241 25.8162 0.536616 25.7757C0.430823 25.7351 0.334431 25.6731 0.253427 25.5935C0.172423 25.5139 0.108537 25.4184 0.0657307 25.3128C0.0229242 25.2073 0.0021105 25.0941 0.00458723 24.9801C-0.037568 24.4465 0.211831 24.0238 0.711099 23.9965C1.96139 23.9282 3.21875 23.9254 4.47021 23.974C4.98196 23.9937 5.22807 24.413 5.20569 24.9372C5.2122 25.0512 5.19524 25.1654 5.15589 25.2726C5.11654 25.3798 5.05563 25.4776 4.977 25.56C4.89836 25.6424 4.80368 25.7075 4.69889 25.7514C4.5941 25.7952 4.48145 25.8167 4.368 25.8147C3.7418 25.8505 3.1123 25.8232 2.48397 25.8232V25.8346Z" fill="#B88E2F"/>
<path d="M7.70802 14.7429C7.61264 15.6427 7.12373 16.002 6.40733 15.6467C5.37446 15.106 4.3724 14.5075 3.40583 13.8542C2.9791 13.5791 2.90539 13.1128 3.09968 12.6489C3.16473 12.4747 3.29435 12.3327 3.46126 12.2528C3.62816 12.1728 3.81935 12.1612 3.99459 12.2204C5.30116 12.6838 6.50806 13.3937 7.5507 14.3122C7.6661 14.4085 7.67222 14.6373 7.70802 14.7429Z" fill="#B88E2F"/>
<path d="M7.96185 34.8345C7.92841 35.6699 7.23179 35.8522 6.70921 36.1179C5.75 36.6062 4.95541 37.6547 3.73409 37.3232C3.61223 37.2858 3.50295 37.2154 3.41824 37.1197C3.33353 37.0239 3.27667 36.9064 3.25392 36.7802C3.23116 36.654 3.24339 36.524 3.28925 36.4043C3.33511 36.2847 3.41284 36.18 3.51389 36.102C4.53026 35.2249 5.69686 34.5418 6.95649 34.086C7.47907 33.8882 7.87754 34.2696 7.96185 34.8345Z" fill="#B88E2F"/>
<path d="M16.0258 48.5828C15.8913 48.1442 15.7762 47.7289 15.6832 47.322C15.3762 45.9268 15.1834 44.5086 15.1069 43.0816C15.0172 41.9562 14.9244 40.7955 14.6938 39.4766C14.6267 39.0865 14.5466 38.7253 14.4602 38.3933C14.4604 38.3887 14.4592 38.3841 14.4569 38.3802C14.0502 36.8455 13.4579 35.907 12.907 35.33C12.8139 35.2301 12.7156 35.1351 12.6127 35.0454L12.619 35.039C12.7826 34.8977 12.9584 34.7715 13.1442 34.6616C13.3895 34.5165 13.6601 34.4199 13.9414 34.377C14.1517 34.3485 14.3648 34.3473 14.5753 34.3737C16.218 34.5672 17.1423 36.4053 17.3515 37.3858C17.3611 37.4308 17.3705 37.4825 17.3802 37.534C17.38 37.5358 17.3801 37.5376 17.3807 37.5392C17.3813 37.5409 17.3822 37.5425 17.3835 37.5437C17.3899 37.5888 17.4026 37.6405 17.4089 37.6919C17.4219 37.7631 17.4346 37.8371 17.4475 37.9144V37.9177C17.4859 38.1435 17.521 38.3949 17.5564 38.6691C17.5627 38.7205 17.5724 38.7723 17.5787 38.827C17.5851 38.8818 17.5947 38.9335 17.6011 38.9883C17.6268 39.198 17.6555 39.4204 17.6845 39.6462C17.6941 39.7333 17.7035 39.817 17.7132 39.904C17.7261 40.0226 17.7419 40.1426 17.7549 40.2619C17.774 40.4393 17.7933 40.6177 17.8126 40.7908C17.9405 42.0032 18.0335 43.0384 18.0365 43.0577H18.0431L19.6024 42.9189L19.6311 42.9158C19.6151 42.7418 19.247 38.6916 18.9331 37.1405C18.9331 37.1397 18.9328 37.1389 18.9322 37.1383C18.9316 37.1378 18.9309 37.1374 18.93 37.1374C18.9306 37.1255 18.9295 37.1135 18.9267 37.1019C18.9272 37.0973 18.926 37.0928 18.9235 37.0891C18.9237 37.0873 18.9235 37.0855 18.923 37.0839C18.9224 37.0822 18.9216 37.0806 18.9204 37.0793C18.9212 37.0737 18.9201 37.068 18.9171 37.0632C18.652 35.8864 18.0537 34.8122 17.1946 33.971C17.1782 33.9567 17.1625 33.9416 17.1475 33.9257C16.7416 33.5302 16.2584 33.2242 15.7286 33.0272C15.1988 32.8301 14.6341 32.7463 14.0704 32.7811C13.9583 32.7875 13.8432 32.7972 13.7247 32.8134C13.5916 32.8291 13.4599 32.855 13.3307 32.8907C12.9176 32.9982 12.5242 33.1713 12.1652 33.4035C11.9891 33.5164 11.8202 33.6402 11.6593 33.7741C11.2991 34.0688 10.9793 34.4104 10.7084 34.7899L10.0296 35.7412L10.4458 35.8347L11.1662 35.9926C11.1791 35.9959 12.0847 36.2991 12.7257 38.1746C12.8986 38.6841 13.0292 39.2072 13.1162 39.7385C13.334 40.9895 13.4268 42.1149 13.5102 43.2011C13.6515 44.9102 13.7885 46.674 14.4322 48.8344C14.4515 48.9022 14.4705 48.9698 14.4932 49.0407C14.8389 50.1597 15.6361 51.0367 16.616 51.7207C17.6204 52.3882 18.7163 52.9042 19.869 53.2524C19.8659 53.2049 19.8626 53.1556 19.8626 53.1101C19.8607 52.7595 19.9671 52.4169 20.1669 52.1299C20.0645 52.0824 19.962 52.0331 19.8593 51.9816L20.189 52.0976C20.2679 51.9805 20.3615 51.8743 20.4677 51.7817C18.5905 51.1978 16.5126 50.1725 16.0258 48.5828Z" fill="white"/>
<path d="M17.3386 37.287C17.1853 35.3617 16.5186 25.6477 18.4377 23.4916C19.27 22.5569 20.1333 22.066 21.0073 22.0325C21.5841 22.0012 22.1503 22.198 22.5852 22.5809L22.8207 22.8078L23.0694 36.6305L21.4679 36.6588L21.2324 23.6109C20.8877 23.5521 20.3307 23.7568 19.6383 24.5344C18.555 25.7506 18.5736 32.6516 18.9318 37.1635L17.3386 37.287Z" fill="white"/>
<path d="M26.7777 37.2869H25.1763C25.1763 37.1804 25.1751 26.6171 25.0748 23.1345C25.0541 22.41 24.3645 22.3059 24.154 22.2912C23.8478 22.2526 23.5385 22.3335 23.2897 22.5173C23.0409 22.7011 22.8713 22.9738 22.8158 23.2795L21.2379 23.0134C21.5206 21.3854 22.9757 20.6229 24.2668 20.715C25.6478 20.811 26.6378 21.7877 26.6755 23.0895C26.7765 26.5953 26.7777 37.1814 26.7777 37.2869Z" fill="white"/>
<path d="M30.1932 37.7091H28.5918V26.3312C28.5918 25.7245 28.4929 24.934 28.0212 24.6145C27.5384 24.2875 26.7226 24.4926 26.5304 24.5657L25.9551 23.0912C26.1284 23.0253 27.6858 22.471 28.9272 23.3115C29.7672 23.8807 30.1928 24.8965 30.1928 26.3312L30.1932 37.7091Z" fill="white"/>
<path d="M33.3192 50.9909C33.293 51.5602 33.2688 52.0582 33.2485 52.4695C32.8032 52.422 32.356 52.394 31.9104 52.3905C31.8235 52.3905 31.7366 52.3905 31.6494 52.3924C31.6685 51.9818 31.693 51.4838 31.7201 50.9153C31.9445 46.0412 32.3395 36.0064 32.0091 31.4449C31.9064 30.0041 31.5381 29.002 30.9771 28.6197C30.7673 28.4759 30.5107 28.4187 30.2602 28.4601L30.1943 28.2455L29.7939 26.9489C29.9247 26.9119 30.0588 26.888 30.1943 26.8777C30.7909 26.8236 31.3878 26.979 31.8838 27.3174C32.8842 27.9941 33.4635 29.3457 33.6063 31.3308C33.9473 36.0374 33.5488 46.0946 33.3192 50.9909Z" fill="white"/>
<path d="M20.4066 52.2462C20.3266 52.2109 20.2467 52.172 20.1667 52.1333C20.0642 52.0859 19.9618 52.0366 19.8591 51.9851C18.9295 51.6656 18.057 51.1974 17.2751 50.5986C16.7353 50.1913 16.3284 49.631 16.1066 48.9894C15.9378 48.4413 15.7967 47.8849 15.6838 47.3224C15.4405 46.0565 15.2822 44.7756 15.21 43.4883C15.1203 42.3629 15.0308 41.2022 14.8033 39.8833C14.7199 39.3801 14.6055 38.8826 14.4609 38.3937C14.461 38.3891 14.4599 38.3845 14.4576 38.3806C13.9866 36.8167 13.3241 35.943 12.7638 35.4528C12.8086 35.4108 12.8566 35.3721 12.9077 35.3304C13.0274 35.235 13.1532 35.1478 13.2845 35.0695C13.5229 34.925 13.7868 34.8284 14.0617 34.7849H14.0744C14.4033 34.7372 14.7386 34.7614 15.0574 34.856C16.4374 35.2656 17.2186 36.894 17.4075 37.7936C17.4148 37.8201 17.4202 37.847 17.4237 37.8743C17.4428 37.9677 17.4621 38.0742 17.4812 38.1871C17.4876 38.2257 17.4942 38.2644 17.5005 38.3057C17.5196 38.4186 17.5356 38.5409 17.5549 38.67C17.5613 38.7214 17.5709 38.7731 17.5773 38.8279C17.5836 38.8827 17.5933 38.9344 17.5997 38.9892C17.6253 39.1988 17.6541 39.4213 17.683 39.6471C17.6927 39.7341 17.7021 39.8179 17.7118 39.9049C17.7247 40.0235 17.7405 40.1435 17.7534 40.2628C17.7725 40.4402 17.7918 40.6185 17.8111 40.7917C17.9136 41.7043 17.9967 42.5704 18.0417 43.0585C18.0641 43.3069 18.0768 43.4584 18.0768 43.4648L19.6394 43.3225C19.6361 43.2936 19.6233 43.1484 19.601 42.9193C19.5016 41.8262 19.2103 38.8308 18.9573 37.5474C18.9573 37.547 18.9573 37.5466 18.9571 37.5462C18.9569 37.5458 18.9567 37.5454 18.9564 37.5451C18.9561 37.5448 18.9557 37.5445 18.9553 37.5444C18.9549 37.5442 18.9545 37.5441 18.954 37.5441V37.5344C18.9542 37.5326 18.9541 37.5309 18.9535 37.5292C18.953 37.5275 18.9521 37.526 18.951 37.5247V37.5119C18.9493 37.4976 18.9461 37.4835 18.9413 37.4699C18.922 37.3731 18.8966 37.2733 18.8676 37.1701C18.5755 36.0916 18.0017 35.1117 17.2059 34.3324C17.1899 34.3196 17.1772 34.3034 17.1612 34.2906C16.7684 33.9088 16.3012 33.6134 15.7892 33.4229C15.2771 33.2325 14.7314 33.1513 14.1865 33.1845C14.0777 33.1909 13.9656 33.2039 13.8502 33.22C13.7671 33.2298 13.687 33.2457 13.6069 33.2618C13.1483 33.3642 12.7121 33.5501 12.3197 33.8101C12.1729 33.906 12.0318 34.0105 11.8972 34.1229C11.5166 34.4326 11.1795 34.7928 10.8949 35.1935L10.4434 35.8339L10.2258 36.1434L11.3433 36.3981C11.3527 36.4014 12.1084 36.659 12.7233 38.175C12.9717 38.8101 13.1499 39.4708 13.2546 40.1452C13.4692 41.3962 13.5558 42.5216 13.639 43.6078C13.7671 45.2104 13.8952 46.8582 14.4298 48.8348C14.4811 49.0347 14.5388 49.238 14.6026 49.4474C14.9436 50.4652 15.5974 51.3473 16.4695 51.9659C16.5014 51.9945 16.5357 52.0203 16.5719 52.0432C17.3277 52.4882 18.0992 52.9105 18.89 53.3002C19.223 53.4356 19.5529 53.5549 19.873 53.6581C19.8699 53.6107 19.8666 53.5613 19.8666 53.5158C19.8671 53.2785 19.9152 53.0437 20.008 52.8255C20.1008 52.6074 20.2364 52.4103 20.4066 52.2462Z" fill="#B88E2F"/>
<path d="M17.3949 37.6931C17.2447 35.7677 16.5912 26.0538 18.4721 23.8977C19.2877 22.963 20.1353 22.472 20.9906 22.4386C21.558 22.4083 22.1142 22.6054 22.5376 22.9869L22.7689 23.2139L23.0127 37.0366L21.4435 37.0648L21.2136 24.017C20.8757 23.9581 20.3298 24.1628 19.6513 24.9405C18.5901 26.1567 18.6078 33.0576 18.9594 37.5695L17.3949 37.6931Z" fill="#B88E2F"/>
<path d="M26.6457 37.6937H25.0765C25.0765 37.5875 25.0765 27.0242 24.9769 23.5414C24.9567 22.817 24.281 22.7129 24.0745 22.6982C23.7716 22.6614 23.4663 22.7436 23.2221 22.9277C22.9779 23.1117 22.8135 23.3835 22.7632 23.6865L21.2162 23.4202C21.3315 22.7307 21.7014 22.1106 22.2518 21.6843C22.8021 21.258 23.4922 21.057 24.1835 21.1218C25.5369 21.2181 26.5075 22.1945 26.5442 23.4965C26.6448 27.0014 26.6457 37.5875 26.6457 37.6937Z" fill="#B88E2F"/>
<path d="M29.9938 38.1153H28.4246V26.7373C28.4246 26.1304 28.3276 25.3399 27.8653 25.0205C27.3922 24.6936 26.5936 24.8986 26.4052 24.973L25.8414 23.4983C26.0114 23.4326 27.537 22.8781 28.7543 23.7189C29.5786 24.2881 29.995 25.3039 29.995 26.7385L29.9938 38.1153Z" fill="#B88E2F"/>
<path d="M33.057 51.3967C33.0315 51.9659 33.0075 52.4639 32.9863 52.8754C32.5508 52.8269 32.1132 52.8005 31.675 52.7964C31.5898 52.7964 31.5045 52.7964 31.4193 52.7981C31.4379 52.3878 31.4619 51.8897 31.4899 51.3212C31.7101 46.4472 32.097 36.4123 31.7725 31.8508C31.6717 30.41 31.3119 29.408 30.761 29.0257C30.5567 28.8818 30.3044 28.8245 30.0585 28.8661L29.9938 28.6514L29.6014 27.3546C29.7295 27.3178 29.861 27.294 29.9938 27.2834C30.5798 27.2295 31.1661 27.3851 31.6496 27.7229C32.6302 28.3996 33.198 29.7512 33.3379 31.7365C33.6726 36.4431 33.2821 46.5003 33.057 51.3967Z" fill="#B88E2F"/>
</svg>
