<svg width="45" height="45" viewBox="0 0 45 45" fill="none" xmlns="http://www.w3.org/2000/svg">
  <path d="M5.79297 12.168C5.79297 11.2806 6.42547 10.5601 7.20647 10.5601H12.0923C13.0621 10.5308 13.9183 9.82862 14.2483 8.79095L14.3033 8.60762L14.5141 7.89079C14.6425 7.45079 14.7543 7.06579 14.912 6.72295C15.5316 5.36812 16.6793 4.42762 18.0048 4.18745C18.3421 4.12695 18.6978 4.12695 19.1048 4.12695H25.4811C25.89 4.12695 26.2456 4.12695 26.5811 4.18745C27.9066 4.42762 29.0561 5.36812 29.674 6.72295C29.8316 7.06579 29.9435 7.44895 30.0736 7.89079L30.2826 8.60762L30.3376 8.79095C30.6676 9.82862 31.6943 10.5326 32.666 10.5601H37.3776C38.1605 10.5601 38.793 11.2806 38.793 12.168C38.793 13.0553 38.1605 13.7758 37.3795 13.7758H7.20464C6.42547 13.7758 5.79297 13.0553 5.79297 12.168Z" fill="#B3B3B3"/>
  <path fill-rule="evenodd" clip-rule="evenodd" d="M17.573 21.5109C18.3301 21.4303 19.003 22.0114 19.0781 22.8071L19.9948 32.4559C20.07 33.2498 19.5181 33.9593 18.7646 34.0399C18.0093 34.1188 17.3346 33.5394 17.2595 32.7438L16.3428 23.0949C16.2676 22.2993 16.8195 21.5898 17.573 21.5109ZM27.0146 21.5109C27.77 21.5898 28.3218 22.2993 28.2448 23.0949L27.3281 32.7438C27.2548 33.5394 26.5801 34.1188 25.8248 34.0399C25.0676 33.9593 24.5176 33.2516 24.5928 32.4559L25.5095 22.8053C25.5846 22.0114 26.2593 21.4303 27.0128 21.5091" fill="#B3B3B3"/>
  <path opacity="0.5" d="M21.5516 40.7944H23.0329C28.1351 40.7944 30.6852 40.7944 32.3462 39.17C34.0036 37.5457 34.1723 34.8819 34.5114 29.5542L35.0009 21.8762C35.1842 18.985 35.2759 17.5385 34.4454 16.6237C33.6131 15.707 32.2088 15.707 29.3983 15.707H15.1862C12.3757 15.707 10.9696 15.707 10.1391 16.6237C9.30858 17.5404 9.39842 18.985 9.58358 21.8762L10.0731 29.5542C10.4122 34.8819 10.5809 37.5475 12.2401 39.17C13.8993 40.7944 16.4494 40.7944 21.5516 40.7944Z" fill="#B3B3B3"/>
</svg>