<svg width="31" height="31" viewBox="0 0 31 31" fill="none" xmlns="http://www.w3.org/2000/svg">
  <path d="M26.125 7.96094H4.875M24.0413 11.0859L23.4662 19.7109C23.245 23.0284 23.135 24.6872 22.0538 25.6984C20.9725 26.7097 19.3088 26.7109 15.9838 26.7109H15.0162C11.6912 26.7109 10.0275 26.7109 8.94625 25.6984C7.865 24.6872 7.75375 23.0284 7.53375 19.7109L6.95875 11.0859M12.375 14.2109L13 20.4609M18.625 14.2109L18 20.4609" stroke="#3A3A3A" stroke-width="1.875" stroke-linecap="round"/>
  <path d="M8.625 7.96094H8.7625C9.26556 7.94808 9.75303 7.78371 10.1612 7.48933C10.5693 7.19494 10.8791 6.78424 11.05 6.31094L11.0925 6.18219L11.2138 5.81844C11.3175 5.50719 11.37 5.35219 11.4388 5.21969C11.574 4.96018 11.7681 4.73593 12.0056 4.56489C12.2431 4.39385 12.5173 4.28076 12.8063 4.23469C12.9525 4.21094 13.1162 4.21094 13.4437 4.21094H17.5563C17.8838 4.21094 18.0475 4.21094 18.1937 4.23469C18.4827 4.28076 18.7569 4.39385 18.9944 4.56489C19.2319 4.73593 19.426 4.96018 19.5612 5.21969C19.63 5.35219 19.6825 5.50719 19.7862 5.81844L19.9075 6.18219C20.0659 6.70878 20.3935 7.16845 20.8396 7.49001C21.2857 7.81158 21.8253 7.9771 22.375 7.96094" stroke="#3A3A3A" stroke-width="1.875"/>
</svg>