<svg width="260" height="260" viewBox="0 0 260 260" fill="none" xmlns="http://www.w3.org/2000/svg">
<path d="M220.011 149.76H148.771V164.632H220.011V149.76Z" fill="white"/>
<path d="M220.012 164.892H148.772C148.616 164.892 148.512 164.788 148.512 164.632V149.76C148.512 149.604 148.616 149.5 148.772 149.5H220.012C220.168 149.5 220.272 149.604 220.272 149.76V164.58C220.272 164.788 220.168 164.892 220.012 164.892ZM149.032 164.32H219.752V150.02H149.032V164.32Z" fill="#B88E2F"/>
<path d="M213.251 228.487V164.631H148.771V228.487" fill="white"/>
<path d="M213.252 228.747C213.096 228.747 212.992 228.643 212.992 228.487V164.891H149.032V228.487C149.032 228.643 148.928 228.747 148.772 228.747C148.616 228.747 148.512 228.643 148.512 228.487V164.631C148.512 164.475 148.616 164.371 148.772 164.371H213.252C213.408 164.371 213.512 164.475 213.512 164.631V228.487C213.512 228.643 213.408 228.747 213.252 228.747Z" fill="#B88E2F"/>
<path d="M185.953 149.76H166.297V164.632H185.953V149.76Z" fill="#3A3A3A"/>
<path d="M185.951 164.892H166.295C166.139 164.892 166.035 164.788 166.035 164.632V149.76C166.035 149.604 166.139 149.5 166.295 149.5H185.951C186.107 149.5 186.211 149.604 186.211 149.76V164.58C186.211 164.788 186.107 164.892 185.951 164.892ZM166.555 164.32H185.691V150.02H166.555V164.32Z" fill="#B88E2F"/>
<path d="M168.844 228.487V164.631H183.404V228.487" fill="#3A3A3A"/>
<path d="M183.405 228.747C183.249 228.747 183.145 228.643 183.145 228.487V164.891H169.157V228.487C169.157 228.643 169.053 228.747 168.897 228.747C168.741 228.747 168.637 228.643 168.637 228.487V164.631C168.637 164.475 168.741 164.371 168.897 164.371H183.405C183.561 164.371 183.665 164.475 183.665 164.631V228.487C183.665 228.643 183.509 228.747 183.405 228.747Z" fill="#B88E2F"/>
<path d="M189.28 149.76C189.28 149.76 221.364 143.52 223.236 136.812C225.108 130.104 218.556 123.552 214.188 123.968C209.82 124.332 194.48 130.78 185.952 138.892C185.952 138.892 184.912 130.676 179.4 135.46C179.4 135.46 174.928 133.224 172.484 137.8C172.484 137.8 159.172 127.192 150.488 131.352C141.804 135.564 151.424 149.084 157.404 149.812L189.28 149.76Z" fill="#3A3A3A"/>
<path d="M189.28 150.02H157.404C153.192 149.5 147.732 143.26 146.9 138.06C146.536 135.824 146.848 132.756 150.384 131.04C153.972 129.324 159.016 129.844 164.892 132.704C167.544 134.004 170.092 135.564 172.432 137.332C174.72 133.432 178.516 134.732 179.348 135.096C180.856 133.796 182.26 133.38 183.404 133.848C185.224 134.524 185.952 137.176 186.16 138.32C194.636 130.52 209.508 124.072 214.188 123.656C216.372 123.448 219.128 124.956 221.156 127.4C223.548 130.26 224.38 133.744 223.496 136.916C221.624 143.728 190.684 149.812 189.332 150.072L189.28 150.02ZM155.064 130.572C153.504 130.572 151.996 130.884 150.644 131.508C147.368 133.068 147.108 135.928 147.42 137.956C148.252 142.948 153.452 148.928 157.456 149.448H189.28C190.32 149.24 221.208 143.104 222.976 136.708C223.808 133.744 222.976 130.416 220.74 127.712C218.816 125.424 216.268 124.02 214.24 124.176C209.664 124.592 194.324 131.248 186.16 138.996C186.056 139.1 185.9 139.1 185.796 138.996C185.744 138.944 185.744 138.892 185.744 138.84C185.744 138.788 185.224 135.044 183.248 134.264C182.26 133.9 181.064 134.316 179.608 135.564C179.504 135.616 179.4 135.668 179.296 135.616C179.14 135.512 175.032 133.536 172.744 137.8C172.692 137.852 172.64 137.904 172.536 137.956C172.432 137.956 172.38 137.956 172.328 137.904C172.224 137.852 162.968 130.572 155.064 130.572Z" fill="#B88E2F"/>
<path d="M182.78 150.019H182.728C182.676 150.019 182.572 149.967 182.572 149.915C182.52 149.811 177.112 141.803 172.38 137.955C172.276 137.851 172.224 137.695 172.328 137.591C172.432 137.487 172.588 137.435 172.692 137.539C177.06 141.075 181.896 147.991 182.832 149.395C183.716 148.667 186.836 145.495 185.692 138.943C185.692 138.787 185.796 138.631 185.9 138.631C186.056 138.631 186.212 138.735 186.212 138.839C187.564 146.743 183.092 149.863 182.936 150.019C182.884 150.019 182.832 150.071 182.78 150.019Z" fill="#B88E2F"/>
<path d="M181.999 147.628C181.843 147.628 181.739 147.524 181.739 147.368C181.635 143.832 181.011 140.348 179.867 136.968C179.815 136.812 179.919 136.656 180.023 136.604C180.179 136.552 180.335 136.656 180.387 136.76C181.531 140.192 182.155 143.728 182.259 147.368C182.259 147.472 182.155 147.628 181.999 147.628Z" fill="#B88E2F"/>
<path d="M186.16 142.843C186.056 142.843 185.952 142.739 185.9 142.635C185.848 142.479 185.952 142.323 186.108 142.271C200.512 138.007 215.956 129.739 215.124 126.775C214.968 126.203 214.604 125.735 214.084 125.475C212.16 124.487 208.624 125.735 208.572 125.735C208.416 125.787 208.26 125.735 208.208 125.579C208.156 125.423 208.208 125.267 208.364 125.215C208.52 125.163 212.16 123.863 214.292 124.955C214.968 125.267 215.436 125.891 215.644 126.619C216.684 130.259 200.044 138.683 186.212 142.791C186.212 142.843 186.16 142.843 186.16 142.843Z" fill="#B88E2F"/>
<path d="M169.52 150.02C169.416 150.02 169.364 149.968 169.312 149.916C168.116 148.356 166.816 146.848 165.412 145.444C164.84 145.496 162.656 145.496 158.288 144.768C155.948 144.404 154.544 142.948 154.18 141.752C153.92 141.076 154.076 140.348 154.596 139.828C155.012 139.412 156.104 138.892 158.444 139.776C164.06 141.908 169.52 149.24 169.78 149.552C169.884 149.656 169.832 149.864 169.728 149.916C169.624 150.02 169.572 150.02 169.52 150.02ZM156.156 139.88C155.74 139.828 155.272 139.984 154.96 140.244C154.596 140.608 154.492 141.128 154.7 141.596C155.012 142.688 156.312 143.884 158.392 144.248C160.524 144.612 162.708 144.872 164.84 144.924C162.916 143.052 160.576 141.18 158.236 140.296C157.56 140.036 156.884 139.88 156.156 139.88Z" fill="#B88E2F"/>
<path d="M43.6289 57.5647V222.561C43.6289 225.837 46.2809 228.489 49.5569 228.489H145.861C149.137 228.489 151.789 225.837 151.789 222.561V57.5647C151.789 54.2887 149.137 51.6367 145.861 51.6367H49.5049C46.2289 51.6887 43.6289 54.2887 43.6289 57.5647Z" fill="#B88E2F"/>
<path d="M145.808 228.749H49.5044C46.0724 228.749 43.3164 225.993 43.3164 222.561V57.565C43.3164 54.133 46.0724 51.377 49.5044 51.377H145.808C149.24 51.377 151.996 54.133 151.996 57.565V222.561C151.996 225.993 149.24 228.749 145.808 228.749ZM49.5044 51.949C46.3844 51.949 43.8884 54.497 43.8884 57.565V222.561C43.8884 225.681 46.4364 228.177 49.5044 228.229H145.808C148.928 228.229 151.476 225.681 151.476 222.561V57.565C151.476 54.445 148.928 51.949 145.86 51.949H49.5044Z" fill="#B88E2F"/>
<path d="M141.44 221.573H53.8724C51.6364 221.573 49.8164 219.753 49.8164 217.517V62.6087C49.8164 60.3727 51.6364 58.5527 53.8724 58.5527H73.1124C74.4124 58.5527 75.6604 59.1767 76.3884 60.2687L78.2084 62.8167C78.9884 63.9087 80.2364 64.5847 81.5884 64.5327H113.672C115.024 64.5327 116.272 63.9087 117.052 62.8167L118.872 60.2687C119.652 59.1767 120.848 58.5527 122.148 58.5527H141.388C143.624 58.5527 145.444 60.3727 145.444 62.6087V217.517C145.444 219.753 143.624 221.573 141.44 221.573Z" fill="white"/>
<path d="M141.441 221.833H53.8726C51.4806 221.833 49.5566 219.909 49.5566 217.517V62.609C49.5566 60.217 51.4806 58.293 53.8726 58.293H73.1126C74.5166 58.293 75.8166 58.969 76.6486 60.113L78.4686 62.661C79.1966 63.701 80.3406 64.325 81.6406 64.325H113.725C114.973 64.325 116.169 63.701 116.897 62.661L118.717 60.113C119.549 58.969 120.849 58.293 122.253 58.293H141.493C143.885 58.293 145.809 60.217 145.809 62.609V217.517C145.705 219.909 143.781 221.833 141.441 221.833ZM53.8726 58.865C51.7926 58.865 50.1286 60.529 50.1286 62.609V217.517C50.1286 219.597 51.7926 221.261 53.8726 221.261H141.441C143.521 221.261 145.185 219.597 145.185 217.517V62.609C145.185 60.529 143.521 58.865 141.441 58.865H122.201C121.005 58.865 119.861 59.437 119.133 60.477L117.313 63.025C116.481 64.169 115.129 64.897 113.725 64.897H81.6406C80.1846 64.897 78.8846 64.221 78.0526 63.025L76.2326 60.477C75.5046 59.489 74.3606 58.865 73.1646 58.865H53.8726Z" fill="#B88E2F"/>
<path d="M77.1692 110.189H64.7932C64.6372 110.189 64.5332 110.085 64.5332 109.929V97.553C64.5332 97.397 64.6372 97.293 64.7932 97.293H77.1692C77.3252 97.293 77.4292 97.397 77.4292 97.553V109.929C77.4812 110.033 77.3252 110.189 77.1692 110.189ZM65.1052 109.617H76.9092V97.813H65.1052V109.617Z" fill="#B88E2F"/>
<path d="M72.5397 105.821C72.4877 105.821 72.3837 105.769 72.3317 105.769L68.1718 101.817C68.0678 101.713 68.0678 101.557 68.1718 101.453C68.2757 101.349 68.4317 101.349 68.5357 101.453L72.5397 105.249L82.8357 98.2286C82.9397 98.1246 83.1477 98.1766 83.1997 98.2806C83.3037 98.3846 83.2517 98.5926 83.1477 98.6446L72.6957 105.769C72.6437 105.821 72.5917 105.821 72.5397 105.821Z" fill="#B88E2F"/>
<path d="M130.729 102.233H90.637C90.481 102.233 90.377 102.129 90.377 101.973C90.377 101.817 90.481 101.713 90.637 101.713H130.729C130.885 101.713 130.989 101.817 130.989 101.973C130.989 102.129 130.885 102.233 130.729 102.233Z" fill="#B88E2F"/>
<path d="M110.864 107.848H90.5842C90.4282 107.848 90.3242 107.744 90.3242 107.588C90.3242 107.432 90.4282 107.328 90.5842 107.328H110.864C111.02 107.328 111.124 107.432 111.124 107.588C111.124 107.744 111.02 107.848 110.864 107.848Z" fill="#B88E2F"/>
<path d="M77.1692 136.292H64.7932C64.6372 136.292 64.5332 136.188 64.5332 136.032V123.656C64.5332 123.5 64.6372 123.396 64.7932 123.396H77.1692C77.3252 123.396 77.4292 123.5 77.4292 123.656V136.032C77.4812 136.188 77.3252 136.292 77.1692 136.292ZM65.1052 135.72H76.9092V123.916H65.1052V135.72Z" fill="#B88E2F"/>
<path d="M72.5397 131.924C72.4877 131.924 72.3837 131.872 72.3317 131.872L68.1718 127.92C68.0678 127.816 68.0678 127.66 68.1718 127.556C68.2757 127.452 68.4317 127.452 68.5357 127.556L72.5397 131.352L82.8357 124.332C82.9397 124.228 83.1477 124.28 83.1997 124.384C83.3037 124.488 83.2517 124.696 83.1477 124.748L72.6957 131.872C72.6437 131.924 72.5917 131.924 72.5397 131.924Z" fill="#B88E2F"/>
<path d="M130.729 128.336H90.637C90.481 128.336 90.377 128.232 90.377 128.076C90.377 127.92 90.481 127.816 90.637 127.816H130.729C130.885 127.816 130.989 127.92 130.989 128.076C130.989 128.232 130.885 128.336 130.729 128.336Z" fill="#B88E2F"/>
<path d="M110.864 133.954H90.5842C90.4282 133.954 90.3242 133.85 90.3242 133.694C90.3242 133.538 90.4282 133.434 90.5842 133.434H110.864C111.02 133.434 111.124 133.538 111.124 133.694C111.176 133.85 111.02 133.954 110.864 133.954Z" fill="#B88E2F"/>
<path d="M77.1692 162.396H64.7932C64.6372 162.396 64.5332 162.292 64.5332 162.136V149.76C64.5332 149.604 64.6372 149.5 64.7932 149.5H77.1692C77.3252 149.5 77.4292 149.604 77.4292 149.76V162.136C77.4812 162.292 77.3252 162.396 77.1692 162.396ZM65.1052 161.876H76.9092V150.072H65.1052V161.876Z" fill="#B88E2F"/>
<path d="M130.729 154.493H90.637C90.481 154.493 90.377 154.389 90.377 154.233C90.377 154.077 90.481 153.973 90.637 153.973H130.729C130.885 153.973 130.989 154.077 130.989 154.233C130.989 154.337 130.885 154.493 130.729 154.493Z" fill="#B88E2F"/>
<path d="M110.864 160.057H90.5842C90.4282 160.057 90.3242 159.953 90.3242 159.797C90.3242 159.641 90.4282 159.537 90.5842 159.537H110.864C111.02 159.537 111.124 159.641 111.124 159.797C111.176 159.953 111.02 160.057 110.864 160.057Z" fill="#B88E2F"/>
<path d="M77.1692 188.552H64.7932C64.6372 188.552 64.5332 188.448 64.5332 188.292V175.916C64.5332 175.76 64.6372 175.656 64.7932 175.656H77.1692C77.3252 175.656 77.4292 175.76 77.4292 175.916V188.292C77.4292 188.448 77.3252 188.552 77.1692 188.552ZM65.1052 187.98H76.9092V176.176H65.1052V187.98Z" fill="#B88E2F"/>
<path d="M130.729 180.596H90.637C90.481 180.596 90.377 180.492 90.377 180.336C90.377 180.18 90.481 180.076 90.637 180.076H130.729C130.885 180.076 130.989 180.18 130.989 180.336C130.989 180.492 130.885 180.596 130.729 180.596Z" fill="#B88E2F"/>
<path d="M110.864 186.213H90.5842C90.4282 186.213 90.3242 186.109 90.3242 185.953C90.3242 185.797 90.4282 185.693 90.5842 185.693H110.864C111.02 185.693 111.124 185.797 111.124 185.953C111.124 186.109 111.02 186.213 110.864 186.213Z" fill="#B88E2F"/>
<path d="M91.1568 48.4641C91.1568 48.4641 95.9408 38.8441 105.093 43.3681C113.725 47.6321 112.997 67.9121 100.881 75.1921C99.5808 75.9721 98.1248 76.3361 96.6688 76.2841C92.3528 76.1801 82.7328 74.7241 78.0008 65.0521C71.7088 52.2601 84.0848 45.3441 91.1568 48.4641Z" fill="#3A3A3A"/>
<path d="M96.8774 76.5446H96.6174C92.5614 76.4406 82.5254 75.0886 77.6894 65.1566C75.0374 59.7486 75.5054 54.6006 78.8854 51.0646C82.0054 47.7886 87.2054 46.5406 91.0534 48.1006C91.8854 46.6446 96.7734 38.9486 105.197 43.1086C108.681 44.8246 110.865 49.1926 111.125 54.8086C111.437 61.8806 108.421 70.9806 101.037 75.4006C99.7894 76.1286 98.3334 76.5446 96.8774 76.5446ZM87.4654 47.9446C84.3974 47.9446 81.4854 49.1926 79.3014 51.3766C77.3774 53.3526 74.7254 57.7206 78.2094 64.8446C82.9414 74.5166 92.6654 75.8166 96.6694 75.9206C98.1254 75.9726 99.5294 75.6086 100.777 74.8806C108.005 70.5646 110.917 61.6726 110.605 54.7566C110.397 49.3486 108.265 45.1366 104.989 43.5246C101.297 41.7046 97.9174 42.0166 94.9014 44.3566C93.4974 45.5006 92.3014 46.9046 91.4174 48.5166C91.3654 48.6726 91.2094 48.7246 91.0534 48.6726C89.9094 48.2046 88.7134 47.9446 87.4654 47.9446Z" fill="#B88E2F"/>
<path d="M104.521 36.3474C104.469 36.3474 104.417 36.3474 104.365 36.2954C104.261 36.1914 104.209 36.0354 104.313 35.9314L112.893 22.8274C112.997 22.7234 113.153 22.6714 113.257 22.7754C113.361 22.8794 113.413 22.9834 113.309 23.1394L104.729 36.2434C104.677 36.2954 104.625 36.3474 104.521 36.3474Z" fill="#B88E2F"/>
<path d="M90.5848 37.9601C90.4288 37.9601 90.3248 37.8561 90.3248 37.7521L87.0488 19.1361C87.0488 18.9801 87.1008 18.8241 87.2568 18.8241C87.4128 18.7721 87.5688 18.8761 87.5688 19.0321L90.8448 37.6481C90.8968 37.8041 90.7928 37.9601 90.5848 37.9601Z" fill="#B88E2F"/>
<path d="M82.6289 42.4316C82.5769 42.4316 82.4729 42.3796 82.4729 42.3796L73.6849 34.6836C73.5809 34.5796 73.5289 34.4236 73.6329 34.3196C73.7369 34.2156 73.8929 34.1636 73.9969 34.2676L74.0489 34.3196L82.8369 42.0156C82.9409 42.1196 82.9409 42.2756 82.8369 42.4316C82.7849 42.3796 82.6809 42.4316 82.6289 42.4316Z" fill="#B88E2F"/>
</svg>
