<svg width="40" height="40" viewBox="0 0 40 40" fill="none" xmlns="http://www.w3.org/2000/svg">
  <path d="M19.9999 36.5833H28.3333V33.25H19.9999C12.7666 33.25 6.66659 27.15 6.66659 19.9167C6.66659 12.6833 12.7666 6.58333 19.9999 6.58333C27.2333 6.58333 33.3333 12.6833 33.3333 19.9167V22.3C33.3333 23.6167 32.1499 24.9167 30.8333 24.9167C29.5166 24.9167 28.3333 23.6167 28.3333 22.3V19.9167C28.3333 15.3167 24.5999 11.5833 19.9999 11.5833C15.3999 11.5833 11.6666 15.3167 11.6666 19.9167C11.6666 24.5167 15.3999 28.25 19.9999 28.25C22.2999 28.25 24.3999 27.3167 25.8999 25.8C26.9833 27.2833 28.8499 28.25 30.8333 28.25C34.1166 28.25 36.6666 25.5833 36.6666 22.3V19.9167C36.6666 10.7167 29.1999 3.25 19.9999 3.25C10.7999 3.25 3.33325 10.7167 3.33325 19.9167C3.33325 29.1167 10.7999 36.5833 19.9999 36.5833ZM19.9999 24.9167C17.2333 24.9167 14.9999 22.6833 14.9999 19.9167C14.9999 17.15 17.2333 14.9167 19.9999 14.9167C22.7666 14.9167 24.9999 17.15 24.9999 19.9167C24.9999 22.6833 22.7666 24.9167 19.9999 24.9167Z" fill="#B88E2F"/>
</svg>