<svg width="500" height="500" viewBox="0 0 500 500" fill="none" xmlns="http://www.w3.org/2000/svg">
<path d="M411.3 382.599H88.7C88.3 382.599 88 382.299 88 381.899C88 381.499 88.3 381.199 88.7 381.199H411.3C411.7 381.199 412 381.499 412 381.899C412 382.299 411.7 382.599 411.3 382.599Z" fill="#D1D3D4"/>
<path d="M406.9 141.899V336.299C406.9 343.799 400.8 349.899 393.3 349.899H106.7C99.1996 349.899 93.0996 343.799 93.0996 336.299V141.899C93.0996 134.399 99.1996 128.299 106.7 128.299H393.3C400.8 128.299 406.9 134.399 406.9 141.899Z" fill="white"/>
<path d="M393.3 350.499H106.7C98.8 350.499 92.5 344.099 92.5 336.299V141.899C92.5 133.999 98.9 127.699 106.7 127.699H393.3C401.2 127.699 407.5 134.099 407.5 141.899V336.299C407.5 344.199 401.2 350.499 393.3 350.499ZM106.7 128.899C99.5 128.899 93.7 134.699 93.7 141.899V336.299C93.7 343.499 99.5 349.299 106.7 349.299H393.3C400.5 349.299 406.3 343.499 406.3 336.299V141.899C406.3 134.699 400.5 128.899 393.3 128.899H106.7Z" fill="#231F20"/>
<path d="M406.9 141.899V314.499H93.0996V141.899C93.0996 134.399 99.1996 128.299 106.7 128.299H393.3C400.8 128.299 406.9 134.399 406.9 141.899Z" fill="#231F20"/>
<path d="M390.3 144.398H106V301.598H390.3V144.398Z" fill="white"/>
<path d="M390.3 302.299H106C105.7 302.299 105.4 301.999 105.4 301.699V144.399C105.4 143.999 105.7 143.799 106 143.799H390.3C390.7 143.799 390.9 144.099 390.9 144.399V301.699C390.9 301.999 390.6 302.299 390.3 302.299ZM106.6 300.999H389.6V144.999H106.6V300.999Z" fill="#231F20"/>
<path d="M250.001 339.4C246.001 339.4 242.801 336.2 242.801 332.2C242.801 328.2 246.001 325 250.001 325C254.001 325 257.201 328.2 257.201 332.2C257.201 336.2 254.001 339.4 250.001 339.4ZM250.001 326.4C246.801 326.4 244.201 329 244.201 332.2C244.201 335.4 246.801 338 250.001 338C253.201 338 255.801 335.4 255.801 332.2C255.801 329 253.201 326.4 250.001 326.4Z" fill="#D1D3D4"/>
<path d="M295.7 374.598C292 370.198 291.4 349.898 291.4 349.898H208.7C208.7 349.898 208.1 370.098 204.4 374.598C200.7 379.098 186 386.198 186 388.798C186 391.398 188.2 392.298 198.7 392.298H301.3C311.8 392.298 314 391.398 314 388.798C314 386.198 299.4 378.998 295.7 374.598Z" fill="white"/>
<path d="M301.301 392.899H198.701C188.201 392.899 185.301 391.999 185.301 388.799C185.301 387.199 188.501 384.999 194.101 381.399C198.001 378.899 202.101 376.199 203.701 374.199C207.201 369.999 207.901 350.099 207.901 349.899C207.901 349.599 208.201 349.299 208.501 349.299H291.201C291.501 349.299 291.801 349.599 291.801 349.899C291.801 350.099 292.501 369.999 296.001 374.199C297.701 376.199 301.701 378.799 305.601 381.399C311.201 385.099 314.401 387.199 314.401 388.799C314.601 391.999 311.801 392.899 301.301 392.899ZM209.301 350.499C209.201 353.999 208.301 370.799 204.801 374.899C203.001 376.999 198.901 379.699 194.901 382.299C191.601 384.399 186.701 387.699 186.701 388.699C186.701 390.399 187.601 391.599 198.801 391.599H301.301C312.501 391.599 313.401 390.399 313.401 388.699C313.401 387.699 308.401 384.499 305.201 382.299C301.201 379.699 297.101 376.999 295.301 374.899C291.801 370.799 291.001 353.999 290.801 350.499H209.301Z" fill="#231F20"/>
<path d="M422.7 389.1H357.9L366.3 337.6H414.3L422.7 389.1Z" fill="white"/>
<path d="M422.701 389.8H357.901C357.701 389.8 357.501 389.7 357.401 389.6C357.301 389.4 357.201 389.2 357.201 389L365.601 337.5C365.701 337.2 365.901 336.9 366.301 336.9H414.301C414.601 336.9 414.901 337.1 415.001 337.5L423.401 389C423.401 389.2 423.401 389.4 423.201 389.6C423.101 389.7 422.901 389.8 422.701 389.8ZM358.701 388.4H421.801L413.701 338.3H366.901L358.701 388.4Z" fill="#231F20"/>
<path d="M375.802 345.2H375.702C375.302 345.1 375.102 344.8 375.102 344.4C375.202 343.5 378.602 323.6 390.302 323.6C402.002 323.6 405.402 343.5 405.502 344.4C405.602 344.8 405.302 345.1 404.902 345.2C404.502 345.3 404.202 345 404.102 344.6C404.102 344.4 400.702 325 390.302 325C379.902 325 376.502 344.4 376.402 344.6C376.402 345 376.102 345.3 375.802 345.2Z" fill="#231F20"/>
<path d="M377.602 393.4H333.102L338.802 357.9H371.902L377.602 393.4Z" fill="white"/>
<path d="M377.601 394.099H333.001C332.801 394.099 332.601 393.999 332.501 393.899C332.401 393.699 332.301 393.499 332.301 393.299L338.101 357.899C338.201 357.599 338.401 357.299 338.801 357.299H371.801C372.101 357.299 372.401 357.499 372.501 357.899L378.301 393.299C378.301 393.499 378.301 393.699 378.101 393.899C378.001 393.999 377.801 393.999 377.601 394.099ZM333.901 392.699H376.801L371.301 358.699H339.401L333.901 392.699Z" fill="#231F20"/>
<path d="M365.401 363.4C365.101 363.4 364.801 363.1 364.701 362.8C364.701 362.7 362.401 349.5 355.401 349.5C348.401 349.5 346.101 362.7 346.101 362.8C346.001 363.2 345.701 363.4 345.301 363.4C344.901 363.3 344.701 363 344.701 362.6C344.801 362 347.201 348.1 355.401 348.1C363.601 348.1 366.001 362 366.101 362.6C366.201 363 365.901 363.3 365.501 363.4H365.401Z" fill="#231F20"/>
<path d="M155.9 167.998C155.8 170.398 161.5 217.598 113.3 247.098C113.3 247.098 141.3 268.598 155.9 301.798H106V163.898L155.9 167.998Z" fill="white"/>
<path d="M155.9 302.299H106C105.7 302.299 105.4 301.999 105.4 301.699V163.899C105.4 163.699 105.5 163.599 105.6 163.399C105.7 163.299 105.9 163.199 106.1 163.199L156.1 167.299C156.4 167.299 156.7 167.599 156.7 167.999C156.7 168.099 156.7 168.499 156.7 168.899C157.5 184.099 154.8 221.999 114.5 247.099C119 250.699 143.4 271.499 156.6 301.399C156.7 301.699 156.6 302.099 156.3 302.199C156.1 302.299 156 302.299 155.9 302.299ZM106.6 300.999H155C140.5 268.899 113.2 247.699 112.9 247.499C112.7 247.399 112.6 247.199 112.7 246.999C112.7 246.799 112.8 246.599 113 246.499C153.5 221.799 156.1 184.099 155.4 168.999C155.4 168.799 155.4 168.699 155.4 168.599L106.7 164.599L106.6 300.999Z" fill="#231F20"/>
<path d="M131 293.5C130.6 293.5 130.3 293.2 130.3 292.8C129.7 279.2 119.2 258.8 113.1 247.9C112.6 247 112.6 247 112.6 246.7C112.7 246.3 113 246.1 113.4 246.1C113.6 246.1 113.8 246.3 113.9 246.5L114.3 247.2C120.5 258.2 131.1 278.8 131.7 292.7C131.7 293.2 131.4 293.5 131 293.5Z" fill="#D1D3D4"/>
<path d="M111.3 243.399C110.9 243.399 110.6 243.099 110.6 242.699C110.6 242.499 110.7 242.399 110.8 242.299C110.9 242.199 119.8 230.799 125 205.899C125.1 205.499 125.5 205.299 125.8 205.399C126.2 205.499 126.4 205.899 126.3 206.199C121 231.399 112.2 242.699 111.9 243.199C111.7 243.299 111.5 243.399 111.3 243.399Z" fill="#D1D3D4"/>
<path d="M106 242.6H117.7C119.4 242.6 120.7 243.9 120.7 245.6V248C120.7 249.7 119.4 251 117.7 251H106V242.6Z" fill="white"/>
<path d="M116.4 251.699H106C105.6 251.699 105.4 251.399 105.4 251.099V242.699C105.4 242.299 105.7 242.099 106 242.099H116.4C119.1 241.999 121.4 244.099 121.5 246.699C121.6 249.299 119.5 251.699 116.9 251.799C116.7 251.699 116.6 251.699 116.4 251.699ZM106.6 250.499H116.4C118.4 250.599 120.1 249.099 120.2 247.099C120.3 245.099 118.8 243.399 116.8 243.299C116.7 243.299 116.5 243.299 116.4 243.299H106.6V250.499Z" fill="#231F20"/>
<path d="M129.601 223.8C129.501 223.8 129.301 223.8 129.201 223.7C128.901 223.5 128.801 223.1 128.901 222.8C128.901 222.8 128.901 222.8 128.901 222.7C134.501 213.8 139.201 198.2 139.201 198C139.301 197.6 139.701 197.4 140.101 197.6C140.401 197.7 140.601 198.1 140.501 198.4C140.401 198.6 135.701 214.3 130.001 223.4C130.101 223.6 129.901 223.7 129.601 223.8Z" fill="#D1D3D4"/>
<path d="M340.301 167.998C340.401 170.398 334.701 217.598 382.901 247.098C382.901 247.098 354.901 268.598 340.301 301.798H390.301V163.898L340.301 167.998Z" fill="white"/>
<path d="M390.301 302.299H340.301C340.101 302.299 339.901 302.199 339.801 301.999C339.701 301.799 339.701 301.599 339.801 301.399C353.001 271.499 377.401 250.699 381.901 247.099C341.601 221.999 338.901 184.099 339.701 168.899C339.701 168.399 339.701 168.099 339.701 167.999C339.701 167.699 340.001 167.399 340.301 167.299L390.301 163.199C390.701 163.199 391.001 163.499 391.001 163.799V301.599C390.901 301.999 390.601 302.299 390.301 302.299ZM341.301 300.999H389.601V164.599L340.901 168.599C340.901 168.699 340.901 168.899 340.901 168.999C340.101 184.099 342.801 221.799 383.301 246.499C383.501 246.599 383.601 246.799 383.601 246.999C383.601 247.199 383.501 247.399 383.401 247.499C383.101 247.699 355.801 268.999 341.301 300.999Z" fill="#231F20"/>
<path d="M365.2 293.499C364.8 293.499 364.5 293.199 364.5 292.799C365.1 278.899 375.7 258.299 381.9 247.299C382.1 246.999 382.2 246.699 382.3 246.699C382.4 246.499 382.6 246.299 382.8 246.299C383.2 246.299 383.5 246.499 383.6 246.899C383.6 247.099 383.6 247.099 383.1 248.099C376.9 258.999 366.5 279.399 365.9 292.999C365.9 293.199 365.6 293.499 365.2 293.499Z" fill="#D1D3D4"/>
<path d="M385 243.399C384.8 243.399 384.6 243.299 384.5 243.099C384.1 242.599 375.3 231.399 370 206.099C369.9 205.699 370.2 205.399 370.5 205.299C370.9 205.199 371.2 205.499 371.3 205.799C376.5 230.699 385.4 242.099 385.5 242.199C385.7 242.499 385.7 242.899 385.4 243.199C385.3 243.299 385.2 243.299 385 243.399Z" fill="#D1D3D4"/>
<path d="M390.3 251.099H378.6C376.9 251.099 375.6 249.799 375.6 248.099V245.699C375.6 243.999 376.9 242.699 378.6 242.699H390.3V251.099Z" fill="white"/>
<path d="M390.301 251.7H379.801C377.101 251.8 374.801 249.7 374.701 247.1C374.601 244.4 376.701 242.1 379.301 242C379.401 242 379.601 242 379.701 242H390.201C390.601 242 390.801 242.3 390.801 242.6V251C390.901 251.5 390.601 251.7 390.301 251.7ZM379.801 243.3C377.801 243.2 376.101 244.7 376.001 246.7C375.901 248.7 377.401 250.4 379.401 250.5C379.501 250.5 379.701 250.5 379.801 250.5H389.601V243.3H379.801Z" fill="#231F20"/>
<path d="M366.7 223.8C366.5 223.8 366.2 223.7 366.1 223.5C360.4 214.4 355.7 198.6 355.6 198.5C355.5 198.1 355.7 197.7 356.1 197.7C356.5 197.6 356.8 197.8 356.9 198.1C356.9 198.2 361.7 213.9 367.2 222.8C367.4 223.1 367.3 223.6 366.9 223.8C366.9 223.7 366.8 223.8 366.7 223.8Z" fill="#D1D3D4"/>
<path d="M334.501 259.799H165.501C165.101 259.799 164.801 259.499 164.801 259.099V205.999C164.801 205.599 165.101 205.299 165.501 205.299H334.601C335.001 205.299 335.301 205.599 335.301 205.999V259.099C335.201 259.499 334.901 259.799 334.501 259.799ZM166.201 258.399H333.901V206.699H166.201V258.399Z" fill="#D1D3D4"/>
<path d="M334.501 300.599C334.101 300.599 333.801 300.299 333.801 299.899V266.599H166.201V299.899C166.201 300.299 165.901 300.599 165.501 300.599C165.101 300.599 164.801 300.299 164.801 299.899V265.899C164.801 265.499 165.101 265.199 165.501 265.199H334.601C335.001 265.199 335.301 265.499 335.301 265.899V299.899C335.201 300.299 334.901 300.599 334.501 300.599Z" fill="#D1D3D4"/>
<path d="M326.5 220.298H238.6C238.2 220.298 237.9 219.998 237.9 219.598C237.9 219.198 238.2 218.898 238.6 218.898H326.5C326.9 218.898 327.2 219.198 327.2 219.598C327.2 219.998 326.9 220.298 326.5 220.298Z" fill="#D1D3D4"/>
<path d="M326.5 230H238.6C238.2 230 237.9 229.7 237.9 229.3C237.9 228.9 238.2 228.6 238.6 228.6H326.5C326.9 228.6 327.2 228.9 327.2 229.3C327.2 229.7 326.9 230 326.5 230Z" fill="#D1D3D4"/>
<path d="M218.301 300.598H218.201C217.801 300.498 217.601 300.198 217.601 299.798L219.301 291.098C219.401 290.898 219.501 290.698 219.701 290.598C219.901 290.498 220.201 290.498 220.401 290.698L224.601 293.798L230.101 287.598C227.801 284.598 225.101 281.798 222.301 279.298C219.801 277.198 217.001 275.498 214.001 274.298C213.001 274.898 209.501 276.698 203.601 276.698C197.701 276.698 194.201 274.898 193.201 274.298C190.701 275.298 188.401 276.498 186.101 277.798C181.901 280.098 178.501 284.898 177.601 286.298L182.101 292.398L187.201 289.998C187.401 289.898 187.601 289.898 187.801 289.998C188.001 290.098 188.101 290.298 188.201 290.498L189.601 299.798C189.601 300.198 189.401 300.498 189.001 300.598C188.601 300.598 188.301 300.398 188.201 300.098L186.901 291.798L182.201 293.998C181.901 294.098 181.501 293.998 181.301 293.798L176.101 286.898C175.901 286.698 175.901 286.398 176.101 286.098C176.301 285.798 180.101 279.698 185.301 276.698C187.701 275.198 190.301 273.998 193.001 272.998C193.201 272.898 193.401 272.998 193.601 273.098C193.601 273.098 197.101 275.398 203.601 275.398C210.101 275.398 213.501 273.098 213.601 273.098C213.801 272.998 214.001 272.998 214.201 272.998C217.501 274.198 220.601 275.998 223.301 278.398C226.401 281.098 229.201 284.098 231.701 287.398C231.901 287.698 231.901 287.998 231.701 288.298L225.401 295.398C225.201 295.698 224.701 295.698 224.501 295.498L220.701 292.598L219.001 299.998C219.001 300.398 218.601 300.598 218.301 300.598Z" fill="#D1D3D4"/>
<path d="M202.4 283.299C195.4 283.299 192.7 274.199 192.6 273.799C192.5 273.399 192.7 272.999 193.1 272.899C193.5 272.799 193.9 272.999 194 273.399C194 273.499 196.5 281.899 202.5 281.899C209.1 281.999 213.4 273.399 213.4 273.299C213.6 272.999 214 272.799 214.3 272.999C214.6 273.199 214.8 273.599 214.6 273.899C214.4 274.299 209.8 283.299 202.4 283.299Z" fill="#D1D3D4"/>
<path d="M295.8 236.898H323.3C325.1 236.898 326.5 238.298 326.5 240.098V242.698C326.5 244.498 325.1 245.898 323.3 245.898H295.8C294 245.898 292.6 244.498 292.6 242.698V240.098C292.5 238.298 294 236.898 295.8 236.898Z" fill="#B88E2F"/>
<path d="M326.5 281.798H238.6C238.2 281.798 237.9 281.498 237.9 281.098C237.9 280.698 238.2 280.398 238.6 280.398H326.5C326.9 280.398 327.2 280.698 327.2 281.098C327.2 281.498 326.9 281.798 326.5 281.798Z" fill="#D1D3D4"/>
<path d="M309.501 291.5H238.501C238.101 291.5 237.801 291.2 237.801 290.8C237.801 290.4 238.101 290.1 238.501 290.1H309.501C309.901 290.1 310.201 290.4 310.201 290.8C310.201 291.2 309.901 291.5 309.501 291.5Z" fill="#D1D3D4"/>
<path d="M221.8 249.4H204.4C204 249.4 203.7 249.1 203.7 248.8L202.8 240.1L201.3 248.8C201.2 249.1 200.9 249.4 200.6 249.4H184.3C184.1 249.4 183.9 249.3 183.8 249.2C183.7 249 183.6 248.8 183.6 248.6L187.4 216.7C187.4 216.3 187.7 216.1 188.1 216.1H218C218.4 216.1 218.6 216.4 218.7 216.7L222.5 248.6C222.5 248.8 222.5 249 222.3 249.2C222.2 249.3 222 249.4 221.8 249.4ZM205.1 248H221L217.4 217.5H188.8L185.2 248H200L202.3 235C202.4 234.7 202.7 234.4 203 234.4C203.4 234.4 203.6 234.7 203.7 235L205.1 248Z" fill="#D1D3D4"/>
<path d="M218.301 222.599H187.501C187.101 222.599 186.801 222.299 186.801 221.899C186.801 221.499 187.101 221.199 187.501 221.199H218.301C218.701 221.199 219.001 221.499 219.001 221.899C219.001 222.299 218.701 222.599 218.301 222.599Z" fill="#D1D3D4"/>
<path d="M206.601 226.6C206.301 226.6 206.101 226.4 206.001 226.2L203.701 220.6L200.601 225.8C200.401 226.1 200.001 226.3 199.601 226.1C199.301 225.9 199.101 225.5 199.301 225.2C199.301 225.2 199.301 225.2 199.301 225.1L203.101 218.7C203.201 218.5 203.501 218.3 203.701 218.4C204.001 218.4 204.201 218.6 204.301 218.8L207.101 225.7C207.201 226.1 207.101 226.5 206.701 226.6C206.801 226.6 206.701 226.6 206.601 226.6Z" fill="#D1D3D4"/>
<path d="M211.601 295.998C209.501 295.998 207.801 294.298 207.801 292.198C207.801 290.098 209.501 288.398 211.601 288.398C213.701 288.398 215.401 290.098 215.401 292.198C215.401 294.298 213.701 295.998 211.601 295.998ZM211.601 289.698C210.301 289.698 209.201 290.798 209.201 292.098C209.201 293.398 210.301 294.498 211.601 294.498C212.901 294.498 214.001 293.398 214.001 292.098C214.101 290.798 213.001 289.698 211.601 289.698Z" fill="#D1D3D4"/>
<path d="M92.6004 401.299H140.5L135.2 331.799H87.4004L92.6004 401.299Z" fill="#231F20"/>
<path d="M77.0996 401.299H125L135.2 331.799H87.3996L77.0996 401.299Z" fill="white"/>
<path d="M125 401.899H77.1C76.7 401.899 76.5 401.599 76.5 401.299V401.199L86.7 331.699C86.7 331.399 87 331.199 87.3 331.199H135.2C135.4 331.199 135.6 331.299 135.7 331.399C135.8 331.499 135.9 331.699 135.8 331.899L125.6 401.399C125.6 401.699 125.3 401.999 125 401.899ZM77.8 400.699H124.4L134.4 332.499H87.9L77.8 400.699Z" fill="#231F20"/>
<path d="M118 392.998H84.7996C84.5996 392.998 84.3996 392.898 84.2996 392.798C84.1996 392.598 84.0996 392.398 84.0996 392.198L92.4996 338.498C92.5996 338.198 92.7996 337.898 93.1996 337.898H126.8C127 337.898 127.2 337.998 127.3 338.098C127.4 338.298 127.5 338.498 127.5 338.698L118.6 392.398C118.6 392.698 118.3 392.998 118 392.998ZM85.6996 391.598H117.4L126.1 339.298H93.8996L85.6996 391.598Z" fill="#D1D3D4"/>
<path d="M118.6 351.9H98.1004C97.7004 351.9 97.4004 351.6 97.4004 351.2C97.4004 350.8 97.7004 350.5 98.1004 350.5H118.6C119 350.5 119.3 350.8 119.3 351.2C119.3 351.6 118.9 351.9 118.6 351.9Z" fill="#D1D3D4"/>
<path d="M114.599 360H96.8992C96.4992 360 96.1992 359.7 96.1992 359.3C96.1992 358.9 96.4992 358.6 96.8992 358.6H114.599C114.999 358.6 115.299 358.9 115.299 359.3C115.299 359.7 114.999 360 114.599 360Z" fill="#D1D3D4"/>
<path d="M116.2 368.599H95.7C95.3 368.599 95 368.299 95 367.899C95 367.499 95.3 367.199 95.7 367.199H116.2C116.6 367.199 116.9 367.499 116.9 367.899C116.9 368.299 116.6 368.599 116.2 368.599Z" fill="#D1D3D4"/>
<path d="M112.201 376.699H94.5008C94.1008 376.699 93.8008 376.399 93.8008 375.999C93.8008 375.599 94.1008 375.299 94.5008 375.299H112.201C112.601 375.299 112.901 375.599 112.901 375.999C112.901 376.399 112.601 376.699 112.201 376.699Z" fill="#D1D3D4"/>
<path d="M112.8 98.6992H387.2C392.3 98.6992 396.4 102.799 396.4 107.899V116.899H103.6V107.899C103.6 102.799 107.7 98.6992 112.8 98.6992Z" fill="#B88E2F"/>
<path d="M396.4 117.6H103.6C103.3 117.6 103 117.3 103 117V111.6C103 104.1 109.1 98.0996 116.5 98.0996H383.5C391 98.0996 397 104.2 397 111.6V117C397.1 117.3 396.8 117.6 396.4 117.6ZM104.2 116.3H395.7V111.6C395.7 104.8 390.2 99.3996 383.4 99.3996H116.4C109.6 99.3996 104.2 104.9 104.1 111.6L104.2 116.3Z" fill="#231F20"/>
<path d="M102.1 116.9L65.5996 157.5H91.9996L123.2 116.9H102.1Z" fill="white"/>
<path d="M91.9993 158.099H65.5993C65.2993 158.099 65.0993 157.899 64.9993 157.699C64.8993 157.499 64.8993 157.199 65.0993 156.999L101.499 116.499C101.599 116.399 101.799 116.299 101.999 116.299H123.099C123.499 116.299 123.699 116.599 123.699 116.999C123.699 117.099 123.699 117.199 123.599 117.299L92.3993 157.899C92.3993 157.999 92.1993 158.099 91.9993 158.099ZM67.0993 156.799H91.6993L121.899 117.599H102.299L67.0993 156.799Z" fill="#231F20"/>
<path d="M123.2 116.9L92 157.5H118.3L144.3 116.9H123.2Z" fill="#B88E2F"/>
<path d="M118.3 158.099H91.9997C91.7997 158.099 91.4997 157.999 91.3997 157.699C91.2997 157.499 91.2997 157.199 91.4997 156.999L122.7 116.499C122.8 116.299 123 116.299 123.2 116.299H144.3C144.6 116.299 144.9 116.599 145 116.899C145 116.999 145 117.199 144.9 117.299L118.9 157.799C118.8 157.999 118.5 158.099 118.3 158.099ZM93.2997 156.799H118L143.2 117.599H123.5L93.2997 156.799Z" fill="#231F20"/>
<path d="M144.299 116.9L118.299 157.5H144.599L165.499 116.9H144.299Z" fill="white"/>
<path d="M144.6 158.1H118.3C118.1 158.1 117.9 158 117.7 157.8C117.6 157.6 117.6 157.3 117.7 157.2L143.7 116.7C143.8 116.5 144 116.4 144.2 116.4H165.3C165.5 116.4 165.7 116.5 165.9 116.7C166 116.9 166 117.1 165.9 117.3L145.1 157.8C145 158 144.9 158.1 144.6 158.1ZM119.5 156.8H144.3L164.5 117.6H144.8L119.5 156.8Z" fill="#231F20"/>
<path d="M165.5 116.9L144.6 157.5H171L186.6 116.9H165.5Z" fill="#B88E2F"/>
<path d="M170.999 158.1H144.599C144.399 158.1 144.199 158 143.999 157.8C143.899 157.6 143.899 157.4 143.999 157.2L164.799 116.7C164.899 116.5 165.099 116.4 165.399 116.4H186.499C186.799 116.4 187.099 116.7 187.099 117C187.099 117.1 187.099 117.2 187.099 117.2L171.499 157.7C171.499 157.9 171.299 158.1 170.999 158.1ZM145.699 156.8H170.599L185.699 117.6H165.899L145.699 156.8Z" fill="#231F20"/>
<path d="M186.6 116.9L171 157.5H197.3L207.7 116.9H186.6Z" fill="white"/>
<path d="M197.298 158.099H170.998C170.798 158.099 170.598 157.999 170.498 157.799C170.398 157.599 170.398 157.399 170.398 157.199L185.998 116.699C186.098 116.499 186.298 116.299 186.598 116.299H207.698C207.898 116.299 208.098 116.399 208.198 116.499C208.298 116.699 208.398 116.899 208.298 117.099L197.898 157.599C197.898 157.899 197.598 158.099 197.298 158.099ZM171.898 156.799H196.798L206.898 117.599H186.998L171.898 156.799Z" fill="#231F20"/>
<path d="M207.699 116.9L197.299 157.5H223.699L228.899 116.9H207.699Z" fill="#B88E2F"/>
<path d="M223.699 158.099H197.399C197.199 158.099 196.999 157.999 196.899 157.899C196.799 157.699 196.699 157.499 196.799 157.299L207.199 116.799C207.299 116.499 207.499 116.299 207.799 116.299H228.899C229.099 116.299 229.299 116.399 229.399 116.499C229.499 116.599 229.599 116.799 229.599 116.999L224.399 157.499C224.199 157.899 223.999 158.099 223.699 158.099ZM198.099 156.799H223.099L228.099 117.599H208.199L198.099 156.799Z" fill="#231F20"/>
<path d="M228.899 116.9L223.699 157.5H249.999V116.9H228.899Z" fill="white"/>
<path d="M250 158.099H223.7C223.5 158.099 223.3 157.999 223.2 157.899C223.1 157.799 223 157.599 223.1 157.399L228.3 116.899C228.3 116.599 228.6 116.299 228.9 116.299H250C250.4 116.299 250.6 116.599 250.6 116.899V157.399C250.6 157.799 250.4 158.099 250 158.099ZM224.4 156.799H249.4V117.599H229.4L224.4 156.799Z" fill="#231F20"/>
<path d="M250 116.9V157.5H276.3L271.1 116.9H250Z" fill="#B88E2F"/>
<path d="M276.298 158.1H249.998C249.598 158.1 249.398 157.8 249.398 157.5V117C249.398 116.6 249.698 116.4 249.998 116.4H271.098C271.398 116.4 271.698 116.6 271.698 117L276.898 157.5C276.898 157.7 276.898 157.9 276.798 158C276.698 158 276.498 158.1 276.298 158.1ZM250.598 156.8H275.598L270.598 117.6H250.598V156.8Z" fill="#231F20"/>
<path d="M271.1 116.9L276.3 157.5H302.7L292.3 116.9H271.1Z" fill="white"/>
<path d="M302.7 158.099H276.4C276.1 158.099 275.8 157.899 275.8 157.499L270.6 116.899C270.6 116.699 270.6 116.499 270.8 116.399C270.9 116.299 271.1 116.199 271.3 116.199H292.4C292.7 116.199 293 116.399 293 116.699L303.4 157.199C303.4 157.399 303.4 157.599 303.3 157.799C303.1 157.999 302.9 158.099 302.7 158.099ZM276.9 156.799H301.9L291.8 117.599H271.8L276.9 156.799Z" fill="#231F20"/>
<path d="M292.299 116.9L302.699 157.5H328.999L313.399 116.9H292.299Z" fill="#B88E2F"/>
<path d="M328.999 158.099H302.699C302.399 158.099 302.099 157.899 302.099 157.599L291.699 117.099C291.699 116.899 291.699 116.699 291.799 116.499C291.899 116.299 292.099 116.299 292.299 116.299H313.399C313.699 116.299 313.899 116.499 313.999 116.699L329.599 157.199C329.699 157.399 329.599 157.599 329.499 157.799C329.399 157.999 329.199 158.099 328.999 158.099ZM303.199 156.799H328.099L312.999 117.599H293.099L303.199 156.799Z" fill="#231F20"/>
<path d="M313.398 116.9L328.998 157.5H355.398L334.498 116.9H313.398Z" fill="white"/>
<path d="M355.4 158.1H329C328.7 158.1 328.5 157.9 328.4 157.7L312.8 117.2C312.7 116.9 312.8 116.5 313.2 116.4C313.3 116.4 313.4 116.4 313.4 116.4H334.5C334.7 116.4 335 116.5 335.1 116.7L355.9 157.2C356 157.4 356 157.6 355.9 157.8C355.8 158 355.6 158.1 355.4 158.1ZM329.5 156.8H354.4L334.2 117.6H314.4L329.5 156.8Z" fill="#231F20"/>
<path d="M334.5 116.9L355.4 157.5H381.7L355.7 116.9H334.5Z" fill="#B88E2F"/>
<path d="M381.699 158.099H355.399C355.199 158.099 354.899 157.999 354.799 157.799L333.999 117.199C333.899 116.999 333.899 116.799 333.999 116.599C334.099 116.399 334.299 116.299 334.499 116.299H355.599C355.799 116.299 355.999 116.399 356.099 116.599L382.099 157.099C382.199 157.299 382.199 157.499 382.099 157.699C382.099 157.999 381.899 158.099 381.699 158.099ZM355.799 156.799H380.599L355.399 117.599H335.699L355.799 156.799Z" fill="#231F20"/>
<path d="M355.699 116.9L381.699 157.5H407.999L376.799 116.9H355.699Z" fill="white"/>
<path d="M407.999 158.099H381.699C381.499 158.099 381.299 157.999 381.199 157.799L355.199 117.299C354.999 116.999 355.099 116.599 355.299 116.399C355.399 116.299 355.599 116.299 355.699 116.299H376.799C376.999 116.299 377.199 116.399 377.299 116.499L408.499 156.999C408.599 157.199 408.699 157.499 408.599 157.699C408.499 157.999 408.299 158.099 407.999 158.099ZM381.999 156.799H406.699L376.499 117.599H356.899L381.999 156.799Z" fill="#231F20"/>
<path d="M376.799 116.9L407.999 157.5H434.399L397.899 116.9H376.799Z" fill="#B88E2F"/>
<path d="M434.4 158.1H408C407.8 158.1 407.6 158 407.5 157.9L376.3 117.4C376.2 117.2 376.1 116.9 376.2 116.7C376.3 116.5 376.5 116.3 376.8 116.4H397.9C398.1 116.4 398.3 116.5 398.4 116.6L434.8 157.1C435 157.3 435 157.6 434.9 157.8C434.9 158 434.6 158.1 434.4 158.1ZM408.4 156.8H433L397.7 117.6H378.1L408.4 156.8Z" fill="#231F20"/>
<path d="M65.5996 157.5H91.9996V183.4C91.9996 188.5 87.8996 192.6 82.7996 192.6H74.7996C69.6996 192.6 65.5996 188.5 65.5996 183.4V157.5Z" fill="white"/>
<path d="M79.1 193.2H78.5C71 193.2 65 187.1 65 179.7V157.5C65 157.1 65.3 156.9 65.6 156.9H92C92.4 156.9 92.6 157.2 92.6 157.5V179.7C92.6 187.2 86.6 193.2 79.1 193.2ZM66.3 158.1V179.7C66.3 186.5 71.8 192 78.5 192H79.1C85.8 192 91.3 186.5 91.3 179.8V158.1H66.3Z" fill="#231F20"/>
<path d="M92 157.5H118.3V183.4C118.3 188.5 114.2 192.6 109.1 192.6H101.1C96.1 192.6 92 188.5 92 183.4V157.5Z" fill="#B88E2F"/>
<path d="M105.399 193.199H104.799C97.2988 193.199 91.2988 187.099 91.2988 179.699V157.399C91.2988 156.999 91.5988 156.799 91.8988 156.799H118.199C118.599 156.799 118.799 157.099 118.799 157.399V179.599C118.899 187.199 112.899 193.199 105.399 193.199ZM92.5988 158.099V179.699C92.5988 186.499 98.0988 191.999 104.799 191.999H105.399C112.099 191.999 117.599 186.499 117.599 179.799V158.099H92.5988Z" fill="#231F20"/>
<path d="M118.299 157.5H144.599V183.4C144.599 188.5 140.499 192.6 135.399 192.6H127.399C122.299 192.6 118.199 188.5 118.199 183.4L118.299 157.5Z" fill="white"/>
<path d="M131.799 193.199H131.199C123.699 193.199 117.699 187.099 117.699 179.699V157.399C117.699 156.999 117.999 156.799 118.299 156.799H144.599C144.999 156.799 145.199 157.099 145.199 157.399V179.599C145.299 187.199 139.199 193.199 131.799 193.199ZM118.899 158.099V179.699C118.899 186.499 124.399 191.999 131.099 191.999H131.699C138.499 191.999 143.899 186.499 143.899 179.699V158.099H118.899Z" fill="#231F20"/>
<path d="M144.6 157.5H171V183.4C171 188.5 166.9 192.6 161.8 192.6H153.8C148.7 192.6 144.6 188.5 144.6 183.4V157.5Z" fill="#B88E2F"/>
<path d="M158.1 193.2H157.5C150 193.2 144 187.1 144 179.7V157.5C144 157.1 144.3 156.9 144.6 156.9H171C171.4 156.9 171.6 157.2 171.6 157.5V179.7C171.6 187.2 165.6 193.2 158.1 193.2ZM145.3 158.1V179.7C145.3 186.5 150.8 192 157.5 192H158.1C164.8 192 170.3 186.5 170.3 179.8V158.1H145.3Z" fill="#231F20"/>
<path d="M170.998 157.5H197.298V183.4C197.298 188.5 193.198 192.6 188.098 192.6H180.098C174.998 192.6 170.898 188.5 170.898 183.4L170.998 157.5Z" fill="white"/>
<path d="M184.399 193.199H183.799C176.299 193.199 170.299 187.099 170.299 179.699V157.399C170.299 156.999 170.599 156.799 170.899 156.799H197.199C197.599 156.799 197.799 157.099 197.799 157.399V179.599C197.999 187.199 191.899 193.199 184.399 193.199ZM171.599 158.099V179.699C171.599 186.499 177.099 191.999 183.799 191.999H184.399C191.099 191.999 196.599 186.499 196.599 179.799V158.099H171.599Z" fill="#231F20"/>
<path d="M197.299 157.5H223.599V183.4C223.599 188.5 219.499 192.6 214.399 192.6H206.399C201.299 192.6 197.199 188.5 197.199 183.4L197.299 157.5Z" fill="#B88E2F"/>
<path d="M210.799 193.199H210.199C202.699 193.199 196.699 187.099 196.699 179.699V157.399C196.699 156.999 196.999 156.799 197.299 156.799H223.599C223.999 156.799 224.199 157.099 224.199 157.399V179.599C224.299 187.199 218.199 193.199 210.799 193.199ZM197.999 158.099V179.699C197.999 186.399 203.399 191.899 210.199 191.999H210.799C217.599 191.999 222.999 186.499 222.999 179.699V158.099H197.999Z" fill="#231F20"/>
<path d="M223.7 157.5H250V183.4C250 188.5 245.9 192.6 240.8 192.6H232.8C227.7 192.6 223.6 188.5 223.6 183.4L223.7 157.5Z" fill="white"/>
<path d="M237.1 193.2H236.5C229 193.2 223 187.2 223 179.7V157.5C223 157.1 223.3 156.9 223.6 156.9H250C250.4 156.9 250.6 157.2 250.6 157.5V179.7C250.6 187.2 244.6 193.2 237.1 193.2ZM224.3 158.1V179.7C224.3 186.5 229.8 192 236.5 192H237.1C243.8 192 249.3 186.5 249.3 179.8V158.1H224.3Z" fill="#231F20"/>
<path d="M249.998 157.5H276.298V183.4C276.298 188.5 272.198 192.6 267.098 192.6H259.098C253.998 192.6 249.898 188.5 249.898 183.4L249.998 157.5Z" fill="#B88E2F"/>
<path d="M263.498 193.199H262.898C255.398 193.199 249.398 187.099 249.398 179.699V157.399C249.398 156.999 249.698 156.799 249.998 156.799H276.298C276.698 156.799 276.898 157.099 276.898 157.399V179.599C276.998 187.199 270.898 193.199 263.498 193.199ZM250.598 158.099V179.699C250.598 186.499 256.098 191.999 262.798 191.999H263.398C270.098 191.999 275.598 186.499 275.598 179.799V158.099H250.598Z" fill="#231F20"/>
<path d="M276.299 157.5H302.599V183.4C302.599 188.5 298.499 192.6 293.399 192.6H285.399C280.299 192.6 276.199 188.5 276.199 183.4L276.299 157.5Z" fill="white"/>
<path d="M289.799 193.199H289.199C281.699 193.199 275.699 187.099 275.699 179.699V157.399C275.699 156.999 275.999 156.799 276.299 156.799H302.599C302.999 156.799 303.199 157.099 303.199 157.399V179.599C303.299 187.199 297.299 193.199 289.799 193.199ZM276.999 158.099V179.699C276.999 186.499 282.499 191.899 289.199 191.999H289.799C296.499 191.999 301.999 186.499 301.999 179.699V158.099H276.999Z" fill="#231F20"/>
<path d="M302.7 157.5H329V183.4C329 188.5 324.9 192.6 319.8 192.6H311.8C306.7 192.6 302.6 188.5 302.6 183.4L302.7 157.5Z" fill="#B88E2F"/>
<path d="M316.1 193.2H315.5C308 193.2 302 187.2 302 179.7V157.5C302 157.1 302.3 156.9 302.6 156.9H329C329.4 156.9 329.6 157.2 329.6 157.5V179.7C329.6 187.2 323.6 193.2 316.1 193.2ZM303.3 158.1V179.7C303.3 186.5 308.8 192 315.5 192H316.1C322.8 192 328.3 186.5 328.3 179.8V158.1H303.3Z" fill="#231F20"/>
<path d="M328.998 157.5H355.298V183.4C355.298 188.5 351.198 192.6 346.098 192.6H338.098C332.998 192.6 328.898 188.5 328.898 183.4L328.998 157.5Z" fill="white"/>
<path d="M342.498 193.199H341.898C334.398 193.199 328.398 187.099 328.398 179.699V157.399C328.398 156.999 328.698 156.799 328.998 156.799H355.298C355.698 156.799 355.898 157.099 355.898 157.399V179.599C355.998 187.199 349.898 193.199 342.498 193.199ZM329.698 158.099V179.699C329.698 186.499 335.198 191.999 341.898 191.999H342.498C349.198 191.999 354.698 186.499 354.698 179.799V158.099H329.698Z" fill="#231F20"/>
<path d="M355.399 157.5H381.699V183.4C381.699 188.5 377.599 192.6 372.499 192.6H364.499C359.399 192.6 355.299 188.5 355.299 183.4L355.399 157.5Z" fill="#B88E2F"/>
<path d="M368.799 193.199H368.199C360.699 193.199 354.699 187.099 354.699 179.699V157.399C354.699 156.999 354.999 156.799 355.299 156.799H381.599C381.999 156.799 382.199 157.099 382.199 157.399V179.599C382.299 187.199 376.299 193.199 368.799 193.199ZM355.999 158.099V179.699C355.999 186.499 361.499 191.999 368.199 191.999H368.799C375.499 191.999 380.999 186.499 380.999 179.799V158.099H355.999Z" fill="#231F20"/>
<path d="M381.7 157.5H408V183.4C408 188.5 403.9 192.6 398.8 192.6H390.8C385.7 192.6 381.6 188.5 381.6 183.4L381.7 157.5Z" fill="white"/>
<path d="M395.2 193.199H394.6C387.1 193.199 381.1 187.099 381.1 179.699V157.399C381.1 156.999 381.4 156.799 381.7 156.799H408C408.4 156.799 408.6 157.099 408.6 157.399V179.599C408.6 187.199 402.6 193.199 395.2 193.199ZM382.3 158.099V179.699C382.3 186.499 387.8 191.999 394.5 191.999H395.1C401.8 191.999 407.3 186.499 407.3 179.799V158.099H382.3Z" fill="#231F20"/>
<path d="M407.998 157.5H434.298V183.4C434.298 188.5 430.198 192.6 425.098 192.6H417.098C411.998 192.6 407.898 188.5 407.898 183.4L407.998 157.5Z" fill="#B88E2F"/>
<path d="M421.498 193.199H420.898C413.398 193.199 407.398 187.099 407.398 179.699V157.399C407.398 156.999 407.698 156.799 407.998 156.799H434.298C434.698 156.799 434.898 157.099 434.898 157.399V179.599C434.998 187.199 428.998 193.199 421.498 193.199ZM408.698 158.099V179.699C408.698 186.499 414.198 191.999 420.898 191.999H421.498C428.198 191.999 433.698 186.499 433.698 179.799V158.099H408.698Z" fill="#231F20"/>
</svg>
