<svg width="28" height="28" viewBox="0 0 28 28" fill="none" xmlns="http://www.w3.org/2000/svg">
  <path d="M14 14C15.933 14 17.5 12.433 17.5 10.5C17.5 8.567 15.933 7 14 7C12.067 7 10.5 8.567 10.5 10.5C10.5 12.433 12.067 14 14 14Z" stroke="black" stroke-width="1.75"/>
  <path d="M14 25.6667C20.4434 25.6667 25.6667 20.4434 25.6667 14C25.6667 7.55672 20.4434 2.33337 14 2.33337C7.55672 2.33337 2.33337 7.55672 2.33337 14C2.33337 20.4434 7.55672 25.6667 14 25.6667Z" stroke="black" stroke-width="1.75"/>
  <path d="M20.965 23.3333C20.7784 19.9593 19.7459 17.5 14 17.5C8.2542 17.5 7.2217 19.9593 7.03503 23.3333" stroke="black" stroke-width="1.75" stroke-linecap="round"/>
</svg>