<svg width="36" height="33" viewBox="0 0 36 33" fill="none" xmlns="http://www.w3.org/2000/svg">
  <g clip-path="url(#clip0_1588_12251)">
    <path d="M18 0C8.07448 0 0 7.4016 0 16.5C0 25.5984 8.07448 33 18 33C18.1815 33 18.3585 32.9794 18.54 32.9753L18.603 32.9863C18.6525 32.9945 18.7005 33 18.75 33C18.819 33 18.8895 32.9917 18.9555 32.9739L19.0396 32.9519C28.4805 32.4527 36 25.2766 36 16.5C36 7.4016 27.9255 0 18 0ZM28.698 27.9936C28.6275 27.7832 28.4685 27.6059 28.2375 27.5357L24.2895 26.3312C22.911 25.8046 22.269 23.782 22.119 22.9707C23.1405 22.1003 24.0841 20.8037 24.0841 19.6322C24.0841 19.2335 24.207 19.0808 24.1831 19.0767C24.4171 19.0231 24.6075 18.8705 24.6975 18.6656C24.771 18.4964 25.4175 16.9853 25.4175 15.9665C25.4175 15.9101 25.41 15.8537 25.395 15.8001C25.3005 15.455 25.08 15.1071 24.7501 14.8898V11.6888C24.7501 9.71019 24.0931 8.88106 23.397 8.40121C23.241 7.41669 22.0906 5.50133 18.0001 5.50133C13.8181 5.50133 11.2501 9.10523 11.2501 11.6888V14.8898C10.9201 15.1071 10.6996 15.455 10.6051 15.8001C10.5901 15.8551 10.5826 15.9115 10.5826 15.9665C10.5826 16.9853 11.2291 18.4964 11.3026 18.6656C11.3926 18.8705 11.5111 19.001 11.7451 19.0547C11.7931 19.0808 11.9161 19.2348 11.9161 19.6322C11.9161 20.8037 12.8596 22.1003 13.8811 22.9706C13.7326 23.7805 13.0966 25.8017 11.7616 26.3132L7.76109 27.5356C7.53159 27.6057 7.36657 27.779 7.29457 27.9893C3.753 25.2134 1.49702 21.0966 1.49702 16.5C1.49702 8.1606 8.89952 1.37498 17.997 1.37498C27.0946 1.37498 34.497 8.1606 34.497 16.5C34.5 21.098 32.2425 25.2175 28.698 27.9936Z" fill="black"/>
  </g>
  <defs>
    <clipPath id="clip0_1588_12251">
      <rect width="36" height="33" fill="white"/>
    </clipPath>
  </defs>
</svg>