<svg width="28" height="28" viewBox="0 0 28 28" fill="none" xmlns="http://www.w3.org/2000/svg">
  <path d="M8.75 21C9.21413 21 9.65925 21.1844 9.98744 21.5126C10.3156 21.8408 10.5 22.2859 10.5 22.75C10.5 23.2141 10.3156 23.6592 9.98744 23.9874C9.65925 24.3156 9.21413 24.5 8.75 24.5C8.28587 24.5 7.84075 24.3156 7.51256 23.9874C7.18437 23.6592 7 23.2141 7 22.75C7 22.2859 7.18437 21.8408 7.51256 21.5126C7.84075 21.1844 8.28587 21 8.75 21ZM19.25 21C19.7141 21 20.1592 21.1844 20.4874 21.5126C20.8156 21.8408 21 22.2859 21 22.75C21 23.2141 20.8156 23.6592 20.4874 23.9874C20.1592 24.3156 19.7141 24.5 19.25 24.5C18.7859 24.5 18.3408 24.3156 18.0126 23.9874C17.6844 23.6592 17.5 23.2141 17.5 22.75C17.5 22.2859 17.6844 21.8408 18.0126 21.5126C18.3408 21.1844 18.7859 21 19.25 21Z" stroke="black" stroke-width="1.75"/>
  <path d="M2.62386 2.67398C2.40479 2.59694 2.16409 2.61007 1.9547 2.7105C1.74532 2.81093 1.5844 2.99042 1.50736 3.20948C1.43031 3.42855 1.44345 3.66926 1.54387 3.87864C1.6443 4.08802 1.82379 4.24894 2.04286 4.32598L2.62386 2.67398ZM24.101 11.5302L24.9574 11.7063L24.9585 11.7017L24.101 11.5302ZM6.65936 11.3867V8.21098H4.90936V11.3867H6.65936ZM2.92836 2.78132L2.62386 2.67398L2.04286 4.32598L2.34736 4.43215L2.92836 2.78132ZM12.761 18.9583H18.9467V17.2083H12.761V18.9583ZM6.65936 8.21098C6.65936 7.38615 6.66053 6.69782 6.60103 6.13898C6.53686 5.55915 6.40269 5.03065 6.07369 4.54998L4.62819 5.53698C4.73319 5.69098 4.81486 5.90332 4.86036 6.32682C4.90819 6.77015 4.90936 7.34765 4.90936 8.21098H6.65936ZM2.34736 4.43215C3.12669 4.70632 3.63886 4.88832 4.01569 5.07498C4.36919 5.24765 4.52553 5.38765 4.62819 5.53815L6.07369 4.54998C5.74236 4.06465 5.30019 3.75432 4.78569 3.50115C4.29569 3.26082 3.66803 3.04149 2.92836 2.78132L2.34736 4.43215ZM4.90936 11.3867C4.90936 13.0818 4.92569 14.3033 5.08436 15.2367C5.25586 16.233 5.59769 16.947 6.23353 17.619L7.50403 16.415C7.13069 16.0207 6.92886 15.6357 6.80986 14.9415C6.68153 14.1832 6.65936 13.1238 6.65936 11.3867H4.90936ZM12.761 17.2083C11.1079 17.2083 9.96103 17.206 9.09653 17.0835C8.26236 16.9657 7.82253 16.751 7.50403 16.415L6.23353 17.619C6.92653 18.3505 7.80503 18.669 8.85036 18.816C9.86536 18.9607 11.1615 18.9583 12.761 18.9583V17.2083ZM5.78436 8.01498H19.936V6.26498H5.78553L5.78436 8.01498ZM23.2435 11.3528L22.6602 14.182L24.3752 14.5343L24.9574 11.7063L23.2435 11.3528ZM19.9384 8.01498C20.937 8.01498 21.8167 8.01615 22.5109 8.09315C22.8539 8.1336 23.1152 8.18571 23.2949 8.24949C23.4827 8.31598 23.513 8.36615 23.4979 8.34632L24.885 7.27998C24.6109 6.92298 24.2259 6.72115 23.8747 6.59865C23.495 6.47366 23.1025 6.39148 22.7045 6.35365C21.8937 6.26382 20.9044 6.26498 19.9384 6.26498V8.01498ZM24.9585 11.7017C25.1569 10.7123 25.3249 9.88165 25.3657 9.21665C25.4089 8.53298 25.3307 7.85865 24.885 7.27998L23.4979 8.34632C23.5702 8.44082 23.6495 8.60998 23.6192 9.10932C23.5877 9.62732 23.4512 10.3192 23.2435 11.3587L24.9585 11.7017ZM18.9467 18.9583C19.8357 18.9583 20.5824 18.9595 21.1844 18.886C21.8085 18.8102 22.379 18.6422 22.876 18.2373L21.77 16.8805C21.6242 16.9995 21.4177 17.0952 20.9709 17.1488C20.5007 17.2072 19.88 17.2083 18.9467 17.2083V18.9583ZM22.6625 14.182C22.4735 15.0955 22.3475 15.7022 22.1959 16.1513C22.0524 16.5783 21.9159 16.7615 21.77 16.8805L22.876 18.2373C23.3742 17.8313 23.653 17.3075 23.8537 16.7102C24.0474 16.1362 24.1967 15.4058 24.3764 14.5355L22.6625 14.182Z" fill="black"/>
</svg>