<svg width="86" height="95" viewBox="0 0 86 95" fill="none" xmlns="http://www.w3.org/2000/svg">
<path d="M31.2718 67.7886C31.5617 68.5589 32.079 69.5575 31.4082 70.1682C31.3571 69.7686 31.3057 69.3749 31.2605 69.0043C31.1522 68.2281 31.0514 67.5351 30.9477 67.0293C30.9631 67.0528 30.9764 67.0777 30.9874 67.1036V67.1095C31.0953 67.3319 31.1865 67.5603 31.2718 67.7886Z" fill="#B88E2F"/>
<path d="M68.8594 44.6244C68.4503 51.9701 66.2211 58.384 60.9779 63.6284C60.6483 63.9537 60.3505 64.4788 59.9206 64.6102C59.7715 64.6547 59.6122 64.6508 59.4655 64.5989C59.4542 64.593 59.4429 64.593 59.4371 64.5871C58.6579 64.3076 59.1188 63.4916 59.0502 62.9153C58.9355 62.1105 59.0561 61.2897 59.3973 60.5524C59.5293 60.2574 59.6872 59.9748 59.8691 59.7079C60.0367 59.4643 60.217 59.2299 60.4095 59.0056C66.403 51.9575 67.1989 39.9559 62.3088 31.7148C57.2249 23.1375 47.0845 18.6343 37.51 20.7063C28.1726 22.7211 20.5471 31.1271 19.3814 40.7546C19.3131 41.7921 19.3074 42.8328 19.3643 43.8709C19.2334 49.2812 20.6437 54.0748 23.6747 58.2127C23.8002 58.3894 23.9303 58.5607 24.0612 58.732C24.0955 58.7777 24.1352 58.823 24.1691 58.8688C24.7073 59.5546 25.2807 60.2118 25.8868 60.8379C26.0516 61.0091 26.2164 61.1737 26.3887 61.3416C26.5079 61.4558 26.6276 61.5758 26.7472 61.69C26.181 61.5225 25.5856 61.4796 25.0014 61.5641C24.6166 61.5097 24.226 61.5097 23.8412 61.5641C23.3531 61.6411 22.8844 61.8122 22.461 62.0678C22.4438 62.0506 22.4325 62.0333 22.4154 62.0166C21.9662 61.4969 21.5397 60.9565 21.136 60.3955C21.0055 60.2129 20.8746 60.0303 20.7495 59.8422C20.7382 59.8191 20.7211 59.8002 20.7077 59.7793C15.2203 51.7266 14.3219 40.5964 18.7461 31.541C23.5626 21.7078 33.9176 15.9437 45.1146 16.8798C58.7035 18.0068 69.6214 30.916 68.8594 44.6244Z" fill="#B88E2F"/>
<path d="M81.4415 41.2343C82.3901 41.2343 83.3408 41.202 84.2877 41.2427C85.3216 41.2876 85.8352 41.9122 85.9515 42.9125C86.0816 44.0261 85.6224 44.9538 84.5491 45.0348C82.3445 45.1914 80.1322 45.2095 77.9253 45.089C76.8676 45.0356 76.2523 44.1957 76.3226 43.0855C76.3895 41.9979 76.9859 41.3044 78.1211 41.2629C79.2261 41.2209 80.334 41.2541 81.4403 41.2541L81.4415 41.2343Z" fill="#B88E2F"/>
<path d="M26.5402 12.4816C26.6527 13.8278 26.3239 14.4393 25.6551 14.8238C25.3567 15.0336 24.9888 15.1192 24.6288 15.0625C24.2688 15.0058 23.9447 14.8114 23.7245 14.5199C22.2767 12.537 21.0629 10.3923 20.1075 8.12873C19.7386 7.28669 20.2535 6.58696 20.9222 6.08368C21.481 5.66392 22.2092 5.58752 22.6739 6.08116C24.5418 8.06702 25.7032 10.476 26.5402 12.4816Z" fill="#B88E2F"/>
<path d="M58.5019 11.8258C59.5002 10.1321 60.6981 8.00141 62.0026 5.93873C62.4673 5.20374 63.277 5.45727 63.9471 5.75781C64.1351 5.83156 64.3062 5.94287 64.4501 6.08498C64.5939 6.22709 64.7076 6.39706 64.784 6.58456C64.8605 6.77206 64.8982 6.97319 64.8949 7.17576C64.8916 7.37833 64.8473 7.57811 64.7647 7.76299C63.8775 10.0567 62.6581 12.2066 61.146 14.1433C60.7253 14.6676 60.1699 14.9673 59.4777 14.571C58.6094 14.0728 58.3567 13.2903 58.5019 11.8258Z" fill="#B88E2F"/>
<path d="M40.8054 4.85502C40.8054 3.81948 40.7573 2.781 40.8204 1.74882C40.8727 0.898815 41.2742 0.171798 42.1868 0.0311796C42.4051 -0.0120202 42.6299 -0.0103129 42.8475 0.0361979C43.0651 0.0827086 43.2711 0.173056 43.4529 0.30177C43.6347 0.430485 43.7886 0.594888 43.9053 0.78503C44.022 0.975173 44.099 1.1871 44.1317 1.40798C44.5675 3.84049 44.565 6.33171 44.1246 8.76336C44.0451 9.20675 43.7942 9.60065 43.4267 9.85925C43.0591 10.1178 42.6046 10.2202 42.1622 10.1439C41.1981 10.0319 40.8622 9.2868 40.8259 8.43806C40.7744 7.24553 40.8129 6.0488 40.8129 4.85418L40.8054 4.85502Z" fill="#B88E2F"/>
<path d="M80.5917 63.8287C80.3219 65.1719 79.7075 66.1957 78.3382 65.5497C76.3563 64.5718 74.4382 63.469 72.5952 62.2479C71.8545 61.7761 71.7691 60.9047 72.2284 60.1193C72.609 59.4703 73.2322 58.907 73.985 59.2378C76.1654 60.1699 78.2131 61.3877 80.0747 62.8595C80.3478 63.0819 80.4386 63.5319 80.5917 63.8287Z" fill="#B88E2F"/>
<path d="M73.3196 27.2639C72.5216 27.185 72.0778 26.9025 71.8093 26.3589C71.4601 25.6524 71.417 24.8835 72.0243 24.3831C73.8812 22.9083 75.9327 21.6987 78.1202 20.7887C78.8539 20.4676 79.5201 20.9277 79.9141 21.5947C80.2558 22.1739 80.36 22.9114 79.8468 23.3681C77.8781 25.1206 75.4953 26.1855 73.3196 27.2639Z" fill="#B88E2F"/>
<path d="M4.41147 45.7241C3.45493 45.7241 2.49672 45.7577 1.54228 45.7145C1.34147 45.7238 1.1409 45.6916 0.953016 45.6198C0.76513 45.5481 0.59394 45.4384 0.450079 45.2974C0.306218 45.1565 0.192759 44.9874 0.116736 44.8007C0.0407128 44.6139 0.0037482 44.4134 0.00814679 44.2117C-0.0667197 43.2673 0.376205 42.5193 1.26289 42.471C3.48337 42.3501 5.7164 42.3451 7.93898 42.4311C8.84783 42.466 9.2849 43.2081 9.24517 44.1358C9.25671 44.3377 9.2266 44.5398 9.15671 44.7295C9.08682 44.9192 8.97866 45.0923 8.83901 45.2381C8.69935 45.3839 8.5312 45.4992 8.3451 45.5768C8.15899 45.6543 7.95893 45.6925 7.75745 45.6889C6.64533 45.7523 5.52735 45.704 4.41147 45.704V45.7241Z" fill="#B88E2F"/>
<path d="M13.6895 26.0934C13.5201 27.686 12.6518 28.3219 11.3795 27.6931C9.54514 26.7361 7.76551 25.6769 6.04891 24.5206C5.29104 24.0337 5.16013 23.2085 5.50518 22.3874C5.62072 22.0791 5.85092 21.8277 6.14734 21.6863C6.44376 21.5448 6.7833 21.5243 7.09453 21.6289C9.41496 22.4491 11.5584 23.7056 13.4101 25.3312C13.615 25.5016 13.6259 25.9066 13.6895 26.0934Z" fill="#B88E2F"/>
<path d="M14.1399 61.6526C14.0805 63.131 12.8434 63.4538 11.9153 63.9239C10.2117 64.7882 8.80058 66.6439 6.63154 66.0571C6.41513 65.9911 6.22104 65.8665 6.0706 65.697C5.92016 65.5274 5.81918 65.3196 5.77877 65.0962C5.73836 64.8729 5.76007 64.6427 5.84152 64.4309C5.92298 64.2191 6.06101 64.034 6.24047 63.8958C8.04552 62.3436 10.1174 61.1345 12.3544 60.3279C13.2825 59.9778 13.9902 60.6528 14.1399 61.6526Z" fill="#B88E2F"/>
<path d="M28.462 85.9852C28.2232 85.209 28.0187 84.474 27.8535 83.7537C27.3083 81.2844 26.966 78.7744 26.83 76.2489C26.6707 74.2572 26.5059 72.2029 26.0964 69.8686C25.9772 69.1781 25.835 68.5388 25.6815 67.9512C25.6818 67.9431 25.6798 67.935 25.6756 67.9281C24.9533 65.2118 23.9014 63.5509 22.9231 62.5296C22.7577 62.3527 22.5832 62.1846 22.4003 62.0259L22.4116 62.0146C22.7022 61.7646 23.0143 61.5411 23.3443 61.3467C23.78 61.0898 24.2605 60.9188 24.7601 60.843C25.1336 60.7924 25.512 60.7905 25.886 60.8371C28.8033 61.1797 30.4449 64.4328 30.8163 66.168C30.8335 66.2478 30.8502 66.3393 30.8674 66.4304C30.867 66.4335 30.8673 66.4367 30.8683 66.4397C30.8693 66.4427 30.871 66.4454 30.8732 66.4476C30.8845 66.5274 30.9071 66.6189 30.9184 66.7099C30.9414 66.8359 30.964 66.9668 30.987 67.1037V67.1096C31.0552 67.5092 31.1175 67.9541 31.1802 68.4393C31.1915 68.5304 31.2086 68.6219 31.2199 68.7189C31.2312 68.8159 31.2484 68.9074 31.2597 69.0043C31.3053 69.3754 31.3563 69.7691 31.4077 70.1687C31.4249 70.3228 31.4416 70.471 31.4588 70.625C31.4818 70.8349 31.5098 71.0473 31.5328 71.2584C31.5667 71.5724 31.601 71.8881 31.6353 72.1945C31.8624 74.3403 32.0276 76.1725 32.033 76.2065H32.0447L34.814 75.961L34.865 75.9555C34.8365 75.6474 34.1828 68.4792 33.6253 65.734C33.6253 65.7326 33.6247 65.7312 33.6237 65.7302C33.6227 65.7291 33.6213 65.7286 33.6199 65.7286C33.6208 65.7074 33.6188 65.6862 33.614 65.6656C33.6148 65.6576 33.6127 65.6495 33.6081 65.6429C33.6085 65.6398 33.6082 65.6367 33.6073 65.6337C33.6063 65.6308 33.6048 65.628 33.6027 65.6257C33.6042 65.6158 33.6021 65.6057 33.5969 65.5972C33.1261 63.5143 32.0635 61.6133 30.5378 60.1244C30.5086 60.0991 30.4807 60.0723 30.4541 60.0442C29.7333 59.3443 28.8751 58.8027 27.9342 58.4539C26.9933 58.1052 25.9904 57.9569 24.9893 58.0185C24.7902 58.0298 24.5857 58.047 24.3753 58.0756C24.139 58.1034 23.9051 58.1492 23.6756 58.2124C22.9419 58.4026 22.2432 58.709 21.6057 59.1199C21.293 59.3198 20.993 59.5389 20.7073 59.776C20.0675 60.2976 19.4995 60.9021 19.0184 61.5738L17.813 63.2575L18.552 63.4228L19.8315 63.7024C19.8545 63.7083 21.4626 64.2447 22.6011 67.5642C22.9082 68.4659 23.1402 69.3917 23.2946 70.332C23.6814 72.5462 23.8462 74.538 23.9943 76.4605C24.2452 79.4852 24.4887 82.6069 25.6317 86.4305C25.666 86.5506 25.6999 86.6702 25.7401 86.7957C26.354 88.7761 27.7698 90.3284 29.5101 91.5389C31.294 92.7202 33.2403 93.6335 35.2874 94.2497C35.282 94.1658 35.2761 94.0785 35.2761 93.9979C35.2727 93.3774 35.4615 92.7711 35.8165 92.263C35.6346 92.1791 35.4526 92.0918 35.2703 92.0007L35.8558 92.2059C35.9958 91.9987 36.1621 91.8108 36.3506 91.6468C33.0167 90.6134 29.3265 88.7988 28.462 85.9852Z" fill="white"/>
<path d="M30.7929 65.9933C30.5206 62.5857 29.3366 45.3933 32.7449 41.5773C34.223 39.9231 35.7563 39.0542 37.3084 38.995C38.3328 38.9396 39.3383 39.2878 40.1107 39.9655L40.5289 40.3672L40.9706 64.8314L38.1265 64.8814L37.7082 41.7885C37.0959 41.6844 36.1068 42.0466 34.8771 43.423C32.9532 45.5755 32.9862 57.7892 33.6224 65.7746L30.7929 65.9933Z" fill="white"/>
<path d="M47.5567 65.9931H44.7126C44.7126 65.8046 44.7105 47.1091 44.5324 40.9454C44.4956 39.663 43.2709 39.4788 42.897 39.4528C42.3532 39.3845 41.804 39.5277 41.3621 39.8529C40.9202 40.1782 40.6191 40.6608 40.5205 41.2019L37.7183 40.7309C38.2202 37.8497 40.8045 36.5002 43.0974 36.6631C45.55 36.8331 47.3083 38.5616 47.3752 40.8656C47.5546 47.0705 47.5567 65.8063 47.5567 65.9931Z" fill="white"/>
<path d="M53.6222 66.7405H50.7781V46.6031C50.7781 45.5294 50.6024 44.1303 49.7647 43.5649C48.9073 42.9861 47.4584 43.3492 47.1172 43.4785L46.0954 40.8688C46.4032 40.7521 49.1691 39.7712 51.3737 41.2588C52.8656 42.2662 53.6213 44.064 53.6213 46.6031L53.6222 66.7405Z" fill="white"/>
<path d="M59.1736 90.2474C59.1272 91.2548 59.0841 92.1363 59.0481 92.8642C58.2572 92.7802 57.4629 92.7307 56.6716 92.7244C56.5173 92.7244 56.3629 92.7244 56.2082 92.7278C56.2421 92.0012 56.2856 91.1197 56.3337 90.1135C56.7323 81.4871 57.4337 63.7268 56.8469 55.6536C56.6645 53.1036 56.0104 51.3301 55.0141 50.6535C54.6416 50.3989 54.1857 50.2978 53.741 50.371L53.6238 49.9911L52.9128 47.6963C53.1451 47.6308 53.3833 47.5886 53.6238 47.5704C54.6835 47.4747 55.7436 47.7496 56.6244 48.3486C58.4011 49.5462 59.43 51.9384 59.6834 55.4517C60.2891 63.7818 59.5814 81.5816 59.1736 90.2474Z" fill="white"/>
<path d="M36.241 92.4682C36.0988 92.4056 35.957 92.3368 35.8148 92.2684C35.6329 92.1844 35.4509 92.0971 35.2686 92.006C33.6176 91.4405 32.0681 90.612 30.6796 89.5521C29.7208 88.8312 28.9982 87.8395 28.6042 86.7041C28.3044 85.734 28.0538 84.7492 27.8535 83.7536C27.4214 81.5132 27.1402 79.2462 27.0119 76.9678C26.8526 74.9761 26.6936 72.9218 26.2896 70.5875C26.1415 69.6969 25.9384 68.8164 25.6815 67.9511C25.6818 67.943 25.6798 67.9349 25.6756 67.928C24.8391 65.1601 23.6626 63.6137 22.6676 62.7461C22.7471 62.6718 22.8324 62.6034 22.9231 62.5295C23.1356 62.3607 23.3592 62.2064 23.5923 62.0678C24.0157 61.8121 24.4844 61.6411 24.9726 61.5641H24.9951C25.5793 61.4796 26.1748 61.5225 26.7409 61.69C29.1918 62.4149 30.5792 65.2969 30.9146 66.8891C30.9276 66.9359 30.9372 66.9836 30.9435 67.0318C30.9773 67.1972 31.0116 67.3856 31.0455 67.5855C31.0568 67.6539 31.0685 67.7223 31.0798 67.7953C31.1137 67.9951 31.1421 68.2117 31.1764 68.4401C31.1877 68.5312 31.2049 68.6227 31.2162 68.7196C31.2275 68.8166 31.2446 68.9081 31.2559 69.0051C31.3015 69.3761 31.3525 69.7699 31.404 70.1695C31.4211 70.3235 31.4378 70.4717 31.455 70.6257C31.478 70.8356 31.506 71.048 31.529 71.2592C31.5629 71.5731 31.5972 71.8888 31.6315 72.1952C31.8134 73.8104 31.9611 75.3434 32.041 76.2072C32.0807 76.6467 32.1033 76.915 32.1033 76.9263L34.8784 76.6744C34.8725 76.6232 34.8499 76.3663 34.8102 75.9608C34.6337 74.0262 34.1163 68.7247 33.6671 66.4534C33.6671 66.4526 33.667 66.4518 33.6667 66.4511C33.6664 66.4504 33.6659 66.4498 33.6654 66.4492C33.6648 66.4487 33.6642 66.4482 33.6635 66.4479C33.6628 66.4476 33.662 66.4475 33.6613 66.4475V66.4303C33.6616 66.4272 33.6613 66.4241 33.6604 66.4211C33.6594 66.4181 33.6579 66.4154 33.6558 66.4131V66.3904C33.6528 66.3651 33.6471 66.3402 33.6387 66.3161C33.6044 66.1448 33.5592 65.9681 33.5078 65.7855C32.989 63.8768 31.9699 62.1425 30.5566 60.7632C30.5281 60.7405 30.5056 60.7119 30.4771 60.6893C29.7797 60.0135 28.95 59.4906 28.0405 59.1536C27.1311 58.8166 26.1619 58.6729 25.1942 58.7315C25.001 58.7429 24.8019 58.766 24.597 58.7945C24.4493 58.8117 24.3071 58.8398 24.1649 58.8684C23.3504 59.0497 22.5757 59.3786 21.8788 59.8389C21.6181 60.0086 21.3676 60.1935 21.1284 60.3925C20.4526 60.9406 19.8538 61.578 19.3484 62.2873L18.5466 63.4206L18.1601 63.9684L20.1447 64.4192C20.1614 64.4251 21.5036 64.881 22.5956 67.564C23.0368 68.688 23.3533 69.8574 23.5392 71.051C23.9202 73.2652 24.0742 75.2569 24.2218 77.1794C24.4493 80.0157 24.6769 82.9322 25.6263 86.4304C25.7175 86.7843 25.8199 87.144 25.9333 87.5146C26.5388 89.3161 27.7 90.8772 29.2487 91.972C29.3055 92.0226 29.3664 92.0684 29.4307 92.1089C30.7728 92.8963 32.143 93.6439 33.5475 94.3336C34.1389 94.5733 34.7249 94.7844 35.2933 94.967C35.2878 94.883 35.282 94.7957 35.282 94.7151C35.2828 94.2951 35.3682 93.8795 35.533 93.4934C35.6978 93.1073 35.9386 92.7586 36.241 92.4682Z" fill="#B88E2F"/>
<path d="M30.8925 66.7122C30.6256 63.3046 29.465 46.1122 32.8055 42.2962C34.2539 40.642 35.7592 39.7731 37.2783 39.7139C38.2859 39.6602 39.2737 40.0091 40.0257 40.6844L40.4365 41.0861L40.8694 65.5503L38.0826 65.6002L37.6744 42.5074C37.0742 42.4033 36.1047 42.7655 34.8997 44.1419C33.0151 46.2944 33.0464 58.508 33.6709 66.4935L30.8925 66.7122Z" fill="#B88E2F"/>
<path d="M47.3225 66.7124H44.5357C44.5357 66.5244 44.5357 47.8289 44.3588 41.6647C44.3228 40.3828 43.1229 40.1985 42.7561 40.1725C42.2182 40.1074 41.6761 40.2528 41.2423 40.5786C40.8086 40.9044 40.5167 41.3854 40.4273 41.9216L37.6798 41.4502C37.8846 40.2299 38.5416 39.1324 39.519 38.3779C40.4964 37.6235 41.7219 37.2678 42.9497 37.3824C45.3534 37.5528 47.077 39.2809 47.1422 41.5854C47.3208 47.7886 47.3225 66.5244 47.3225 66.7124Z" fill="#B88E2F"/>
<path d="M53.2679 67.4584H50.4811V47.321C50.4811 46.2468 50.3088 44.8478 49.4878 44.2824C48.6475 43.7039 47.2292 44.0666 46.8946 44.1984L45.8934 41.5884C46.1953 41.4721 48.9047 40.4907 51.0667 41.9787C52.5305 42.9861 53.27 44.784 53.27 47.3231L53.2679 67.4584Z" fill="#B88E2F"/>
<path d="M58.7085 90.9651C58.6633 91.9725 58.6207 92.854 58.583 93.5823C57.8096 93.4964 57.0323 93.4498 56.2542 93.4425C56.1028 93.4425 55.9514 93.4425 55.8 93.4455C55.833 92.7193 55.8757 91.8378 55.9255 90.8316C56.3165 82.2052 57.0037 64.4449 56.4274 56.3718C56.2484 53.8217 55.6093 52.0483 54.631 51.3716C54.268 51.117 53.82 51.0156 53.3833 51.0891L53.2683 50.7092L52.5715 48.414C52.7991 48.3489 53.0325 48.3067 53.2683 48.2881C54.3092 48.1926 55.3503 48.4679 56.209 49.0659C57.9506 50.2635 58.959 52.6556 59.2075 56.1694C59.8018 64.4995 59.1083 82.2992 58.7085 90.9651Z" fill="#B88E2F"/>
</svg>
