<svg width="40" height="40" viewBox="0 0 40 40" fill="none" xmlns="http://www.w3.org/2000/svg">
  <g clip-path="url(#clip0_269_2850)">
    <path d="M31.1111 33.3333H17.7777V24.4445H15.5555V33.3333H8.88885V24.4445H6.66663V33.3333C6.66663 33.9227 6.90075 34.4879 7.3175 34.9047C7.73425 35.3214 8.29948 35.5556 8.88885 35.5556H31.1111C31.7004 35.5556 32.2657 35.3214 32.6824 34.9047C33.0992 34.4879 33.3333 33.9227 33.3333 33.3333V24.4445H31.1111V33.3333Z" fill="#B88E2F"/>
    <path d="M37.5444 14.7445L33.0111 5.67779C32.8271 5.30755 32.5435 4.99598 32.1921 4.7781C31.8408 4.56022 31.4356 4.44468 31.0222 4.44446H8.97774C8.56431 4.44468 8.15914 4.56022 7.80779 4.7781C7.45643 4.99598 7.17283 5.30755 6.98885 5.67779L2.45552 14.7445C2.30074 15.055 2.22083 15.3975 2.22219 15.7445V19.1667C2.22117 19.6859 2.402 20.1891 2.7333 20.5889C3.22292 21.1502 3.82763 21.5994 4.50633 21.9062C5.18504 22.2129 5.92183 22.37 6.66663 22.3667C7.88193 22.3686 9.06016 21.9483 9.99996 21.1778C10.9397 21.9488 12.1177 22.3701 13.3333 22.3701C14.5489 22.3701 15.7268 21.9488 16.6666 21.1778C17.6064 21.9488 18.7844 22.3701 20 22.3701C21.2155 22.3701 22.3935 21.9488 23.3333 21.1778C24.2731 21.9488 25.4511 22.3701 26.6666 22.3701C27.8822 22.3701 29.0602 21.9488 30 21.1778C31.049 22.0391 32.3912 22.4602 33.7443 22.3525C35.0974 22.2447 36.356 21.6165 37.2555 20.6C37.5908 20.2017 37.7756 19.6984 37.7777 19.1778V15.7445C37.7791 15.3975 37.6992 15.055 37.5444 14.7445ZM33.3333 20.1445C32.8587 20.1433 32.3913 20.0288 31.9699 19.8104C31.5486 19.592 31.1855 19.2761 30.9111 18.8889L30 17.6445L29.1 18.8889C28.8203 19.2701 28.4547 19.5801 28.0329 19.7938C27.6112 20.0075 27.145 20.1188 26.6722 20.1188C26.1994 20.1188 25.7332 20.0075 25.3114 19.7938C24.8896 19.5801 24.5241 19.2701 24.2444 18.8889L23.3333 17.6445L22.4333 18.8889C22.1536 19.2701 21.7881 19.5801 21.3663 19.7938C20.9445 20.0075 20.4783 20.1188 20.0055 20.1188C19.5327 20.1188 19.0665 20.0075 18.6447 19.7938C18.223 19.5801 17.8574 19.2701 17.5777 18.8889L16.6666 17.6445L15.7666 18.8889C15.4869 19.2701 15.1214 19.5801 14.6996 19.7938C14.2778 20.0075 13.8117 20.1188 13.3389 20.1188C12.866 20.1188 12.3999 20.0075 11.9781 19.7938C11.5563 19.5801 11.1908 19.2701 10.9111 18.8889L9.99996 17.6445L9.08885 18.8889C8.81437 19.2761 8.45133 19.592 8.02999 19.8104C7.60865 20.0288 7.14121 20.1433 6.66663 20.1445C6.24789 20.1495 5.83292 20.0649 5.44961 19.8963C5.06631 19.7276 4.72356 19.4788 4.44441 19.1667V15.7445L8.97774 6.66668H31.0222L35.5555 15.7333V19.1333C35.278 19.4499 34.9364 19.7038 34.5532 19.8781C34.1701 20.0524 33.7542 20.1432 33.3333 20.1445Z" fill="#B88E2F"/>
  </g>
  <defs>
    <clipPath id="clip0_269_2850">
      <rect width="40" height="40" fill="white"/>
    </clipPath>
  </defs>
</svg>