<svg width="28" height="28" viewBox="0 0 28 28" fill="none" xmlns="http://www.w3.org/2000/svg">
  <path fill-rule="evenodd" clip-rule="evenodd" d="M6.56137 5.16125C4.62587 6.04558 3.20837 8.15025 3.20837 10.6598C3.20837 13.2229 4.25837 15.1992 5.76104 16.8932C7.00121 18.2886 8.50154 19.4459 9.96454 20.5729C10.313 20.8413 10.6572 21.1088 10.997 21.3756C11.6107 21.8598 12.1579 22.2832 12.6864 22.5924C13.2149 22.9016 13.6384 23.0416 14 23.0416C14.3617 23.0416 14.7864 22.9016 15.3137 22.5924C15.8422 22.2832 16.3894 21.8598 17.003 21.3756C17.3429 21.108 17.6871 20.8409 18.0355 20.5741C19.4985 19.4447 20.9989 18.2886 22.239 16.8932C23.7429 15.1992 24.7917 13.2229 24.7917 10.6598C24.7917 8.15142 23.3742 6.04558 21.4387 5.16125C19.558 4.30142 17.031 4.52892 14.63 7.02442C14.5484 7.1091 14.4506 7.17646 14.3423 7.22247C14.2341 7.26848 14.1177 7.29219 14 7.29219C13.8824 7.29219 13.766 7.26848 13.6578 7.22247C13.5495 7.17646 13.4517 7.1091 13.37 7.02442C10.969 4.52892 8.44204 4.30142 6.56137 5.16125ZM14 5.20325C11.3027 2.78825 8.28221 2.44992 5.83337 3.56875C3.25037 4.75292 1.45837 7.49692 1.45837 10.6609C1.45837 13.7701 2.75337 16.1431 4.45321 18.0564C5.81354 19.5883 7.47837 20.8704 8.94954 22.0021C9.28398 22.2587 9.60521 22.5084 9.91321 22.7511C10.5117 23.2224 11.1534 23.7241 11.8032 24.1044C12.453 24.4847 13.195 24.7927 14 24.7927C14.805 24.7927 15.547 24.4836 16.1969 24.1044C16.8479 23.7241 17.4884 23.2224 18.0869 22.7511C18.3949 22.5084 18.7161 22.2587 19.0505 22.0021C20.5205 20.8704 22.1865 19.5871 23.5469 18.0564C25.2467 16.1431 26.5417 13.7701 26.5417 10.6609C26.5417 7.49692 24.7509 4.75292 22.1667 3.57108C19.7179 2.45108 16.6974 2.78942 14 5.20325Z" fill="black"/>
</svg>